0
SECTION
2
HEADER
9
$INSUNITS
70
4
9
$ACADVER
1
AC1014
9
$HANDSEED
5
FFFF
0
ENDSEC
0
SECTION
2
TABLES
0
TABLE
2
VPORT
5
8
100
AcDbSymbolTable
0
ENDTAB
0
TABLE
2
LTYPE
5
5
100
AcDbSymbolTable
0
LTYPE
5
14
100
AcDbSymbolTableRecord
100
AcDbLinetypeTableRecord
2
BYBLOCK
70
0
0
LTYPE
5
15
100
AcDbSymbolTableRecord
100
AcDbLinetypeTableRecord
2
BYLAYER
70
0
0
LTYPE
5
16
100
AcDbSymbolTableRecord
100
AcDbLinetypeTableRecord
2
DASHED
70
0
3
Dashed __ __ __ __ __ __ __ __ __ __ __ __ __ _
72
65
73
2
40
0.75
49
0.5
74
0
49
-0.25
74
0
0
ENDTAB
0
TABLE
2
LAYER
5
2
100
AcDbSymbolTable
70
2
0
LAYER
5
50
100
AcDbSymbolTableRecord
100
AcDbLayerTableRecord
2
0
70
0
62
7
6
CONTINUOUS
0
ENDTAB
0
TABLE
2
STYLE
5
3
100
AcDbSymbolTable
70
1
0
STYLE
5
11
100
AcDbSymbolTableRecord
100
AcDbTextStyleTableRecord
2
STANDARD
70
0
0
ENDTAB
0
TABLE
2
VIEW
5
6
100
AcDbSymbolTable
70
0
0
ENDTAB
0
TABLE
2
UCS
5
7
100
AcDbSymbolTable
70
0
0
ENDTAB
0
TABLE
2
APPID
5
9
100
AcDbSymbolTable
70
2
0
APPID
5
12
100
AcDbSymbolTableRecord
100
AcDbRegAppTableRecord
2
ACAD
70
0
0
ENDTAB
0
TABLE
2
DIMSTYLE
5
A
100
AcDbSymbolTable
70
1
0
ENDTAB
0
TABLE
2
BLOCK_RECORD
5
1
100
AcDbSymbolTable
70
1
0
BLOCK_RECORD
5
1F
100
AcDbSymbolTableRecord
100
AcDbBlockTableRecord
2
*MODEL_SPACE
0
BLOCK_RECORD
5
1B
100
AcDbSymbolTableRecord
100
AcDbBlockTableRecord
2
*PAPER_SPACE
0
ENDTAB
0
ENDSEC
0
SECTION
2
BLOCKS
0
BLOCK
5
20
100
AcDbEntity
100
AcDbBlockBegin
2
*MODEL_SPACE
0
ENDBLK
5
21
100
AcDbEntity
100
AcDbBlockEnd
0
BLOCK
5
1C
100
AcDbEntity
100
AcDbBlockBegin
2
*PAPER_SPACE
0
ENDBLK
5
1D
100
AcDbEntity
100
AcDbBlockEnd
0
ENDSEC
0
SECTION
2
ENTITIES
0
POINT
5
100
100
AcDbEntity
8
0
100
AcDbPoint
10
0
20
0
30
0
0
POINT
5
101
100
AcDbEntity
8
0
100
AcDbPoint
10
0
20
0
30
0
0
POINT
5
102
100
AcDbEntity
8
0
100
AcDbPoint
10
65.987505477215493
20
0.013241866545640529
30
0
0
POINT
5
103
100
AcDbEntity
8
0
100
AcDbPoint
10
98.412499785685384
20
0.024607869435673505
30
0
0
POINT
5
104
100
AcDbEntity
8
0
100
AcDbPoint
10
-129.1999976158142
20
28.000000000000004
30
0
0
POINT
5
105
100
AcDbEntity
8
0
100
AcDbPoint
10
-144.60000000000002
20
2.9999992102384527
30
0
0
POINT
5
106
100
AcDbEntity
8
0
100
AcDbPoint
10
-112.2
20
53.000000789761543
30
0
0
POINT
5
107
100
AcDbEntity
8
0
100
AcDbPoint
10
-96.799997615814206
20
28.000000000000004
30
0
0
POINT
5
108
100
AcDbEntity
8
0
100
AcDbPoint
10
-127.60000238418579
20
28.000000000000004
30
0
0
POINT
5
109
100
AcDbEntity
8
0
100
AcDbPoint
10
-112.2
20
2.9999992102384527
30
0
0
POINT
5
110
100
AcDbEntity
8
0
100
AcDbPoint
10
-79.799999999999983
20
53.000000789761543
30
0
0
POINT
5
111
100
AcDbEntity
8
0
100
AcDbPoint
10
-64.399997615814186
20
28.000000000000004
30
0
0
POINT
5
112
100
AcDbEntity
8
0
100
AcDbPoint
10
-95.200002384185765
20
28.000000000000004
30
0
0
POINT
5
113
100
AcDbEntity
8
0
100
AcDbPoint
10
-79.799999999999983
20
2.9999992102384527
30
0
0
POINT
5
114
100
AcDbEntity
8
0
100
AcDbPoint
10
-47.399999999999984
20
53.000000789761543
30
0
0
POINT
5
115
100
AcDbEntity
8
0
100
AcDbPoint
10
-31.999997615814184
20
28.000000000000004
30
0
0
POINT
5
116
100
AcDbEntity
8
0
100
AcDbPoint
10
-62.800002384185788
20
28.000000000000004
30
0
0
POINT
5
117
100
AcDbEntity
8
0
100
AcDbPoint
10
-47.399999999999984
20
2.9999992102384527
30
0
0
POINT
5
118
100
AcDbEntity
8
0
100
AcDbPoint
10
-14.999999999999984
20
53.000000789761543
30
0
0
POINT
5
119
100
AcDbEntity
8
0
100
AcDbPoint
10
0.40000238418581802
20
28.000000000000004
30
0
0
POINT
5
120
100
AcDbEntity
8
0
100
AcDbPoint
10
-30.400002384185786
20
28.000000000000004
30
0
0
POINT
5
121
100
AcDbEntity
8
0
100
AcDbPoint
10
-14.999999999999984
20
2.9999992102384527
30
0
0
POINT
5
122
100
AcDbEntity
8
0
100
AcDbPoint
10
17.400000000000038
20
53.000000789761543
30
0
0
POINT
5
123
100
AcDbEntity
8
0
100
AcDbPoint
10
32.800002384185838
20
28.000000000000004
30
0
0
POINT
5
124
100
AcDbEntity
8
0
100
AcDbPoint
10
1.9999976158142374
20
28.000000000000004
30
0
0
POINT
5
125
100
AcDbEntity
8
0
100
AcDbPoint
10
17.400000000000038
20
2.9999992102384527
30
0
0
POINT
5
126
100
AcDbEntity
8
0
100
AcDbPoint
10
49.800000000000026
20
53.000000789761543
30
0
0
POINT
5
127
100
AcDbEntity
8
0
100
AcDbPoint
10
65.200002384185822
20
28.000000000000004
30
0
0
POINT
5
128
100
AcDbEntity
8
0
100
AcDbPoint
10
34.399997615814229
20
28.000000000000004
30
0
0
POINT
5
129
100
AcDbEntity
8
0
100
AcDbPoint
10
49.800000000000026
20
2.9999992102384527
30
0
0
POINT
5
130
100
AcDbEntity
8
0
100
AcDbPoint
10
82.200000000000003
20
53.000000789761543
30
0
0
POINT
5
131
100
AcDbEntity
8
0
100
AcDbPoint
10
97.600002384185785
20
28.000000000000004
30
0
0
POINT
5
132
100
AcDbEntity
8
0
100
AcDbPoint
10
66.799997615814206
20
28.000000000000004
30
0
0
POINT
5
133
100
AcDbEntity
8
0
100
AcDbPoint
10
82.200000000000003
20
2.9999992102384527
30
0
0
POINT
5
134
100
AcDbEntity
8
0
100
AcDbPoint
10
114.60000000000002
20
53.000000789761543
30
0
0
POINT
5
135
100
AcDbEntity
8
0
100
AcDbPoint
10
130.00000238418582
20
28.000000000000004
30
0
0
POINT
5
136
100
AcDbEntity
8
0
100
AcDbPoint
10
99.199997615814226
20
28.000000000000004
30
0
0
POINT
5
137
100
AcDbEntity
8
0
100
AcDbPoint
10
114.60000000000002
20
2.9999992102384527
30
0
0
POINT
5
138
100
AcDbEntity
8
0
100
AcDbPoint
10
147.00000000000006
20
53.000000789761543
30
0
0
POINT
5
139
100
AcDbEntity
8
0
100
AcDbPoint
10
162.40000238418585
20
28.000000000000004
30
0
0
POINT
5
140
100
AcDbEntity
8
0
100
AcDbPoint
10
131.59999761581423
20
28.000000000000004
30
0
0
POINT
5
141
100
AcDbEntity
8
0
100
AcDbPoint
10
147.00000000000006
20
2.9999992102384527
30
0
0
POINT
5
142
100
AcDbEntity
8
0
100
AcDbPoint
10
-144.60000000000002
20
-1.9999992102384567
30
0
0
POINT
5
143
100
AcDbEntity
8
0
100
AcDbPoint
10
-129.1999976158142
20
-27
30
0
0
POINT
5
144
100
AcDbEntity
8
0
100
AcDbPoint
10
-160.00000238418582
20
-27
30
0
0
POINT
5
145
100
AcDbEntity
8
0
100
AcDbPoint
10
-144.60000000000002
20
-52.000000789761543
30
0
0
POINT
5
146
100
AcDbEntity
8
0
100
AcDbPoint
10
-112.2
20
-1.9999992102384567
30
0
0
POINT
5
147
100
AcDbEntity
8
0
100
AcDbPoint
10
-96.799997615814206
20
-27
30
0
0
POINT
5
148
100
AcDbEntity
8
0
100
AcDbPoint
10
-127.60000238418579
20
-27
30
0
0
POINT
5
149
100
AcDbEntity
8
0
100
AcDbPoint
10
-112.2
20
-52.000000789761543
30
0
0
POINT
5
150
100
AcDbEntity
8
0
100
AcDbPoint
10
-79.799999999999983
20
-1.9999992102384567
30
0
0
POINT
5
151
100
AcDbEntity
8
0
100
AcDbPoint
10
-64.399997615814186
20
-27
30
0
0
POINT
5
152
100
AcDbEntity
8
0
100
AcDbPoint
10
-95.200002384185765
20
-27
30
0
0
POINT
5
153
100
AcDbEntity
8
0
100
AcDbPoint
10
-79.799999999999983
20
-52.000000789761543
30
0
0
POINT
5
154
100
AcDbEntity
8
0
100
AcDbPoint
10
-47.399999999999984
20
-1.9999992102384567
30
0
0
POINT
5
155
100
AcDbEntity
8
0
100
AcDbPoint
10
-31.999997615814184
20
-27
30
0
0
POINT
5
156
100
AcDbEntity
8
0
100
AcDbPoint
10
-62.800002384185788
20
-27
30
0
0
POINT
5
157
100
AcDbEntity
8
0
100
AcDbPoint
10
-47.399999999999984
20
-52.000000789761543
30
0
0
POINT
5
158
100
AcDbEntity
8
0
100
AcDbPoint
10
-14.999999999999984
20
-1.9999992102384567
30
0
0
POINT
5
159
100
AcDbEntity
8
0
100
AcDbPoint
10
0.40000238418581802
20
-27
30
0
0
POINT
5
160
100
AcDbEntity
8
0
100
AcDbPoint
10
-30.400002384185786
20
-27
30
0
0
POINT
5
161
100
AcDbEntity
8
0
100
AcDbPoint
10
-14.999999999999984
20
-52.000000789761543
30
0
0
POINT
5
162
100
AcDbEntity
8
0
100
AcDbPoint
10
17.400000000000038
20
-1.9999992102384567
30
0
0
POINT
5
163
100
AcDbEntity
8
0
100
AcDbPoint
10
32.800002384185838
20
-27
30
0
0
POINT
5
164
100
AcDbEntity
8
0
100
AcDbPoint
10
1.9999976158142374
20
-27
30
0
0
POINT
5
165
100
AcDbEntity
8
0
100
AcDbPoint
10
17.400000000000038
20
-52.000000789761543
30
0
0
POINT
5
166
100
AcDbEntity
8
0
100
AcDbPoint
10
49.800000000000026
20
-1.9999992102384567
30
0
0
POINT
5
167
100
AcDbEntity
8
0
100
AcDbPoint
10
65.200002384185822
20
-27
30
0
0
POINT
5
168
100
AcDbEntity
8
0
100
AcDbPoint
10
34.399997615814229
20
-27
30
0
0
POINT
5
169
100
AcDbEntity
8
0
100
AcDbPoint
10
49.800000000000026
20
-52.000000789761543
30
0
0
POINT
5
170
100
AcDbEntity
8
0
100
AcDbPoint
10
82.200000000000003
20
-1.9999992102384567
30
0
0
POINT
5
171
100
AcDbEntity
8
0
100
AcDbPoint
10
97.600002384185785
20
-27
30
0
0
POINT
5
172
100
AcDbEntity
8
0
100
AcDbPoint
10
66.799997615814206
20
-27
30
0
0
POINT
5
173
100
AcDbEntity
8
0
100
AcDbPoint
10
82.200000000000003
20
-52.000000789761543
30
0
0
POINT
5
174
100
AcDbEntity
8
0
100
AcDbPoint
10
114.60000000000002
20
-1.9999992102384567
30
0
0
POINT
5
175
100
AcDbEntity
8
0
100
AcDbPoint
10
130.00000238418582
20
-27
30
0
0
POINT
5
176
100
AcDbEntity
8
0
100
AcDbPoint
10
99.199997615814226
20
-27
30
0
0
POINT
5
177
100
AcDbEntity
8
0
100
AcDbPoint
10
114.60000000000002
20
-52.000000789761543
30
0
0
POINT
5
178
100
AcDbEntity
8
0
100
AcDbPoint
10
147.00000000000006
20
-1.9999992102384567
30
0
0
POINT
5
179
100
AcDbEntity
8
0
100
AcDbPoint
10
162.40000238418585
20
-27
30
0
0
POINT
5
180
100
AcDbEntity
8
0
100
AcDbPoint
10
131.59999761581423
20
-27
30
0
0
POINT
5
181
100
AcDbEntity
8
0
100
AcDbPoint
10
147.00000000000006
20
-52.000000789761543
30
0
0
LWPOLYLINE
5
182
100
AcDbEntity
8
0
100
AcDbPolyline
90
8
70
1
43
0.0
10
-7.9999999999999982
20
5.5000000000000053
10
-22.000000000000011
20
5.5000000000000053
42
-0.4142135623730947
10
-29.000000000000004
20
12.499999999999996
10
-29.000000000000004
20
43.500000000000007
42
-0.41421356237309731
10
-22.000000000000011
20
50.500000000000007
10
-7.9999999999999938
20
50.500000000000007
42
-0.41421356237309542
10
-0.99999999999999756
20
43.500000000000021
10
-0.99999999999999978
20
12.5
42
-0.41421356237309581
0
LWPOLYLINE
5
183
100
AcDbEntity
8
0
100
AcDbPolyline
90
8
70
1
43
0.0
10
160.99999999999997
20
43.500000000000021
10
160.99999999999997
20
12.5
42
-0.41421356237309537
10
154
20
5.5000000000000018
10
139.99999999999997
20
5.5000000000000053
42
-0.41421356237309598
10
133
20
12.499999999999996
10
132.99999999999997
20
43.500000000000007
42
-0.41421356237309614
10
139.99999999999997
20
50.500000000000007
10
154
20
50.5
42
-0.41421356237309803
0
LWPOLYLINE
5
184
100
AcDbEntity
8
0
100
AcDbPolyline
90
8
70
1
43
0.0
10
100.60000000000001
20
43.500000000000007
42
-0.41421356237309731
10
107.59999999999998
20
50.5
10
121.59999999999999
20
50.500000000000007
42
-0.4142135623730947
10
128.59999999999999
20
43.500000000000021
10
128.59999999999999
20
12.5
42
-0.41421356237309581
10
121.59999999999998
20
5.500000000000008
10
107.59999999999998
20
5.5000000000000053
42
-0.4142135623730917
10
100.60000000000002
20
12.499999999999996
0
LWPOLYLINE
5
185
100
AcDbEntity
8
0
100
AcDbPolyline
90
8
70
1
43
0.0
10
89.200000000000003
20
50.500000000000007
42
-0.41421356237309243
10
96.200000000000017
20
43.500000000000021
10
96.200000000000017
20
12.5
42
-0.41421356237309581
10
89.200000000000003
20
5.5000000000000053
10
75.199999999999974
20
5.5000000000000053
42
-0.4142135623730952
10
68.199999999999989
20
12.499999999999996
10
68.199999999999989
20
43.500000000000007
42
-0.41421356237309614
10
75.199999999999974
20
50.500000000000014
0
LWPOLYLINE
5
186
100
AcDbEntity
8
0
100
AcDbPolyline
90
8
70
1
43
0.0
10
42.799999999999983
20
50.500000000000007
10
56.799999999999997
20
50.500000000000007
42
-0.41421356237309431
10
63.799999999999997
20
43.500000000000021
10
63.799999999999997
20
12.5
42
-0.41421356237309581
10
56.799999999999997
20
5.5000000000000053
10
42.799999999999983
20
5.5
42
-0.41421356237309459
10
35.799999999999997
20
12.499999999999996
10
35.79999999999999
20
43.500000000000007
42
-0.41421356237309731
0
LWPOLYLINE
5
187
100
AcDbEntity
8
0
100
AcDbPolyline
90
8
70
1
43
0.0
10
10.39999999999999
20
5.5000000000000062
42
-0.41421356237309503
10
3.3999999999999995
20
12.499999999999996
10
3.3999999999999941
20
43.500000000000007
42
-0.41421356237309698
10
10.39999999999999
20
50.500000000000007
10
24.400000000000013
20
50.500000000000007
42
-0.41421356237309581
10
31.400000000000002
20
43.500000000000021
10
31.400000000000002
20
12.5
42
-0.41421356237309626
10
24.399999999999999
20
5.5000000000000053
0
LWPOLYLINE
5
188
100
AcDbEntity
8
0
100
AcDbPolyline
90
8
70
1
43
0.0
10
-54.400000000000013
20
50.500000000000007
10
-40.399999999999991
20
50.500000000000007
42
-0.41421356237309431
10
-33.399999999999991
20
43.500000000000021
10
-33.399999999999999
20
12.5
42
-0.41421356237309626
10
-40.399999999999999
20
5.5000000000000053
10
-54.400000000000013
20
5.5000000000000053
42
-0.41421356237309354
10
-61.400000000000006
20
12.499999999999996
10
-61.400000000000006
20
43.500000000000007
42
-0.41421356237309653
0
LWPOLYLINE
5
189
100
AcDbEntity
8
0
100
AcDbPolyline
90
8
70
1
43
0.0
10
-72.799999999999983
20
50.500000000000007
42
-0.41421356237309431
10
-65.799999999999997
20
43.500000000000021
10
-65.799999999999997
20
12.5
42
-0.41421356237309598
10
-72.799999999999997
20
5.5000000000000027
10
-86.799999999999983
20
5.5000000000000053
42
-0.41421356237309254
10
-93.799999999999983
20
12.499999999999996
10
-93.799999999999983
20
43.500000000000007
42
-0.41421356237309614
10
-86.799999999999983
20
50.500000000000007
0
LWPOLYLINE
5
190
100
AcDbEntity
8
0
100
AcDbPolyline
90
8
70
1
43
0.0
10
-126.20000000000003
20
43.500000000000007
42
-0.41421356237309692
10
-119.20000000000002
20
50.499999999999986
10
-105.19999999999996
20
50.500000000000007
42
-0.41421356237309354
10
-98.200000000000003
20
43.500000000000021
10
-98.200000000000003
20
12.5
42
-0.41421356237309581
10
-105.20000000000002
20
5.5000000000000053
10
-119.20000000000002
20
5.5000000000000053
42
-0.41421356237309459
10
-126.20000000000002
20
12.499999999999996
0
LWPOLYLINE
5
191
100
AcDbEntity
8
0
100
AcDbPolyline
90
8
70
1
43
0.0
10
-137.59999999999999
20
5.5000000000000053
10
-151.59999999999999
20
5.5000000000000053
42
-0.41421356237309459
10
-158.59999999999999
20
12.499999999999996
10
-158.59999999999999
20
43.500000000000007
42
-0.41421356237309542
10
-151.59999999999999
20
50.500000000000007
10
-137.59999999999997
20
50.500000000000007
42
-0.41421356237309132
10
-130.59999999999999
20
43.500000000000021
10
-130.59999999999999
20
12.500000000000002
42
-0.41421356237309515
0
LWPOLYLINE
5
192
100
AcDbEntity
8
0
100
AcDbPolyline
90
8
70
1
43
0.0
10
133
20
-42.5
10
132.99999999999997
20
-11.499999999999995
42
-0.4142135623730952
10
139.99999999999997
20
-4.4999999999999796
10
154
20
-4.5000000000000107
42
-0.41421356237309775
10
160.99999999999997
20
-11.499999999999984
10
161
20
-42.5
42
-0.41421356237309542
10
154
20
-49.5
10
139.99999999999997
20
-49.499999999999993
42
-0.41421356237309581
0
LWPOLYLINE
5
193
100
AcDbEntity
8
0
100
AcDbPolyline
90
8
70
1
43
0.0
10
128.59999999999999
20
-11.499999999999984
10
128.59999999999999
20
-42.5
42
-0.41421356237309542
10
121.59999999999997
20
-49.5
10
107.59999999999998
20
-49.499999999999993
42
-0.41421356237309281
10
100.60000000000001
20
-42.5
10
100.60000000000001
20
-11.499999999999995
42
-0.41421356237309614
10
107.59999999999998
20
-4.4999999999999929
10
121.59999999999999
20
-4.4999999999999929
42
-0.41421356237309459
0
LWPOLYLINE
5
194
100
AcDbEntity
8
0
100
AcDbPolyline
90
8
70
1
43
0.0
10
75.199999999999974
20
-4.4999999999999929
10
89.200000000000003
20
-4.4999999999999929
42
-0.41421356237309254
10
96.200000000000017
20
-11.499999999999984
10
96.200000000000017
20
-42.5
42
-0.41421356237309542
10
89.199999999999989
20
-49.5
10
75.199999999999974
20
-49.499999999999993
42
-0.41421356237309542
10
68.199999999999989
20
-42.5
10
68.199999999999989
20
-11.499999999999995
42
-0.41421356237309609
0
LWPOLYLINE
5
195
100
AcDbEntity
8
0
100
AcDbPolyline
90
8
70
1
43
0.0
10
63.799999999999997
20
-11.499999999999984
10
63.799999999999997
20
-42.5
42
-0.4142135623730947
10
56.799999999999997
20
-49.499999999999993
10
42.799999999999983
20
-49.499999999999993
42
-0.4142135623730947
10
35.799999999999997
20
-42.5
10
35.79999999999999
20
-11.499999999999995
42
-0.41421356237309664
10
42.799999999999983
20
-4.4999999999999929
10
56.799999999999997
20
-4.4999999999999929
42
-0.41421356237309459
0
LWPOLYLINE
5
196
100
AcDbEntity
8
0
100
AcDbPolyline
90
8
70
1
43
0.0
10
10.39999999999999
20
-49.499999999999993
42
-0.41421356237309437
10
3.3999999999999941
20
-42.5
10
3.3999999999999941
20
-11.499999999999995
42
-0.41421356237309626
10
10.39999999999999
20
-4.4999999999999929
10
24.400000000000013
20
-4.4999999999999929
42
-0.41421356237309537
10
31.400000000000002
20
-11.499999999999984
10
31.400000000000002
20
-42.5
42
-0.41421356237309503
10
24.399999999999999
20
-49.499999999999986
0
LWPOLYLINE
5
197
100
AcDbEntity
8
0
100
AcDbPolyline
90
8
70
1
43
0.0
10
-29.000000000000004
20
-42.5
10
-29.000000000000004
20
-11.499999999999995
42
-0.41421356237309614
10
-22.000000000000011
20
-4.4999999999999929
10
-7.9999999999999938
20
-4.4999999999999938
42
-0.41421356237309537
10
-0.99999999999999867
20
-11.499999999999984
10
-0.99999999999999645
20
-42.5
42
-0.41421356237309498
10
-7.9999999999999982
20
-49.499999999999986
10
-22.000000000000011
20
-49.499999999999993
42
-0.41421356237309415
0
LWPOLYLINE
5
198
100
AcDbEntity
8
0
100
AcDbPolyline
90
8
70
1
43
0.0
10
-61.400000000000006
20
-42.5
10
-61.400000000000006
20
-11.499999999999995
42
-0.41421356237309542
10
-54.400000000000013
20
-4.4999999999999938
10
-40.399999999999991
20
-4.4999999999999885
42
-0.41421356237309503
10
-33.399999999999999
20
-11.499999999999984
10
-33.399999999999999
20
-42.5
42
-0.41421356237309503
10
-40.399999999999999
20
-49.499999999999986
10
-54.400000000000013
20
-49.499999999999993
42
-0.4142135623730947
0
LWPOLYLINE
5
199
100
AcDbEntity
8
0
100
AcDbPolyline
90
8
70
1
43
0.0
10
-72.799999999999983
20
-49.499999999999993
10
-86.799999999999983
20
-49.499999999999993
42
-0.41421356237309243
10
-93.799999999999983
20
-42.5
10
-93.799999999999983
20
-11.499999999999995
42
-0.4142135623730952
10
-86.799999999999983
20
-4.4999999999999796
10
-72.799999999999983
20
-4.4999999999999929
42
-0.41421356237309326
10
-65.799999999999997
20
-11.499999999999984
10
-65.799999999999997
20
-42.5
42
-0.41421356237309581
0
LWPOLYLINE
5
200
100
AcDbEntity
8
0
100
AcDbPolyline
90
8
70
1
43
0.0
10
-98.200000000000003
20
-42.5
42
-0.41421356237309542
10
-105.20000000000003
20
-49.5
10
-119.20000000000002
20
-49.499999999999993
42
-0.41421356237309354
10
-126.20000000000002
20
-42.5
10
-126.20000000000003
20
-11.499999999999995
42
-0.41421356237309598
10
-119.20000000000002
20
-4.4999999999999982
10
-105.19999999999996
20
-4.4999999999999929
42
-0.4142135623730937
10
-98.200000000000003
20
-11.499999999999984
0
LWPOLYLINE
5
201
100
AcDbEntity
8
0
100
AcDbPolyline
90
8
70
1
43
0.0
10
-158.59999999999999
20
-42.5
10
-158.59999999999999
20
-11.499999999999995
42
-0.41421356237309503
10
-151.59999999999999
20
-4.5000000000000027
10
-137.59999999999997
20
-4.4999999999999929
42
-0.41421356237309276
10
-130.59999999999999
20
-11.499999999999984
10
-130.59999999999999
20
-42.5
42
-0.4142135623730947
10
-137.59999999999999
20
-49.499999999999986
10
-151.59999999999999
20
-49.499999999999993
42
-0.41421356237309354
0
LWPOLYLINE
5
202
100
AcDbEntity
8
0
100
AcDbPolyline
90
8
70
1
43
0.0
10
-157.5
20
-55
10
157.5
20
-55
42
0.41421356237309748
10
165
20
-47.5
10
165
20
47.5
42
0.41421356237309709
10
157.5
20
54.999999999999986
10
-157.5
20
55
42
0.41421356237309709
10
-165
20
47.5
10
-165
20
-47.5
42
0.41421356237309709
0
CIRCLE
5
203
100
AcDbEntity
8
0
100
AcDbCircle
10
33.599999999999994
20
0
30
0
40
5.5999995827674809
210
0
220
0
230
1
0
LWPOLYLINE
5
204
100
AcDbEntity
8
0
100
AcDbPolyline
90
6
70
1
43
0.0
10
37.249999999999979
20
-2.1073284825421341
10
37.249999999999979
20
2.1073284825421306
10
33.599999999999987
20
4.2146569650842638
10
29.949999999999989
20
2.1073284825421363
10
29.949999999999989
20
-2.1073284825421315
10
33.59999999999998
20
-4.2146569650842647
0
LINE
5
205
100
AcDbEntity
8
0
100
AcDbLine
10
0
20
0
30
0
11
0
21
2.0000000298023224
31
0
0
LWPOLYLINE
5
206
100
AcDbEntity
8
0
100
AcDbPolyline
90
6
70
1
43
0.0
10
-34.850000000000001
20
2.1073284825421368
10
-34.850000000000001
20
-2.1073284825421315
10
-31.20000000000001
20
-4.2146569650842638
10
-27.550000000000008
20
-2.1073284825421328
10
-27.550000000000008
20
2.1073284825421315
10
-31.200000000000003
20
4.2146569650842638
0
CIRCLE
5
207
100
AcDbEntity
8
0
100
AcDbCircle
10
-31.20000000000001
20
0
30
0
40
5.5999995827674809
210
0
220
0
230
1
0
LWPOLYLINE
5
208
100
AcDbEntity
8
0
100
AcDbPolyline
90
6
70
1
43
0.0
10
65.989322274924774
20
4.2278984400494704
10
62.338414215188749
20
2.1221435462673206
10
62.33659741747946
20
-2.0925130272365093
10
65.985688679506225
20
-4.2014147069581895
10
69.636596739242265
20
-2.0956598131760389
10
69.638413536951532
20
2.1189967603277911
0
CIRCLE
5
209
100
AcDbEntity
8
0
100
AcDbCircle
10
98.40000000000002
20
0
30
0
40
5.5999995827674809
210
0
220
0
230
1
0
LWPOLYLINE
5
210
100
AcDbEntity
8
0
100
AcDbPolyline
90
6
70
1
43
0.0
10
98.412380657465164
20
4.2392648328363052
10
94.762440223033352
20
2.1318331830709765
10
94.762559351253543
20
-2.082823780329655
10
98.412618913905604
20
-4.1900490939649586
10
102.06255934833742
20
-2.082617444199629
10
102.06244022011722
20
2.1320395192010047
0
CIRCLE
5
211
100
AcDbEntity
8
0
100
AcDbCircle
10
98.40000000000002
20
0
30
0
40
5.5999995827674809
210
0
220
0
230
1
0
CIRCLE
5
212
100
AcDbEntity
8
0
100
AcDbCircle
10
66
20
0
30
0
40
5.5999995827674809
210
0
220
0
230
1
0
LINE
5
213
100
AcDbEntity
8
0
100
AcDbLine
10
-144.60000000000002
20
50.500000000000007
30
0
11
-144.60000000000002
21
53.000000789761543
31
0
0
LINE
5
214
100
AcDbEntity
8
0
100
AcDbLine
10
-158.59999999999999
20
28.000000000000004
30
0
11
-160.00000238418582
21
28.000000000000004
31
0
0
LINE
5
215
100
AcDbEntity
8
0
100
AcDbLine
10
-151.19999794363974
20
53.000000789761543
30
0
11
-138.00000205636022
21
53.000000789761543
31
0
0
LINE
5
216
100
AcDbEntity
8
0
100
AcDbLine
10
-160.00000238418582
20
13.999999374151226
30
0
11
-160.00000238418582
21
42.000000625848777
31
0
0
LINE
5
217
100
AcDbEntity
8
0
100
AcDbLine
10
-129.1999976158142
20
13.999999374151226
30
0
11
-129.1999976158142
21
42.000000625848777
31
0
0
LINE
5
218
100
AcDbEntity
8
0
100
AcDbLine
10
-151.19999794363974
20
2.9999992102384527
30
0
11
-138.00000205636022
21
2.9999992102384527
31
0
0
LINE
5
219
100
AcDbEntity
8
0
100
AcDbLine
10
-118.79999794363975
20
53.000000789761543
30
0
11
-105.60000205636022
21
53.000000789761543
31
0
0
LINE
5
220
100
AcDbEntity
8
0
100
AcDbLine
10
-96.799997615814206
20
13.999999374151226
30
0
11
-96.799997615814206
21
42.000000625848777
31
0
0
LINE
5
221
100
AcDbEntity
8
0
100
AcDbLine
10
-127.60000238418579
20
13.999999374151226
30
0
11
-127.60000238418579
21
42.000000625848777
31
0
0
LINE
5
222
100
AcDbEntity
8
0
100
AcDbLine
10
-118.79999794363975
20
2.9999992102384527
30
0
11
-105.60000205636022
21
2.9999992102384527
31
0
0
LINE
5
223
100
AcDbEntity
8
0
100
AcDbLine
10
-86.399997943639733
20
53.000000789761543
30
0
11
-73.200002056360219
21
53.000000789761543
31
0
0
LINE
5
224
100
AcDbEntity
8
0
100
AcDbLine
10
-64.399997615814186
20
13.999999374151226
30
0
11
-64.399997615814186
21
42.000000625848777
31
0
0
LINE
5
225
100
AcDbEntity
8
0
100
AcDbLine
10
-95.200002384185765
20
13.999999374151226
30
0
11
-95.200002384185765
21
42.000000625848777
31
0
0
LINE
5
226
100
AcDbEntity
8
0
100
AcDbLine
10
-86.399997943639733
20
2.9999992102384527
30
0
11
-73.200002056360219
21
2.9999992102384527
31
0
0
LINE
5
227
100
AcDbEntity
8
0
100
AcDbLine
10
-53.999997943639727
20
53.000000789761543
30
0
11
-40.800002056360249
21
53.000000789761543
31
0
0
LINE
5
228
100
AcDbEntity
8
0
100
AcDbLine
10
-31.999997615814184
20
13.999999374151226
30
0
11
-31.999997615814184
21
42.000000625848777
31
0
0
LINE
5
229
100
AcDbEntity
8
0
100
AcDbLine
10
-62.800002384185788
20
13.999999374151226
30
0
11
-62.800002384185788
21
42.000000625848777
31
0
0
LINE
5
230
100
AcDbEntity
8
0
100
AcDbLine
10
-53.999997943639727
20
2.9999992102384527
30
0
11
-40.800002056360249
21
2.9999992102384527
31
0
0
LINE
5
231
100
AcDbEntity
8
0
100
AcDbLine
10
-21.599997943639728
20
53.000000789761543
30
0
11
-8.4000020563602362
21
53.000000789761543
31
0
0
LINE
5
232
100
AcDbEntity
8
0
100
AcDbLine
10
0.40000238418581802
20
13.999999374151226
30
0
11
0.40000238418581802
21
42.000000625848777
31
0
0
LINE
5
233
100
AcDbEntity
8
0
100
AcDbLine
10
-30.400002384185786
20
13.999999374151226
30
0
11
-30.400002384185786
21
42.000000625848777
31
0
0
LINE
5
234
100
AcDbEntity
8
0
100
AcDbLine
10
-21.599997943639728
20
2.9999992102384527
30
0
11
-8.4000020563602362
21
2.9999992102384527
31
0
0
LINE
5
235
100
AcDbEntity
8
0
100
AcDbLine
10
10.800002056360292
20
53.000000789761543
30
0
11
23.999997943639784
21
53.000000789761543
31
0
0
LINE
5
236
100
AcDbEntity
8
0
100
AcDbLine
10
32.800002384185838
20
13.999999374151226
30
0
11
32.800002384185838
21
42.000000625848777
31
0
0
LINE
5
237
100
AcDbEntity
8
0
100
AcDbLine
10
1.9999976158142374
20
13.999999374151226
30
0
11
1.9999976158142374
21
42.000000625848777
31
0
0
LINE
5
238
100
AcDbEntity
8
0
100
AcDbLine
10
10.800002056360292
20
2.9999992102384527
30
0
11
23.999997943639784
21
2.9999992102384527
31
0
0
LINE
5
239
100
AcDbEntity
8
0
100
AcDbLine
10
43.200002056360283
20
53.000000789761543
30
0
11
56.399997943639775
21
53.000000789761543
31
0
0
LINE
5
240
100
AcDbEntity
8
0
100
AcDbLine
10
65.200002384185822
20
13.999999374151226
30
0
11
65.200002384185822
21
42.000000625848777
31
0
0
LINE
5
241
100
AcDbEntity
8
0
100
AcDbLine
10
34.399997615814229
20
13.999999374151226
30
0
11
34.399997615814229
21
42.000000625848777
31
0
0
LINE
5
242
100
AcDbEntity
8
0
100
AcDbLine
10
43.200002056360283
20
2.9999992102384527
30
0
11
56.399997943639775
21
2.9999992102384527
31
0
0
LINE
5
243
100
AcDbEntity
8
0
100
AcDbLine
10
75.600002056360267
20
53.000000789761543
30
0
11
88.799997943639738
21
53.000000789761543
31
0
0
LINE
5
244
100
AcDbEntity
8
0
100
AcDbLine
10
97.600002384185785
20
13.999999374151226
30
0
11
97.600002384185785
21
42.000000625848777
31
0
0
LINE
5
245
100
AcDbEntity
8
0
100
AcDbLine
10
66.799997615814206
20
13.999999374151226
30
0
11
66.799997615814206
21
42.000000625848777
31
0
0
LINE
5
246
100
AcDbEntity
8
0
100
AcDbLine
10
75.600002056360267
20
2.9999992102384527
30
0
11
88.799997943639738
21
2.9999992102384527
31
0
0
LINE
5
247
100
AcDbEntity
8
0
100
AcDbLine
10
108.0000020563603
20
53.000000789761543
30
0
11
121.19999794363977
21
53.000000789761543
31
0
0
LINE
5
248
100
AcDbEntity
8
0
100
AcDbLine
10
130.00000238418582
20
13.999999374151226
30
0
11
130.00000238418582
21
42.000000625848777
31
0
0
LINE
5
249
100
AcDbEntity
8
0
100
AcDbLine
10
99.199997615814226
20
13.999999374151226
30
0
11
99.199997615814226
21
42.000000625848777
31
0
0
LINE
5
250
100
AcDbEntity
8
0
100
AcDbLine
10
108.0000020563603
20
2.9999992102384527
30
0
11
121.19999794363977
21
2.9999992102384527
31
0
0
LINE
5
251
100
AcDbEntity
8
0
100
AcDbLine
10
140.40000205636031
20
53.000000789761543
30
0
11
153.59999794363978
21
53.000000789761543
31
0
0
LINE
5
252
100
AcDbEntity
8
0
100
AcDbLine
10
162.40000238418585
20
13.999999374151226
30
0
11
162.40000238418585
21
42.000000625848777
31
0
0
LINE
5
253
100
AcDbEntity
8
0
100
AcDbLine
10
131.59999761581423
20
13.999999374151226
30
0
11
131.59999761581423
21
42.000000625848777
31
0
0
LINE
5
254
100
AcDbEntity
8
0
100
AcDbLine
10
140.40000205636031
20
2.9999992102384527
30
0
11
153.59999794363978
21
2.9999992102384527
31
0
0
LINE
5
255
100
AcDbEntity
8
0
100
AcDbLine
10
-151.19999794363974
20
-1.9999992102384567
30
0
11
-138.00000205636022
21
-1.9999992102384567
31
0
0
LINE
5
256
100
AcDbEntity
8
0
100
AcDbLine
10
-129.1999976158142
20
-41.000000625848784
30
0
11
-129.1999976158142
21
-12.99999937415123
31
0
0
LINE
5
257
100
AcDbEntity
8
0
100
AcDbLine
10
-160.00000238418582
20
-41.000000625848784
30
0
11
-160.00000238418582
21
-12.99999937415123
31
0
0
LINE
5
258
100
AcDbEntity
8
0
100
AcDbLine
10
-151.19999794363974
20
-52.000000789761543
30
0
11
-138.00000205636022
21
-52.000000789761543
31
0
0
LINE
5
259
100
AcDbEntity
8
0
100
AcDbLine
10
-118.79999794363975
20
-1.9999992102384567
30
0
11
-105.60000205636022
21
-1.9999992102384567
31
0
0
LINE
5
260
100
AcDbEntity
8
0
100
AcDbLine
10
-96.799997615814206
20
-41.000000625848784
30
0
11
-96.799997615814206
21
-12.99999937415123
31
0
0
LINE
5
261
100
AcDbEntity
8
0
100
AcDbLine
10
-127.60000238418579
20
-41.000000625848784
30
0
11
-127.60000238418579
21
-12.99999937415123
31
0
0
LINE
5
262
100
AcDbEntity
8
0
100
AcDbLine
10
-118.79999794363975
20
-52.000000789761543
30
0
11
-105.60000205636022
21
-52.000000789761543
31
0
0
LINE
5
263
100
AcDbEntity
8
0
100
AcDbLine
10
-86.399997943639733
20
-1.9999992102384567
30
0
11
-73.200002056360219
21
-1.9999992102384567
31
0
0
LINE
5
264
100
AcDbEntity
8
0
100
AcDbLine
10
-64.399997615814186
20
-41.000000625848784
30
0
11
-64.399997615814186
21
-12.99999937415123
31
0
0
LINE
5
265
100
AcDbEntity
8
0
100
AcDbLine
10
-95.200002384185765
20
-41.000000625848784
30
0
11
-95.200002384185765
21
-12.99999937415123
31
0
0
LINE
5
266
100
AcDbEntity
8
0
100
AcDbLine
10
-86.399997943639733
20
-52.000000789761543
30
0
11
-73.200002056360219
21
-52.000000789761543
31
0
0
LINE
5
267
100
AcDbEntity
8
0
100
AcDbLine
10
-53.999997943639727
20
-1.9999992102384567
30
0
11
-40.800002056360249
21
-1.9999992102384567
31
0
0
LINE
5
268
100
AcDbEntity
8
0
100
AcDbLine
10
-31.999997615814184
20
-41.000000625848784
30
0
11
-31.999997615814184
21
-12.99999937415123
31
0
0
LINE
5
269
100
AcDbEntity
8
0
100
AcDbLine
10
-62.800002384185788
20
-41.000000625848784
30
0
11
-62.800002384185788
21
-12.99999937415123
31
0
0
LINE
5
270
100
AcDbEntity
8
0
100
AcDbLine
10
-53.999997943639727
20
-52.000000789761543
30
0
11
-40.800002056360249
21
-52.000000789761543
31
0
0
LINE
5
271
100
AcDbEntity
8
0
100
AcDbLine
10
-21.599997943639728
20
-1.9999992102384567
30
0
11
-8.4000020563602362
21
-1.9999992102384567
31
0
0
LINE
5
272
100
AcDbEntity
8
0
100
AcDbLine
10
0.40000238418581802
20
-41.000000625848784
30
0
11
0.40000238418581802
21
-12.99999937415123
31
0
0
LINE
5
273
100
AcDbEntity
8
0
100
AcDbLine
10
-30.400002384185786
20
-41.000000625848784
30
0
11
-30.400002384185786
21
-12.99999937415123
31
0
0
LINE
5
274
100
AcDbEntity
8
0
100
AcDbLine
10
-21.599997943639728
20
-52.000000789761543
30
0
11
-8.4000020563602362
21
-52.000000789761543
31
0
0
LINE
5
275
100
AcDbEntity
8
0
100
AcDbLine
10
10.800002056360292
20
-1.9999992102384567
30
0
11
23.999997943639784
21
-1.9999992102384567
31
0
0
LINE
5
276
100
AcDbEntity
8
0
100
AcDbLine
10
32.800002384185838
20
-41.000000625848784
30
0
11
32.800002384185838
21
-12.99999937415123
31
0
0
LINE
5
277
100
AcDbEntity
8
0
100
AcDbLine
10
1.9999976158142374
20
-41.000000625848784
30
0
11
1.9999976158142374
21
-12.99999937415123
31
0
0
LINE
5
278
100
AcDbEntity
8
0
100
AcDbLine
10
10.800002056360292
20
-52.000000789761543
30
0
11
23.999997943639784
21
-52.000000789761543
31
0
0
LINE
5
279
100
AcDbEntity
8
0
100
AcDbLine
10
43.200002056360283
20
-1.9999992102384567
30
0
11
56.399997943639775
21
-1.9999992102384567
31
0
0
LINE
5
280
100
AcDbEntity
8
0
100
AcDbLine
10
65.200002384185822
20
-41.000000625848784
30
0
11
65.200002384185822
21
-12.99999937415123
31
0
0
LINE
5
281
100
AcDbEntity
8
0
100
AcDbLine
10
34.399997615814229
20
-41.000000625848784
30
0
11
34.399997615814229
21
-12.99999937415123
31
0
0
LINE
5
282
100
AcDbEntity
8
0
100
AcDbLine
10
43.200002056360283
20
-52.000000789761543
30
0
11
56.399997943639775
21
-52.000000789761543
31
0
0
LINE
5
283
100
AcDbEntity
8
0
100
AcDbLine
10
75.600002056360267
20
-1.9999992102384567
30
0
11
88.799997943639738
21
-1.9999992102384567
31
0
0
LINE
5
284
100
AcDbEntity
8
0
100
AcDbLine
10
97.600002384185785
20
-41.000000625848784
30
0
11
97.600002384185785
21
-12.99999937415123
31
0
0
LINE
5
285
100
AcDbEntity
8
0
100
AcDbLine
10
66.799997615814206
20
-41.000000625848784
30
0
11
66.799997615814206
21
-12.99999937415123
31
0
0
LINE
5
286
100
AcDbEntity
8
0
100
AcDbLine
10
75.600002056360267
20
-52.000000789761543
30
0
11
88.799997943639738
21
-52.000000789761543
31
0
0
LINE
5
287
100
AcDbEntity
8
0
100
AcDbLine
10
108.0000020563603
20
-1.9999992102384567
30
0
11
121.19999794363977
21
-1.9999992102384567
31
0
0
LINE
5
288
100
AcDbEntity
8
0
100
AcDbLine
10
130.00000238418582
20
-41.000000625848784
30
0
11
130.00000238418582
21
-12.99999937415123
31
0
0
LINE
5
289
100
AcDbEntity
8
0
100
AcDbLine
10
99.199997615814226
20
-41.000000625848784
30
0
11
99.199997615814226
21
-12.99999937415123
31
0
0
LINE
5
290
100
AcDbEntity
8
0
100
AcDbLine
10
108.0000020563603
20
-52.000000789761543
30
0
11
121.19999794363977
21
-52.000000789761543
31
0
0
LINE
5
291
100
AcDbEntity
8
0
100
AcDbLine
10
140.40000205636031
20
-1.9999992102384567
30
0
11
153.59999794363978
21
-1.9999992102384567
31
0
0
LINE
5
292
100
AcDbEntity
8
0
100
AcDbLine
10
162.40000238418585
20
-41.000000625848784
30
0
11
162.40000238418585
21
-12.99999937415123
31
0
0
LINE
5
293
100
AcDbEntity
8
0
100
AcDbLine
10
131.59999761581423
20
-41.000000625848784
30
0
11
131.59999761581423
21
-12.99999937415123
31
0
0
LINE
5
294
100
AcDbEntity
8
0
100
AcDbLine
10
140.40000205636031
20
-52.000000789761543
30
0
11
153.59999794363978
21
-52.000000789761543
31
0
0
LINE
5
295
100
AcDbEntity
8
0
100
AcDbLine
10
-156.00149214267731
20
12.779283523559544
30
0
11
-156.00149214267731
21
45.111689567565882
31
0
0
LINE
5
296
100
AcDbEntity
8
0
100
AcDbLine
10
-156.00149214267731
20
45.111689567565882
30
0
11
-136.02080404758451
21
45.11168956756589
31
0
0
SPLINE
5
297
100
AcDbEntity
8
0
100
AcDbSpline
70
0
71
2
72
6
73
3
74
0
42
0.000000001
43
0.0000000001
44
0.0000000001
40
0
40
0
40
0
40
1
40
1
40
1
10
-136.02080404758451
20
45.11168956756589
30
0
10
-134.95922148227692
20
45.11168956756589
30
0
10
-134.14380133152008
20
44.31011199951169
30
0
0
SPLINE
5
298
100
AcDbEntity
8
0
100
AcDbSpline
70
0
71
2
72
6
73
3
74
0
42
0.000000001
43
0.0000000001
44
0.0000000001
40
0
40
0
40
0
40
1
40
1
40
1
10
-134.14380133152008
20
44.31011199951169
30
0
10
-133.32837164402008
20
43.508529663085909
30
0
10
-133.32837164402008
20
42.440023422241197
30
0
0
SPLINE
5
299
100
AcDbEntity
8
0
100
AcDbSpline
70
0
71
2
72
6
73
3
74
0
42
0.000000001
43
0.0000000001
44
0.0000000001
40
0
40
0
40
0
40
1
40
1
40
1
10
-133.32837164402008
20
42.440023422241197
30
0
10
-133.32837164402008
20
41.343421936035142
30
0
10
-134.12323534488678
20
40.530238151550265
30
0
0
SPLINE
5
300
100
AcDbEntity
8
0
100
AcDbSpline
70
0
71
2
72
6
73
3
74
0
42
0.000000001
43
0.0000000001
44
0.0000000001
40
0
40
0
40
0
40
1
40
1
40
1
10
-134.12323534488678
20
40.530238151550265
30
0
10
-134.91809904575348
20
39.717054367065394
30
0
10
-136.01958334445951
20
39.717054367065394
30
0
0
LINE
5
301
100
AcDbEntity
8
0
100
AcDbLine
10
-136.01958334445951
20
39.717054367065394
30
0
11
-150.63291370868686
21
39.717054367065394
31
0
0
LINE
5
302
100
AcDbEntity
8
0
100
AcDbLine
10
-150.63291370868686
20
39.717054367065394
30
0
11
-150.63291370868686
21
34.009675979614229
31
0
0
LINE
5
303
100
AcDbEntity
8
0
100
AcDbLine
10
-150.63291370868686
20
34.009675979614229
30
0
11
-140.31762182712558
21
34.009675979614229
31
0
0
SPLINE
5
304
100
AcDbEntity
8
0
100
AcDbSpline
70
0
71
2
72
6
73
3
74
0
42
0.000000001
43
0.0000000001
44
0.0000000001
40
0
40
0
40
0
40
1
40
1
40
1
10
-140.31762182712558
20
34.009675979614229
30
0
10
-139.19455587863922
20
34.009675979614229
30
0
10
-138.41149866580963
20
33.223571777343714
30
0
0
SPLINE
5
305
100
AcDbEntity
8
0
100
AcDbSpline
70
0
71
2
72
6
73
3
74
0
42
0.000000001
43
0.0000000001
44
0.0000000001
40
0
40
0
40
0
40
1
40
1
40
1
10
-138.41149866580963
20
33.223571777343714
30
0
10
-137.62844622135162
20
32.437467575073207
30
0
10
-137.62844622135162
20
31.338419914245573
30
0
0
SPLINE
5
306
100
AcDbEntity
8
0
100
AcDbSpline
70
0
71
2
72
6
73
3
74
0
42
0.000000001
43
0.0000000001
44
0.0000000001
40
0
40
0
40
0
40
1
40
1
40
1
10
-137.62844622135162
20
31.338419914245573
30
0
10
-137.62844622135162
20
30.231232643127409
30
0
10
-138.40742647647858
20
29.449195861816374
30
0
0
SPLINE
5
307
100
AcDbEntity
8
0
100
AcDbSpline
70
0
71
2
72
6
73
3
74
0
42
0.000000001
43
0.0000000001
44
0.0000000001
40
0
40
0
40
0
40
1
40
1
40
1
10
-138.40742647647858
20
29.449195861816374
30
0
10
-139.18641149997714
20
28.667163848876925
30
0
10
-140.31762182712558
20
28.667163848876925
30
0
0
LINE
5
308
100
AcDbEntity
8
0
100
AcDbLine
10
-140.31762182712558
20
28.667163848876925
30
0
11
-150.63291370868686
21
28.667163848876925
31
0
0
LINE
5
309
100
AcDbEntity
8
0
100
AcDbLine
10
-150.63291370868686
20
28.667163848876925
30
0
11
-150.63291370868686
21
12.776842117309544
31
0
0
SPLINE
5
310
100
AcDbEntity
8
0
100
AcDbSpline
70
0
71
2
72
6
73
3
74
0
42
0.000000001
43
0.0000000001
44
0.0000000001
40
0
40
0
40
0
40
1
40
1
40
1
10
-150.63291370868686
20
12.776842117309544
30
0
10
-150.63291370868686
20
11.67087554931638
30
0
10
-151.41474545001984
20
10.891280174255344
30
0
0
SPLINE
5
311
100
AcDbEntity
8
0
100
AcDbSpline
70
0
71
2
72
6
73
3
74
0
42
0.000000001
43
0.0000000001
44
0.0000000001
40
0
40
0
40
0
40
1
40
1
40
1
10
-151.41474545001984
20
10.891280174255344
30
0
10
-152.19657719135284
20
10.111689567565893
30
0
10
-153.33023369312289
20
10.111689567565893
30
0
0
SPLINE
5
312
100
AcDbEntity
8
0
100
AcDbSpline
70
0
71
2
72
6
73
3
74
0
42
0.000000001
43
0.0000000001
44
0.0000000001
40
0
40
0
40
0
40
1
40
1
40
1
10
-153.33023369312289
20
10.111689567565893
30
0
10
-154.45370972156525
20
10.111689567565893
30
0
10
-155.22759974002838
20
10.88415622711179
30
0
0
SPLINE
5
313
100
AcDbEntity
8
0
100
AcDbSpline
70
0
71
2
72
6
73
3
74
0
42
0.000000001
43
0.0000000001
44
0.0000000001
40
0
40
0
40
0
40
1
40
1
40
1
10
-155.22759974002838
20
10.88415622711179
30
0
10
-156.00149214267731
20
11.656622886657688
30
0
10
-156.00149214267731
20
12.779283523559544
30
0
0
LINE
5
314
100
AcDbEntity
8
0
100
AcDbLine
10
-123.73790323734283
20
12.778878211975071
30
0
11
-123.73790323734283
21
33.141517639160128
31
0
0
SPLINE
5
315
100
AcDbEntity
8
0
100
AcDbSpline
70
0
71
2
72
6
73
3
74
0
42
0.000000001
43
0.0000000001
44
0.0000000001
40
0
40
0
40
0
40
1
40
1
40
1
10
-123.73790323734283
20
33.141517639160128
30
0
10
-123.73790323734283
20
34.250335693359361
30
0
10
-122.96320021152496
20
35.055174827575648
30
0
0
SPLINE
5
316
100
AcDbEntity
8
0
100
AcDbSpline
70
0
71
2
72
6
73
3
74
0
42
0.000000001
43
0.0000000001
44
0.0000000001
40
0
40
0
40
0
40
1
40
1
40
1
10
-122.96320021152496
20
35.055174827575648
30
0
10
-122.18849241733551
20
35.860013961791978
30
0
10
-121.06664717197418
20
35.860013961791978
30
0
0
SPLINE
5
317
100
AcDbEntity
8
0
100
AcDbSpline
70
0
71
2
72
6
73
3
74
0
42
0.000000001
43
0.0000000001
44
0.0000000001
40
0
40
0
40
0
40
1
40
1
40
1
10
-121.06664717197418
20
35.860013961791978
30
0
10
-119.94601786136627
20
35.860013961791978
30
0
10
-119.15767252445221
20
35.05802631378171
30
0
0
SPLINE
5
318
100
AcDbEntity
8
0
100
AcDbSpline
70
0
71
2
72
6
73
3
74
0
42
0.000000001
43
0.0000000001
44
0.0000000001
40
0
40
0
40
0
40
1
40
1
40
1
10
-119.15767252445221
20
35.05802631378171
30
0
10
-118.36932718753815
20
34.256038665771449
30
0
10
-118.36932718753815
20
33.144369125366183
30
0
0
LINE
5
319
100
AcDbEntity
8
0
100
AcDbLine
10
-118.36932718753815
20
33.144369125366183
30
0
11
-118.36932718753815
21
30.986595153808565
31
0
0
LINE
5
320
100
AcDbEntity
8
0
100
AcDbLine
10
-118.36932718753815
20
30.986595153808565
30
0
11
-115.76199591159821
21
33.841094970703089
31
0
0
SPLINE
5
321
100
AcDbEntity
8
0
100
AcDbSpline
70
0
71
2
72
6
73
3
74
0
42
0.000000001
43
0.0000000001
44
0.0000000001
40
0
40
0
40
0
40
1
40
1
40
1
10
-115.76199591159821
20
33.841094970703089
30
0
10
-113.43849241733551
20
35.807895660400355
30
0
10
-111.18298590183258
20
35.807895660400355
30
0
0
LINE
5
322
100
AcDbEntity
8
0
100
AcDbLine
10
-111.18298590183258
20
35.807895660400355
30
0
11
-108.04385244846344
21
35.807895660400355
31
0
0
SPLINE
5
323
100
AcDbEntity
8
0
100
AcDbSpline
70
0
71
2
72
6
73
3
74
0
42
0.000000001
43
0.0000000001
44
0.0000000001
40
0
40
0
40
0
40
1
40
1
40
1
10
-108.04385244846344
20
35.807895660400355
30
0
10
-105.158811211586
20
35.807895660400355
30
0
10
-103.1117969751358
20
33.755788803100558
30
0
0
SPLINE
5
324
100
AcDbEntity
8
0
100
AcDbSpline
70
0
71
2
72
6
73
3
74
0
42
0.000000001
43
0.0000000001
44
0.0000000001
40
0
40
0
40
0
40
1
40
1
40
1
10
-103.1117969751358
20
33.755788803100558
30
0
10
-101.06478273868561
20
31.703681945800753
30
0
10
-101.06478273868561
20
28.839406967163054
30
0
0
LINE
5
325
100
AcDbEntity
8
0
100
AcDbLine
10
-101.06478273868561
20
28.839406967163054
30
0
11
-101.06478273868561
21
27.687835693359354
31
0
0
SPLINE
5
326
100
AcDbEntity
8
0
100
AcDbSpline
70
0
71
2
72
6
73
3
74
0
42
0.000000001
43
0.0000000001
44
0.0000000001
40
0
40
0
40
0
40
1
40
1
40
1
10
-101.06478273868561
20
27.687835693359354
30
0
10
-101.06478273868561
20
26.566395759582488
30
0
10
-101.8490606546402
20
25.766444206237765
30
0
0
SPLINE
5
327
100
AcDbEntity
8
0
100
AcDbSpline
70
0
71
2
72
6
73
3
74
0
42
0.000000001
43
0.0000000001
44
0.0000000001
40
0
40
0
40
0
40
1
40
1
40
1
10
-101.8490606546402
20
25.766444206237765
30
0
10
-102.63333380222321
20
24.966492652893038
30
0
10
-103.76210272312164
20
24.966492652893038
30
0
0
SPLINE
5
328
100
AcDbEntity
8
0
100
AcDbSpline
70
0
71
2
72
6
73
3
74
0
42
0.000000001
43
0.0000000001
44
0.0000000001
40
0
40
0
40
0
40
1
40
1
40
1
10
-103.76210272312164
20
24.966492652893038
30
0
10
-104.8859840631485
20
24.966492652893038
30
0
10
-105.65967619419098
20
25.739774703979464
30
0
0
SPLINE
5
329
100
AcDbEntity
8
0
100
AcDbSpline
70
0
71
2
72
6
73
3
74
0
42
0.000000001
43
0.0000000001
44
0.0000000001
40
0
40
0
40
0
40
1
40
1
40
1
10
-105.65967619419098
20
25.739774703979464
30
0
10
-106.43336355686188
20
26.513051986694308
30
0
10
-106.43336355686188
20
27.636122703552214
30
0
0
LINE
5
330
100
AcDbEntity
8
0
100
AcDbLine
10
-106.43336355686188
20
27.636122703552214
30
0
11
-106.43336355686188
21
28.838186264038054
31
0
0
SPLINE
5
331
100
AcDbEntity
8
0
100
AcDbSpline
70
0
71
2
72
6
73
3
74
0
42
0.000000001
43
0.0000000001
44
0.0000000001
40
0
40
0
40
0
40
1
40
1
40
1
10
-106.43336355686188
20
28.838186264038054
30
0
10
-106.43336355686188
20
29.505596160888643
30
0
10
-106.91162168979645
20
29.985485076904268
30
0
0
SPLINE
5
332
100
AcDbEntity
8
0
100
AcDbSpline
70
0
71
2
72
6
73
3
74
0
42
0.000000001
43
0.0000000001
44
0.0000000001
40
0
40
0
40
0
40
1
40
1
40
1
10
-106.91162168979645
20
29.985485076904268
30
0
10
-107.3898845911026
20
30.46537399291989
30
0
10
-108.05403292179108
20
30.46537399291989
30
0
0
LINE
5
333
100
AcDbEntity
8
0
100
AcDbLine
10
-108.05403292179108
20
30.46537399291989
30
0
11
-110.83360731601715
21
30.46537399291989
31
0
0
SPLINE
5
334
100
AcDbEntity
8
0
100
AcDbSpline
70
0
71
2
72
6
73
3
74
0
42
0.000000001
43
0.0000000001
44
0.0000000001
40
0
40
0
40
0
40
1
40
1
40
1
10
-110.83360731601715
20
30.46537399291989
30
0
10
-111.5168958902359
20
30.46537399291989
30
0
10
-112.47179090976715
20
29.643230438232393
30
0
0
LINE
5
335
100
AcDbEntity
8
0
100
AcDbLine
10
-112.47179090976715
20
29.643230438232393
30
0
11
-118.36932718753815
21
24.529561996459929
31
0
0
LINE
5
336
100
AcDbEntity
8
0
100
AcDbLine
10
-118.36932718753815
20
24.529561996459929
30
0
11
-118.36932718753815
21
12.778468132019016
31
0
0
SPLINE
5
337
100
AcDbEntity
8
0
100
AcDbSpline
70
0
71
2
72
6
73
3
74
0
42
0.000000001
43
0.0000000001
44
0.0000000001
40
0
40
0
40
0
40
1
40
1
40
1
10
-118.36932718753815
20
12.778468132019016
30
0
10
-118.36932718753815
20
11.677389144897434
30
0
10
-119.16968405246736
20
10.894536972045872
30
0
0
SPLINE
5
338
100
AcDbEntity
8
0
100
AcDbSpline
70
0
71
2
72
6
73
3
74
0
42
0.000000001
43
0.0000000001
44
0.0000000001
40
0
40
0
40
0
40
1
40
1
40
1
10
-119.16968405246736
20
10.894536972045872
30
0
10
-119.97004568576813
20
10.111689567565893
30
0
10
-121.06664717197418
20
10.111689567565893
30
0
0
SPLINE
5
339
100
AcDbEntity
8
0
100
AcDbSpline
70
0
71
2
72
6
73
3
74
0
42
0.000000001
43
0.0000000001
44
0.0000000001
40
0
40
0
40
0
40
1
40
1
40
1
10
-121.06664717197418
20
10.111689567565893
30
0
10
-122.19012320041656
20
10.111689567565893
30
0
10
-122.96401083469392
20
10.883951187133762
30
0
0
SPLINE
5
340
100
AcDbEntity
8
0
100
AcDbSpline
70
0
71
2
72
6
73
3
74
0
42
0.000000001
43
0.0000000001
44
0.0000000001
40
0
40
0
40
0
40
1
40
1
40
1
10
-122.96401083469392
20
10.883951187133762
30
0
10
-123.73790323734283
20
11.656212806701634
30
0
10
-123.73790323734283
20
12.778878211975071
30
0
0
LINE
5
341
100
AcDbEntity
8
0
100
AcDbLine
10
-82.370453476905809
20
46.988086700439425
30
0
11
-80.121470093727098
21
46.988086700439425
31
0
0
SPLINE
5
342
100
AcDbEntity
8
0
100
AcDbSpline
70
0
71
2
72
6
73
3
74
0
42
0.000000001
43
0.0000000001
44
0.0000000001
40
0
40
0
40
0
40
1
40
1
40
1
10
-80.121470093727098
20
46.988086700439425
30
0
10
-78.996773362159743
20
46.988086700439425
30
0
10
-78.212090134620652
20
46.20442390441891
30
0
0
SPLINE
5
343
100
AcDbEntity
8
0
100
AcDbSpline
70
0
71
2
72
6
73
3
74
0
42
0.000000001
43
0.0000000001
44
0.0000000001
40
0
40
0
40
0
40
1
40
1
40
1
10
-78.212090134620652
20
46.20442390441891
30
0
10
-77.42740690708159
20
45.420761108398409
30
0
10
-77.42740690708159
20
44.322938919067369
30
0
0
LINE
5
344
100
AcDbEntity
8
0
100
AcDbLine
10
-77.42740690708159
20
44.322938919067369
30
0
11
-77.42740690708159
21
42.485227584838853
31
0
0
SPLINE
5
345
100
AcDbEntity
8
0
100
AcDbSpline
70
0
71
2
72
6
73
3
74
0
42
0.000000001
43
0.0000000001
44
0.0000000001
40
0
40
0
40
0
40
1
40
1
40
1
10
-77.42740690708159
20
42.485227584838853
30
0
10
-77.42740690708159
20
41.385774612426722
30
0
10
-78.204756379127502
20
40.577473640441866
30
0
0
SPLINE
5
346
100
AcDbEntity
8
0
100
AcDbSpline
70
0
71
2
72
6
73
3
74
0
42
0.000000001
43
0.0000000001
44
0.0000000001
40
0
40
0
40
0
40
1
40
1
40
1
10
-78.204756379127502
20
40.577473640441866
30
0
10
-78.982105851173415
20
39.769172668456996
30
0
10
-80.121470093727098
20
39.769172668456996
30
0
0
LINE
5
347
100
AcDbEntity
8
0
100
AcDbLine
10
-80.121470093727098
20
39.769172668456996
30
0
11
-82.421360611915574
21
39.769172668456996
31
0
0
SPLINE
5
348
100
AcDbEntity
8
0
100
AcDbSpline
70
0
71
2
72
6
73
3
74
0
42
0.000000001
43
0.0000000001
44
0.0000000001
40
0
40
0
40
0
40
1
40
1
40
1
10
-82.421360611915574
20
39.769172668456996
30
0
10
-83.57089102268219
20
39.769172668456996
30
0
10
-84.342947602272034
20
40.591316223144496
30
0
0
SPLINE
5
349
100
AcDbEntity
8
0
100
AcDbSpline
70
0
71
2
72
6
73
3
74
0
42
0.000000001
43
0.0000000001
44
0.0000000001
40
0
40
0
40
0
40
1
40
1
40
1
10
-84.342947602272034
20
40.591316223144496
30
0
10
-85.115013718605056
20
41.413464546203599
30
0
10
-85.086918473243699
20
42.536940574645968
30
0
0
LINE
5
350
100
AcDbEntity
8
0
100
AcDbLine
10
-85.086918473243699
20
42.536940574645968
30
0
11
-85.038052201271071
21
44.338002204894991
31
0
0
SPLINE
5
351
100
AcDbEntity
8
0
100
AcDbSpline
70
0
71
2
72
6
73
3
74
0
42
0.000000001
43
0.0000000001
44
0.0000000001
40
0
40
0
40
0
40
1
40
1
40
1
10
-85.038052201271071
20
44.338002204894991
30
0
10
-85.038052201271071
20
45.436229705810533
30
0
10
-84.261303544044509
20
46.212160587310763
30
0
0
SPLINE
5
352
100
AcDbEntity
8
0
100
AcDbSpline
70
0
71
2
72
6
73
3
74
0
42
0.000000001
43
0.0000000001
44
0.0000000001
40
0
40
0
40
0
40
1
40
1
40
1
10
-84.261303544044509
20
46.212160587310763
30
0
10
-83.484564423561096
20
46.988086700439425
30
0
10
-82.370453476905809
20
46.988086700439425
30
0
0
LINE
5
353
100
AcDbEntity
8
0
100
AcDbLine
10
-73.632670044898987
20
10.163812637329077
30
0
11
-86.72102034091948
21
10.163812637329077
31
0
0
SPLINE
5
354
100
AcDbEntity
8
0
100
AcDbSpline
70
0
71
2
72
6
73
3
74
0
42
0.000000001
43
0.0000000001
44
0.0000000001
40
0
40
0
40
0
40
1
40
1
40
1
10
-86.72102034091948
20
10.163812637329077
30
0
10
-87.843685746192932
20
10.163812637329077
30
0
10
-88.616562485694871
20
10.937499999999973
30
0
0
SPLINE
5
355
100
AcDbEntity
8
0
100
AcDbSpline
70
0
71
2
72
6
73
3
74
0
42
0.000000001
43
0.0000000001
44
0.0000000001
40
0
40
0
40
0
40
1
40
1
40
1
10
-88.616562485694871
20
10.937499999999973
30
0
10
-89.38942968845366
20
11.711187362670872
30
0
10
-89.38942968845366
20
12.835068702697727
30
0
0
SPLINE
5
356
100
AcDbEntity
8
0
100
AcDbSpline
70
0
71
2
72
6
73
3
74
0
42
0.000000001
43
0.0000000001
44
0.0000000001
40
0
40
0
40
0
40
1
40
1
40
1
10
-89.38942968845366
20
12.835068702697727
30
0
10
-89.38942968845366
20
13.913755416870091
30
0
10
-88.610449433326721
20
14.710040092468235
30
0
0
SPLINE
5
357
100
AcDbEntity
8
0
100
AcDbSpline
70
0
71
2
72
6
73
3
74
0
42
0.000000001
43
0.0000000001
44
0.0000000001
40
0
40
0
40
0
40
1
40
1
40
1
10
-88.610449433326721
20
14.710040092468235
30
0
10
-87.831469178199782
20
15.506329536437962
30
0
10
-86.72184050083159
20
15.506329536437962
30
0
0
LINE
5
358
100
AcDbEntity
8
0
100
AcDbLine
10
-86.72184050083159
20
15.506329536437962
30
0
11
-82.848110795021071
21
15.506329536437962
31
0
0
LINE
5
359
100
AcDbEntity
8
0
100
AcDbLine
10
-82.848110795021071
20
15.506329536437962
30
0
11
-82.848110795021071
21
30.46537399291989
31
0
0
LINE
5
360
100
AcDbEntity
8
0
100
AcDbLine
10
-82.848110795021071
20
30.46537399291989
30
0
11
-86.670122742652907
21
30.46537399291989
31
0
0
SPLINE
5
361
100
AcDbEntity
8
0
100
AcDbSpline
70
0
71
2
72
6
73
3
74
0
42
0.000000001
43
0.0000000001
44
0.0000000001
40
0
40
0
40
0
40
1
40
1
40
1
10
-86.670122742652907
20
30.46537399291989
30
0
10
-87.787495255470262
20
30.46537399291989
30
0
10
-88.56239378452301
20
31.257796287536593
30
0
0
SPLINE
5
362
100
AcDbEntity
8
0
100
AcDbSpline
70
0
71
2
72
6
73
3
74
0
42
0.000000001
43
0.0000000001
44
0.0000000001
40
0
40
0
40
0
40
1
40
1
40
1
10
-88.56239378452301
20
31.257796287536593
30
0
10
-89.337311387062059
20
32.05021381378171
30
0
10
-89.337311387062059
20
33.137044906616183
30
0
0
SPLINE
5
363
100
AcDbEntity
8
0
100
AcDbSpline
70
0
71
2
72
6
73
3
74
0
42
0.000000001
43
0.0000000001
44
0.0000000001
40
0
40
0
40
0
40
1
40
1
40
1
10
-89.337311387062059
20
33.137044906616183
30
0
10
-89.337311387062059
20
34.247484207153285
30
0
10
-88.563414216041565
20
35.053749084472628
30
0
0
SPLINE
5
364
100
AcDbEntity
8
0
100
AcDbSpline
70
0
71
2
72
6
73
3
74
0
42
0.000000001
43
0.0000000001
44
0.0000000001
40
0
40
0
40
0
40
1
40
1
40
1
10
-88.563414216041565
20
35.053749084472628
30
0
10
-87.789526581764221
20
35.860013961791978
30
0
10
-86.668091416358934
20
35.860013961791978
30
0
0
LINE
5
365
100
AcDbEntity
8
0
100
AcDbLine
10
-86.668091416358934
20
35.860013961791978
30
0
11
-80.122690796852112
21
35.860013961791978
31
0
0
SPLINE
5
366
100
AcDbEntity
8
0
100
AcDbSpline
70
0
71
2
72
6
73
3
74
0
42
0.000000001
43
0.0000000001
44
0.0000000001
40
0
40
0
40
0
40
1
40
1
40
1
10
-80.122690796852112
20
35.860013961791978
30
0
10
-78.991070389747634
20
35.860013961791978
30
0
10
-78.209238648414612
20
35.0474405288696
30
0
0
SPLINE
5
367
100
AcDbEntity
8
0
100
AcDbSpline
70
0
71
2
72
6
73
3
74
0
42
0.000000001
43
0.0000000001
44
0.0000000001
40
0
40
0
40
0
40
1
40
1
40
1
10
-78.209238648414612
20
35.0474405288696
30
0
10
-77.42740690708159
20
34.234867095947237
30
0
10
-77.42740690708159
20
33.142337799072237
30
0
0
LINE
5
368
100
AcDbEntity
8
0
100
AcDbLine
10
-77.42740690708159
20
33.142337799072237
30
0
11
-77.42740690708159
21
15.506329536437967
31
0
0
LINE
5
369
100
AcDbEntity
8
0
100
AcDbLine
10
-77.42740690708159
20
15.506329536437967
30
0
11
-73.682757019996643
21
15.506329536437962
31
0
0
SPLINE
5
370
100
AcDbEntity
8
0
100
AcDbSpline
70
0
71
2
72
6
73
3
74
0
42
0.000000001
43
0.0000000001
44
0.0000000001
40
0
40
0
40
0
40
1
40
1
40
1
10
-73.682757019996643
20
15.506329536437962
30
0
10
-72.564573884010301
20
15.506329536437962
30
0
10
-71.751385331153884
20
14.723682403564426
30
0
0
SPLINE
5
371
100
AcDbEntity
8
0
100
AcDbSpline
70
0
71
2
72
6
73
3
74
0
42
0.000000001
43
0.0000000001
44
0.0000000001
40
0
40
0
40
0
40
1
40
1
40
1
10
-71.751385331153884
20
14.723682403564426
30
0
10
-70.938196778297424
20
13.941035270690891
30
0
10
-70.938196778297424
20
12.835068702697727
30
0
0
SPLINE
5
372
100
AcDbEntity
8
0
100
AcDbSpline
70
0
71
2
72
6
73
3
74
0
42
0.000000001
43
0.0000000001
44
0.0000000001
40
0
40
0
40
0
40
1
40
1
40
1
10
-70.938196778297424
20
12.835068702697727
30
0
10
-70.938196778297424
20
11.732363700866673
30
0
10
-71.737537980079665
20
10.948085784912083
30
0
0
SPLINE
5
373
100
AcDbEntity
8
0
100
AcDbSpline
70
0
71
2
72
6
73
3
74
0
42
0.000000001
43
0.0000000001
44
0.0000000001
40
0
40
0
40
0
40
1
40
1
40
1
10
-71.737537980079665
20
10.948085784912083
30
0
10
-72.536888718605056
20
10.163812637329077
30
0
10
-73.632670044898987
20
10.163812637329077
30
0
0
LINE
5
374
100
AcDbEntity
8
0
100
AcDbLine
10
-36.511536240577691
20
27.215070724487283
30
0
11
-36.511536240577691
21
22.03014373779294
31
0
0
SPLINE
5
375
100
AcDbEntity
8
0
100
AcDbSpline
70
0
71
2
72
6
73
3
74
0
42
0.000000001
43
0.0000000001
44
0.0000000001
40
0
40
0
40
0
40
1
40
1
40
1
10
-36.511536240577691
20
22.03014373779294
30
0
10
-36.511536240577691
20
20.949425697326639
30
0
10
-37.305174469947808
20
20.15639305114744
30
0
0
SPLINE
5
376
100
AcDbEntity
8
0
100
AcDbSpline
70
0
71
2
72
6
73
3
74
0
42
0.000000001
43
0.0000000001
44
0.0000000001
40
0
40
0
40
0
40
1
40
1
40
1
10
-37.305174469947808
20
20.15639305114744
30
0
10
-38.098812699317925
20
19.363365173339812
30
0
10
-39.206009507179253
20
19.363365173339812
30
0
0
LINE
5
377
100
AcDbEntity
8
0
100
AcDbLine
10
-39.206009507179253
20
19.363365173339812
30
0
11
-53.842135071754463
21
19.363365173339812
31
0
0
LINE
5
378
100
AcDbEntity
8
0
100
AcDbLine
10
-53.842135071754463
20
19.363365173339812
30
0
11
-53.842135071754463
21
18.634061813354467
31
0
0
SPLINE
5
379
100
AcDbEntity
8
0
100
AcDbSpline
70
0
71
2
72
6
73
3
74
0
42
0.000000001
43
0.0000000001
44
0.0000000001
40
0
40
0
40
0
40
1
40
1
40
1
10
-53.842135071754463
20
18.634061813354467
30
0
10
-53.842135071754463
20
17.769160270690893
30
0
10
-52.896204590797424
20
16.950273513793913
30
0
0
LINE
5
380
100
AcDbEntity
8
0
100
AcDbLine
10
-52.896204590797424
20
16.950273513793913
30
0
11
-51.759701371192932
21
16.055240631103491
31
0
0
SPLINE
5
381
100
AcDbEntity
8
0
100
AcDbSpline
70
0
71
2
72
6
73
3
74
0
42
0.000000001
43
0.0000000001
44
0.0000000001
40
0
40
0
40
0
40
1
40
1
40
1
10
-51.759701371192932
20
16.055240631103491
30
0
10
-50.982752442359924
20
15.454206466674778
30
0
10
-50.248566269874573
20
15.454206466674778
30
0
0
LINE
5
382
100
AcDbEntity
8
0
100
AcDbLine
10
-50.248566269874573
20
15.454206466674778
30
0
11
-39.206009507179253
21
15.454206466674778
31
0
0
SPLINE
5
383
100
AcDbEntity
8
0
100
AcDbSpline
70
0
71
2
72
6
73
3
74
0
42
0.000000001
43
0.0000000001
44
0.0000000001
40
0
40
0
40
0
40
1
40
1
40
1
10
-39.206009507179253
20
15.454206466674778
30
0
10
-38.118363022804253
20
15.454206466674778
30
0
10
-37.314949631690972
20
14.665861129760716
30
0
0
SPLINE
5
384
100
AcDbEntity
8
0
100
AcDbSpline
70
0
71
2
72
6
73
3
74
0
42
0.000000001
43
0.0000000001
44
0.0000000001
40
0
40
0
40
0
40
1
40
1
40
1
10
-37.314949631690972
20
14.665861129760716
30
0
10
-36.511536240577691
20
13.877511024475071
30
0
10
-36.511536240577691
20
12.782950401306126
30
0
0
SPLINE
5
385
100
AcDbEntity
8
0
100
AcDbSpline
70
0
71
2
72
6
73
3
74
0
42
0.000000001
43
0.0000000001
44
0.0000000001
40
0
40
0
40
0
40
1
40
1
40
1
10
-36.511536240577691
20
12.782950401306126
30
0
10
-36.511536240577691
20
11.705894470214815
30
0
10
-37.323704361915595
20
10.908789634704563
30
0
0
SPLINE
5
386
100
AcDbEntity
8
0
100
AcDbSpline
70
0
71
2
72
6
73
3
74
0
42
0.000000001
43
0.0000000001
44
0.0000000001
40
0
40
0
40
0
40
1
40
1
40
1
10
-37.323704361915595
20
10.908789634704563
30
0
10
-38.135872483253472
20
10.111689567565893
30
0
10
-39.206820130348213
20
10.111689567565893
30
0
0
LINE
5
387
100
AcDbEntity
8
0
100
AcDbLine
10
-39.206820130348213
20
10.111689567565893
30
0
11
-50.534010529518135
21
10.111689567565893
31
0
0
SPLINE
5
388
100
AcDbEntity
8
0
100
AcDbSpline
70
0
71
2
72
6
73
3
74
0
42
0.000000001
43
0.0000000001
44
0.0000000001
40
0
40
0
40
0
40
1
40
1
40
1
10
-50.534010529518135
20
10.111689567565893
30
0
10
-51.760511994361885
20
10.111689567565893
30
0
10
-53.089419007301331
20
10.618047714233374
30
0
0
SPLINE
5
389
100
AcDbEntity
8
0
100
AcDbSpline
70
0
71
2
72
6
73
3
74
0
42
0.000000001
43
0.0000000001
44
0.0000000001
40
0
40
0
40
0
40
1
40
1
40
1
10
-53.089419007301331
20
10.618047714233374
30
0
10
-54.418335556983948
20
11.124405860900852
30
0
10
-55.248623490333564
20
12.25195407867429
30
0
0
LINE
5
390
100
AcDbEntity
8
0
100
AcDbLine
10
-55.248623490333564
20
12.25195407867429
30
0
11
-57.138453125953681
21
13.502068519592259
31
0
0
SPLINE
5
391
100
AcDbEntity
8
0
100
AcDbSpline
70
0
71
2
72
6
73
3
74
0
42
0.000000001
43
0.0000000001
44
0.0000000001
40
0
40
0
40
0
40
1
40
1
40
1
10
-57.138453125953681
20
13.502068519592259
30
0
10
-57.965489029884345
20
14.163370132446262
30
0
10
-58.614159226417542
20
15.542569160461399
30
0
0
SPLINE
5
392
100
AcDbEntity
8
0
100
AcDbSpline
70
0
71
2
72
6
73
3
74
0
42
0.000000001
43
0.0000000001
44
0.0000000001
40
0
40
0
40
0
40
1
40
1
40
1
10
-58.614159226417542
20
15.542569160461399
30
0
10
-59.262838959693909
20
16.921768188476538
30
0
10
-59.262838959693909
20
18.118543624877898
30
0
0
LINE
5
393
100
AcDbEntity
8
0
100
AcDbLine
10
-59.262838959693909
20
18.118543624877898
30
0
11
-59.262838959693909
21
27.954554557800265
31
0
0
SPLINE
5
394
100
AcDbEntity
8
0
100
AcDbSpline
70
0
71
2
72
6
73
3
74
0
42
0.000000001
43
0.0000000001
44
0.0000000001
40
0
40
0
40
0
40
1
40
1
40
1
10
-59.262838959693909
20
27.954554557800265
30
0
10
-59.262838959693909
20
28.920035362243624
30
0
10
-58.56448233127594
20
30.452346801757784
30
0
0
SPLINE
5
395
100
AcDbEntity
8
0
100
AcDbSpline
70
0
71
2
72
6
73
3
74
0
42
0.000000001
43
0.0000000001
44
0.0000000001
40
0
40
0
40
0
40
1
40
1
40
1
10
-58.56448233127594
20
30.452346801757784
30
0
10
-57.866125702857971
20
31.984653472900359
30
0
10
-56.766272187232971
20
32.858104705810518
30
0
0
LINE
5
396
100
AcDbEntity
8
0
100
AcDbLine
10
-56.766272187232971
20
32.858104705810518
30
0
11
-54.921227097511292
21
34.306125640869105
31
0
0
SPLINE
5
397
100
AcDbEntity
8
0
100
AcDbSpline
70
0
71
2
72
6
73
3
74
0
42
0.000000001
43
0.0000000001
44
0.0000000001
40
0
40
0
40
0
40
1
40
1
40
1
10
-54.921227097511292
20
34.306125640869105
30
0
10
-53.069668412208564
20
35.807895660400355
30
0
10
-50.738430619239814
20
35.807895660400355
30
0
0
LINE
5
398
100
AcDbEntity
8
0
100
AcDbLine
10
-50.738430619239814
20
35.807895660400355
30
0
11
-44.704075455665595
21
35.807895660400355
31
0
0
SPLINE
5
399
100
AcDbEntity
8
0
100
AcDbSpline
70
0
71
2
72
6
73
3
74
0
42
0.000000001
43
0.0000000001
44
0.0000000001
40
0
40
0
40
0
40
1
40
1
40
1
10
-44.704075455665595
20
35.807895660400355
30
0
10
-42.217274308204644
20
35.807895660400355
30
0
10
-39.861193299293525
20
33.268566131591768
30
0
0
LINE
5
400
100
AcDbEntity
8
0
100
AcDbLine
10
-39.861193299293525
20
33.268566131591768
30
0
11
-38.290615677833564
21
32.114143371582003
31
0
0
SPLINE
5
401
100
AcDbEntity
8
0
100
AcDbSpline
70
0
71
2
72
6
73
3
74
0
42
0.000000001
43
0.0000000001
44
0.0000000001
40
0
40
0
40
0
40
1
40
1
40
1
10
-38.290615677833564
20
32.114143371582003
30
0
10
-36.511536240577691
20
30.519943237304656
30
0
10
-36.511536240577691
20
27.215070724487283
30
0
0
LINE
5
402
100
AcDbEntity
8
0
100
AcDbLine
10
-53.790016770362854
20
27.547349929809549
30
0
11
-53.790016770362854
21
24.758005142211893
31
0
0
LINE
5
403
100
AcDbEntity
8
0
100
AcDbLine
10
-53.790016770362854
20
24.758005142211893
30
0
11
-41.827993988990777
21
24.758005142211893
31
0
0
LINE
5
404
100
AcDbEntity
8
0
100
AcDbLine
10
-41.827993988990777
20
24.758005142211893
30
0
11
-41.827993988990777
21
27.216296195983855
31
0
0
SPLINE
5
405
100
AcDbEntity
8
0
100
AcDbSpline
70
0
71
2
72
6
73
3
74
0
42
0.000000001
43
0.0000000001
44
0.0000000001
40
0
40
0
40
0
40
1
40
1
40
1
10
-41.827993988990777
20
27.216296195983855
30
0
10
-41.827993988990777
20
28.168334960937468
30
0
10
-42.569103837013252
20
29.030795097351053
30
0
0
LINE
5
406
100
AcDbEntity
8
0
100
AcDbLine
10
-42.569103837013252
20
29.030795097351053
30
0
11
-43.733301758766174
21
29.818735122680643
31
0
0
SPLINE
5
407
100
AcDbEntity
8
0
100
AcDbSpline
70
0
71
2
72
6
73
3
74
0
42
0.000000001
43
0.0000000001
44
0.0000000001
40
0
40
0
40
0
40
1
40
1
40
1
10
-43.733301758766174
20
29.818735122680643
30
0
10
-44.464226365089417
20
30.413255691528288
30
0
10
-45.037165284156799
20
30.413255691528288
30
0
0
LINE
5
408
100
AcDbEntity
8
0
100
AcDbLine
10
-45.037165284156799
20
30.413255691528288
30
0
11
-50.42814314365387
21
30.413255691528288
31
0
0
SPLINE
5
409
100
AcDbEntity
8
0
100
AcDbSpline
70
0
71
2
72
6
73
3
74
0
42
0.000000001
43
0.0000000001
44
0.0000000001
40
0
40
0
40
0
40
1
40
1
40
1
10
-50.42814314365387
20
30.413255691528288
30
0
10
-51.219339966773994
20
30.413255691528288
30
0
10
-52.013788819313049
20
29.744625091552702
30
0
0
LINE
5
410
100
AcDbEntity
8
0
100
AcDbLine
10
-52.013788819313049
20
29.744625091552702
30
0
11
-53.194685578346252
21
28.7595987319946
31
0
0
SPLINE
5
411
100
AcDbEntity
8
0
100
AcDbSpline
70
0
71
2
72
6
73
3
74
0
42
0.000000001
43
0.0000000001
44
0.0000000001
40
0
40
0
40
0
40
1
40
1
40
1
10
-53.194685578346252
20
28.7595987319946
30
0
10
-53.790016770362854
20
28.310451507568327
30
0
10
-53.790016770362854
20
27.547349929809549
30
0
0
LINE
5
412
100
AcDbEntity
8
0
100
AcDbLine
10
-15.721340775489807
20
30.310640335082976
30
0
11
-21.578560471534725
21
26.230454444885225
31
0
0
LINE
5
413
100
AcDbEntity
8
0
100
AcDbLine
10
-21.578560471534725
20
26.230454444885225
30
0
11
-21.578560471534725
21
12.779688835144016
31
0
0
SPLINE
5
414
100
AcDbEntity
8
0
100
AcDbSpline
70
0
71
2
72
6
73
3
74
0
42
0.000000001
43
0.0000000001
44
0.0000000001
40
0
40
0
40
0
40
1
40
1
40
1
10
-21.578560471534725
20
12.779688835144016
30
0
10
-21.578560471534725
20
11.69815540313718
30
0
10
-22.373219132423397
20
10.904922485351536
30
0
0
SPLINE
5
415
100
AcDbEntity
8
0
100
AcDbSpline
70
0
71
2
72
6
73
3
74
0
42
0.000000001
43
0.0000000001
44
0.0000000001
40
0
40
0
40
0
40
1
40
1
40
1
10
-22.373219132423397
20
10.904922485351536
30
0
10
-23.167877793312073
20
10.111689567565893
30
0
10
-24.275875687599182
20
10.111689567565893
30
0
0
SPLINE
5
416
100
AcDbEntity
8
0
100
AcDbSpline
70
0
71
2
72
6
73
3
74
0
42
0.000000001
43
0.0000000001
44
0.0000000001
40
0
40
0
40
0
40
1
40
1
40
1
10
-24.275875687599182
20
10.111689567565893
30
0
10
-25.373697876930237
20
10.111689567565893
30
0
10
-26.160421967506409
20
10.896778106689426
30
0
0
SPLINE
5
417
100
AcDbEntity
8
0
100
AcDbSpline
70
0
71
2
72
6
73
3
74
0
42
0.000000001
43
0.0000000001
44
0.0000000001
40
0
40
0
40
0
40
1
40
1
40
1
10
-26.160421967506409
20
10.896778106689426
30
0
10
-26.947136521339417
20
11.681866645812962
30
0
10
-26.947136521339417
20
12.778878211975071
30
0
0
LINE
5
418
100
AcDbEntity
8
0
100
AcDbLine
10
-26.947136521339417
20
12.778878211975071
30
0
11
-26.947136521339417
21
33.141517639160128
31
0
0
SPLINE
5
419
100
AcDbEntity
8
0
100
AcDbSpline
70
0
71
2
72
6
73
3
74
0
42
0.000000001
43
0.0000000001
44
0.0000000001
40
0
40
0
40
0
40
1
40
1
40
1
10
-26.947136521339417
20
33.141517639160128
30
0
10
-26.947136521339417
20
34.250335693359361
30
0
10
-26.172428727149963
20
35.055174827575648
30
0
0
SPLINE
5
420
100
AcDbEntity
8
0
100
AcDbSpline
70
0
71
2
72
6
73
3
74
0
42
0.000000001
43
0.0000000001
44
0.0000000001
40
0
40
0
40
0
40
1
40
1
40
1
10
-26.172428727149963
20
35.055174827575648
30
0
10
-25.39772093296051
20
35.860013961791978
30
0
10
-24.275875687599182
20
35.860013961791978
30
0
0
SPLINE
5
421
100
AcDbEntity
8
0
100
AcDbSpline
70
0
71
2
72
6
73
3
74
0
42
0.000000001
43
0.0000000001
44
0.0000000001
40
0
40
0
40
0
40
1
40
1
40
1
10
-24.275875687599182
20
35.860013961791978
30
0
10
-23.180904984474182
20
35.860013961791978
30
0
10
-22.379732728004452
20
35.045604705810518
30
0
0
SPLINE
5
422
100
AcDbEntity
8
0
100
AcDbSpline
70
0
71
2
72
6
73
3
74
0
42
0.000000001
43
0.0000000001
44
0.0000000001
40
0
40
0
40
0
40
1
40
1
40
1
10
-22.379732728004452
20
35.045604705810518
30
0
10
-21.578560471534725
20
34.231195449829073
30
0
10
-21.578560471534725
20
33.144779205322237
30
0
0
LINE
5
423
100
AcDbEntity
8
0
100
AcDbLine
10
-21.578560471534725
20
33.144779205322237
30
0
11
-21.578560471534725
21
32.237529754638643
31
0
0
LINE
5
424
100
AcDbEntity
8
0
100
AcDbLine
10
-21.578560471534725
20
32.237529754638643
30
0
11
-18.670311570167545
21
34.418916702270479
31
0
0
SPLINE
5
425
100
AcDbEntity
8
0
100
AcDbSpline
70
0
71
2
72
6
73
3
74
0
42
0.000000001
43
0.0000000001
44
0.0000000001
40
0
40
0
40
0
40
1
40
1
40
1
10
-18.670311570167545
20
34.418916702270479
30
0
10
-16.398926377296448
20
35.860013961791978
30
0
10
-13.760643601417543
20
35.860013961791978
30
0
0
LINE
5
426
100
AcDbEntity
8
0
100
AcDbLine
10
-13.760643601417543
20
35.860013961791978
30
0
11
-11.764946579933168
21
35.860013961791978
31
0
0
SPLINE
5
427
100
AcDbEntity
8
0
100
AcDbSpline
70
0
71
2
72
6
73
3
74
0
42
0.000000001
43
0.0000000001
44
0.0000000001
40
0
40
0
40
0
40
1
40
1
40
1
10
-11.764946579933168
20
35.860013961791978
30
0
10
-8.9894300699234009
20
35.860013961791978
30
0
10
-6.9646269083023071
20
33.893623352050753
30
0
0
SPLINE
5
428
100
AcDbEntity
8
0
100
AcDbSpline
70
0
71
2
72
6
73
3
74
0
42
0.000000001
43
0.0000000001
44
0.0000000001
40
0
40
0
40
0
40
1
40
1
40
1
10
-6.9646269083023071
20
33.893623352050753
30
0
10
-4.9397855997085571
20
31.927237510681124
30
0
10
-4.8298460245132446
20
29.069886207580534
30
0
0
LINE
5
429
100
AcDbEntity
8
0
100
AcDbLine
10
-4.8298460245132446
20
29.069886207580534
30
0
11
-4.2304426431655884
21
12.791090011596653
31
0
0
SPLINE
5
430
100
AcDbEntity
8
0
100
AcDbSpline
70
0
71
2
72
6
73
3
74
0
42
0.000000001
43
0.0000000001
44
0.0000000001
40
0
40
0
40
0
40
1
40
1
40
1
10
-4.2304426431655884
20
12.791090011596653
30
0
10
-4.1982847452163696
20
11.696119308471653
30
0
10
-4.9919134378433228
20
10.903906822204563
30
0
0
SPLINE
5
431
100
AcDbEntity
8
0
100
AcDbSpline
70
0
71
2
72
6
73
3
74
0
42
0.000000001
43
0.0000000001
44
0.0000000001
40
0
40
0
40
0
40
1
40
1
40
1
10
-4.9919134378433228
20
10.903906822204563
30
0
10
-5.785561203956604
20
10.111689567565893
30
0
10
-6.9192129373550415
20
10.111689567565893
30
0
0
SPLINE
5
432
100
AcDbEntity
8
0
100
AcDbSpline
70
0
71
2
72
6
73
3
74
0
42
0.000000001
43
0.0000000001
44
0.0000000001
40
0
40
0
40
0
40
1
40
1
40
1
10
-6.9192129373550415
20
10.111689567565893
30
0
10
-7.9689985513687134
20
10.111689567565893
30
0
10
-8.7640577554702777
20
10.825519561767551
30
0
0
SPLINE
5
433
100
AcDbEntity
8
0
100
AcDbSpline
70
0
71
2
72
6
73
3
74
0
42
0.000000001
43
0.0000000001
44
0.0000000001
40
0
40
0
40
0
40
1
40
1
40
1
10
-8.7640577554702777
20
10.825519561767551
30
0
10
-9.5591169595718384
20
11.53934478759763
30
0
10
-9.5892530679702777
20
12.726345062255833
30
0
0
LINE
5
434
100
AcDbEntity
8
0
100
AcDbLine
10
-9.5892530679702777
20
12.726345062255833
30
0
11
-10.24198591709137
21
28.766927719116183
31
0
0
SPLINE
5
435
100
AcDbEntity
8
0
100
AcDbSpline
70
0
71
2
72
6
73
3
74
0
42
0.000000001
43
0.0000000001
44
0.0000000001
40
0
40
0
40
0
40
1
40
1
40
1
10
-10.24198591709137
20
28.766927719116183
30
0
10
-10.301457047462463
20
30.517497062683077
30
0
10
-12.074013352394106
20
30.517497062683077
30
0
0
LINE
5
436
100
AcDbEntity
8
0
100
AcDbLine
10
-12.074013352394106
20
30.517497062683077
30
0
11
-14.171105027198793
21
30.517497062683077
31
0
0
SPLINE
5
437
100
AcDbEntity
8
0
100
AcDbSpline
70
0
71
2
72
6
73
3
74
0
42
0.000000001
43
0.0000000001
44
0.0000000001
40
0
40
0
40
0
40
1
40
1
40
1
10
-14.171105027198793
20
30.517497062683077
30
0
10
-14.968014359474182
20
30.517497062683077
30
0
10
-15.721340775489807
20
30.310640335082976
30
0
0
LINE
5
438
100
AcDbEntity
8
0
100
AcDbLine
10
22.59492814540863
20
32.810869216918931
30
0
11
22.59492814540863
21
42.442464828491197
31
0
0
SPLINE
5
439
100
AcDbEntity
8
0
100
AcDbSpline
70
0
71
2
72
6
73
3
74
0
42
0.000000001
43
0.0000000001
44
0.0000000001
40
0
40
0
40
0
40
1
40
1
40
1
10
22.59492814540863
20
42.442464828491197
30
0
10
22.59492814540863
20
43.546400070190401
30
0
10
23.362311720848087
20
44.329042434692354
30
0
0
SPLINE
5
440
100
AcDbEntity
8
0
100
AcDbSpline
70
0
71
2
72
6
73
3
74
0
42
0.000000001
43
0.0000000001
44
0.0000000001
40
0
40
0
40
0
40
1
40
1
40
1
10
23.362311720848087
20
44.329042434692354
30
0
10
24.129676222801212
20
45.11168956756589
30
0
10
25.214881300926212
20
45.11168956756589
30
0
0
SPLINE
5
441
100
AcDbEntity
8
0
100
AcDbSpline
70
0
71
2
72
6
73
3
74
0
42
0.000000001
43
0.0000000001
44
0.0000000001
40
0
40
0
40
0
40
1
40
1
40
1
10
25.214881300926212
20
45.11168956756589
30
0
10
26.334285140037537
20
45.11168956756589
30
0
10
27.148894667625431
20
44.330263137817369
30
0
0
SPLINE
5
442
100
AcDbEntity
8
0
100
AcDbSpline
70
0
71
2
72
6
73
3
74
0
42
0.000000001
43
0.0000000001
44
0.0000000001
40
0
40
0
40
0
40
1
40
1
40
1
10
27.148894667625431
20
44.330263137817369
30
0
10
27.963504195213321
20
43.548841476440401
30
0
10
27.963504195213321
20
42.444095611572251
30
0
0
LINE
5
443
100
AcDbEntity
8
0
100
AcDbLine
10
27.963504195213321
20
42.444095611572251
30
0
11
27.963504195213321
21
12.779283523559549
31
0
0
SPLINE
5
444
100
AcDbEntity
8
0
100
AcDbSpline
70
0
71
2
72
6
73
3
74
0
42
0.000000001
43
0.0000000001
44
0.0000000001
40
0
40
0
40
0
40
1
40
1
40
1
10
27.963504195213321
20
12.779283523559544
30
0
10
27.963504195213321
20
11.677794456481907
30
0
10
27.163142561912537
20
10.894742012023899
30
0
0
SPLINE
5
445
100
AcDbEntity
8
0
100
AcDbSpline
70
0
71
2
72
6
73
3
74
0
42
0.000000001
43
0.0000000001
44
0.0000000001
40
0
40
0
40
0
40
1
40
1
40
1
10
27.163142561912537
20
10.894742012023899
30
0
10
26.362800002098087
20
10.111689567565893
30
0
10
25.266188979148865
20
10.111689567565893
30
0
0
SPLINE
5
446
100
AcDbEntity
8
0
100
AcDbSpline
70
0
71
2
72
6
73
3
74
0
42
0.000000001
43
0.0000000001
44
0.0000000001
40
0
40
0
40
0
40
1
40
1
40
1
10
25.266188979148865
20
10.111689567565893
30
0
10
24.121531844139099
20
10.111689567565893
30
0
10
23.358229994773865
20
10.891890525817844
30
0
0
SPLINE
5
447
100
AcDbEntity
8
0
100
AcDbSpline
70
0
71
2
72
6
73
3
74
0
42
0.000000001
43
0.0000000001
44
0.0000000001
40
0
40
0
40
0
40
1
40
1
40
1
10
23.358229994773865
20
10.891890525817844
30
0
10
22.59492814540863
20
11.67209625244138
30
0
10
22.59492814540863
20
12.785797119140598
30
0
0
LINE
5
448
100
AcDbEntity
8
0
100
AcDbLine
10
22.59492814540863
20
12.785797119140598
30
0
11
22.59492814540863
21
13.212957382202122
31
0
0
SPLINE
5
449
100
AcDbEntity
8
0
100
AcDbSpline
70
0
71
2
72
6
73
3
74
0
42
0.000000001
43
0.0000000001
44
0.0000000001
40
0
40
0
40
0
40
1
40
1
40
1
10
22.59492814540863
20
13.212957382202122
30
0
10
20.199355483055111
20
10.111689567565893
30
0
10
17.236537337303162
20
10.111689567565893
30
0
0
LINE
5
450
100
AcDbEntity
8
0
100
AcDbLine
10
17.236537337303162
20
10.111689567565893
30
0
11
13.580664992332458
21
10.111689567565893
31
0
0
SPLINE
5
451
100
AcDbEntity
8
0
100
AcDbSpline
70
0
71
2
72
6
73
3
74
0
42
0.000000001
43
0.0000000001
44
0.0000000001
40
0
40
0
40
0
40
1
40
1
40
1
10
13.580664992332458
20
10.111689567565893
30
0
10
11.182231307029724
20
10.111689567565893
30
0
10
8.8416093587875366
20
12.124500274658176
30
0
0
LINE
5
452
100
AcDbEntity
8
0
100
AcDbLine
10
8.8416093587875366
20
12.124500274658176
30
0
11
6.9888299703598022
21
13.685312271118137
31
0
0
SPLINE
5
453
100
AcDbEntity
8
0
100
AcDbSpline
70
0
71
2
72
6
73
3
74
0
42
0.000000001
43
0.0000000001
44
0.0000000001
40
0
40
0
40
0
40
1
40
1
40
1
10
6.9888299703598022
20
13.685312271118137
30
0
10
6.3377183675765991
20
14.309148788452122
30
0
10
5.7489007711410522
20
15.786685943603489
30
0
0
SPLINE
5
454
100
AcDbEntity
8
0
100
AcDbSpline
70
0
71
2
72
6
73
3
74
0
42
0.000000001
43
0.0000000001
44
0.0000000001
40
0
40
0
40
0
40
1
40
1
40
1
10
5.7489007711410522
20
15.786685943603489
30
0
10
5.1600831747055054
20
17.264227867126436
30
0
10
5.1600831747055054
20
18.578681945800756
30
0
0
LINE
5
455
100
AcDbEntity
8
0
100
AcDbLine
10
5.1600831747055054
20
18.578681945800756
30
0
11
5.1600831747055054
21
27.316465377807589
31
0
0
SPLINE
5
456
100
AcDbEntity
8
0
100
AcDbSpline
70
0
71
2
72
6
73
3
74
0
42
0.000000001
43
0.0000000001
44
0.0000000001
40
0
40
0
40
0
40
1
40
1
40
1
10
5.1600831747055054
20
27.316465377807589
30
0
10
5.1600831747055054
20
28.893566131591768
30
0
10
5.8162873983383179
20
30.356044769287077
30
0
0
SPLINE
5
457
100
AcDbEntity
8
0
100
AcDbSpline
70
0
71
2
72
6
73
3
74
0
42
0.000000001
43
0.0000000001
44
0.0000000001
40
0
40
0
40
0
40
1
40
1
40
1
10
5.8162873983383179
20
30.356044769287077
30
0
10
6.4725106954574585
20
31.818513870239229
30
0
10
7.3842233419418335
20
32.587318420410128
30
0
0
LINE
5
458
100
AcDbEntity
8
0
100
AcDbLine
10
7.3842233419418335
20
32.587318420410128
30
0
11
9.1482347249984741
21
34.094381332397433
31
0
0
SPLINE
5
459
100
AcDbEntity
8
0
100
AcDbSpline
70
0
71
2
72
6
73
3
74
0
42
0.000000001
43
0.0000000001
44
0.0000000001
40
0
40
0
40
0
40
1
40
1
40
1
10
9.1482347249984741
20
34.094381332397433
30
0
10
11.190776228904724
20
35.860013961791978
30
0
10
13.938578963279724
20
35.860013961791978
30
0
0
LINE
5
460
100
AcDbEntity
8
0
100
AcDbLine
10
13.938578963279724
20
35.860013961791978
30
0
11
17.031707167625427
21
35.860013961791978
31
0
0
SPLINE
5
461
100
AcDbEntity
8
0
100
AcDbSpline
70
0
71
2
72
6
73
3
74
0
42
0.000000001
43
0.0000000001
44
0.0000000001
40
0
40
0
40
0
40
1
40
1
40
1
10
17.031707167625427
20
35.860013961791978
30
0
10
19.763240218162533
20
35.860013961791978
30
0
10
21.984118819236755
20
33.935976028442354
30
0
0
LINE
5
462
100
AcDbEntity
8
0
100
AcDbLine
10
21.984118819236755
20
33.935976028442354
30
0
11
22.59492814540863
21
32.810869216918931
31
0
0
LINE
5
463
100
AcDbEntity
8
0
100
AcDbLine
10
16.881865859031674
20
30.46537399291989
30
0
11
13.892573714256287
21
30.46537399291989
31
0
0
SPLINE
5
464
100
AcDbEntity
8
0
100
AcDbSpline
70
0
71
2
72
6
73
3
74
0
42
0.000000001
43
0.0000000001
44
0.0000000001
40
0
40
0
40
0
40
1
40
1
40
1
10
13.892573714256287
20
30.46537399291989
30
0
10
13.16123902797699
20
30.46537399291989
30
0
10
12.517451643943787
20
29.886736869811983
30
0
0
LINE
5
465
100
AcDbEntity
8
0
100
AcDbLine
10
12.517451643943787
20
29.886736869811983
30
0
11
11.12358033657074
21
28.674492835998514
31
0
0
SPLINE
5
466
100
AcDbEntity
8
0
100
AcDbSpline
70
0
71
2
72
6
73
3
74
0
42
0.000000001
43
0.0000000001
44
0.0000000001
40
0
40
0
40
0
40
1
40
1
40
1
10
11.12358033657074
20
28.674492835998514
30
0
10
10.632895827293396
20
28.236746788024874
30
0
10
10.632895827293396
20
27.46469020843503
30
0
0
LINE
5
467
100
AcDbEntity
8
0
100
AcDbLine
10
10.632895827293396
20
27.46469020843503
30
0
11
10.632895827293396
21
18.379559516906713
31
0
0
SPLINE
5
468
100
AcDbEntity
8
0
100
AcDbSpline
70
0
71
2
72
6
73
3
74
0
42
0.000000001
43
0.0000000001
44
0.0000000001
40
0
40
0
40
0
40
1
40
1
40
1
10
10.632895827293396
20
18.379559516906713
30
0
10
10.632895827293396
20
17.710523605346655
30
0
10
11.279544234275818
20
17.162427902221655
30
0
0
LINE
5
469
100
AcDbEntity
8
0
100
AcDbLine
10
11.279544234275818
20
17.162427902221655
30
0
11
12.666072249412537
21
15.978684425353977
31
0
0
SPLINE
5
470
100
AcDbEntity
8
0
100
AcDbSpline
70
0
71
2
72
6
73
3
74
0
42
0.000000001
43
0.0000000001
44
0.0000000001
40
0
40
0
40
0
40
1
40
1
40
1
10
12.666072249412537
20
15.978684425353977
30
0
10
13.200740218162537
20
15.506329536437962
30
0
10
13.739470839500427
20
15.506329536437962
30
0
0
LINE
5
471
100
AcDbEntity
8
0
100
AcDbLine
10
13.739470839500427
20
15.506329536437962
30
0
11
17.239798903465275
21
15.506329536437962
31
0
0
SPLINE
5
472
100
AcDbEntity
8
0
100
AcDbSpline
70
0
71
2
72
6
73
3
74
0
42
0.000000001
43
0.0000000001
44
0.0000000001
40
0
40
0
40
0
40
1
40
1
40
1
10
17.239798903465275
20
15.506329536437962
30
0
10
17.73290574550629
20
15.506329536437962
30
0
10
18.353499770164486
20
15.651702880859348
30
0
0
LINE
5
473
100
AcDbEntity
8
0
100
AcDbLine
10
18.353499770164486
20
15.651702880859348
30
0
11
21.820029616355896
21
18.895893096923803
31
0
0
SPLINE
5
474
100
AcDbEntity
8
0
100
AcDbSpline
70
0
71
2
72
6
73
3
74
0
42
0.000000001
43
0.0000000001
44
0.0000000001
40
0
40
0
40
0
40
1
40
1
40
1
10
21.820029616355896
20
18.895893096923803
30
0
10
22.59492814540863
20
19.577555656433081
30
0
10
22.59492814540863
20
20.430645942687967
30
0
0
LINE
5
475
100
AcDbEntity
8
0
100
AcDbLine
10
22.59492814540863
20
20.430645942687967
30
0
11
22.59492814540863
21
25.057706832885714
31
0
0
SPLINE
5
476
100
AcDbEntity
8
0
100
AcDbSpline
70
0
71
2
72
6
73
3
74
0
42
0.000000001
43
0.0000000001
44
0.0000000001
40
0
40
0
40
0
40
1
40
1
40
1
10
22.59492814540863
20
25.057706832885714
30
0
10
22.59492814540863
20
26.356687545776335
30
0
10
21.927527785301208
20
26.910891532897921
30
0
0
LINE
5
477
100
AcDbEntity
8
0
100
AcDbLine
10
21.927527785301208
20
26.910891532897921
30
0
11
18.397063612937924
21
29.932346343994109
31
0
0
SPLINE
5
478
100
AcDbEntity
8
0
100
AcDbSpline
70
0
71
2
72
6
73
3
74
0
42
0.000000001
43
0.0000000001
44
0.0000000001
40
0
40
0
40
0
40
1
40
1
40
1
10
18.397063612937924
20
29.932346343994109
30
0
10
17.822493910789486
20
30.46537399291989
30
0
10
16.881865859031674
20
30.46537399291989
30
0
0
LINE
5
479
100
AcDbEntity
8
0
100
AcDbLine
10
44.116477370262146
20
35.807895660400355
30
0
11
53.956565260887146
21
35.807895660400355
31
0
0
SPLINE
5
480
100
AcDbEntity
8
0
100
AcDbSpline
70
0
71
2
72
6
73
3
74
0
42
0.000000001
43
0.0000000001
44
0.0000000001
40
0
40
0
40
0
40
1
40
1
40
1
10
53.956565260887146
20
35.807895660400355
30
0
10
56.443766951560974
20
35.807895660400355
30
0
10
58.387565016746521
20
34.296760559082003
30
0
0
SPLINE
5
481
100
AcDbEntity
8
0
100
AcDbSpline
70
0
71
2
72
6
73
3
74
0
42
0.000000001
43
0.0000000001
44
0.0000000001
40
0
40
0
40
0
40
1
40
1
40
1
10
58.387565016746521
20
34.296760559082003
30
0
10
60.33134400844574
20
32.785625457763643
30
0
10
60.33134400844574
20
31.237840652465788
30
0
0
SPLINE
5
482
100
AcDbEntity
8
0
100
AcDbSpline
70
0
71
2
72
6
73
3
74
0
42
0.000000001
43
0.0000000001
44
0.0000000001
40
0
40
0
40
0
40
1
40
1
40
1
10
60.33134400844574
20
31.237840652465788
30
0
10
60.33134400844574
20
30.09441375732419
30
0
10
59.513682723045349
20
29.354724884033171
30
0
0
SPLINE
5
483
100
AcDbEntity
8
0
100
AcDbSpline
70
0
71
2
72
6
73
3
74
0
42
0.000000001
43
0.0000000001
44
0.0000000001
40
0
40
0
40
0
40
1
40
1
40
1
10
59.513682723045349
20
29.354724884033171
30
0
10
58.696021437644958
20
28.615040779113738
30
0
10
57.688998579978943
20
28.615040779113738
30
0
0
SPLINE
5
484
100
AcDbEntity
8
0
100
AcDbSpline
70
0
71
2
72
6
73
3
74
0
42
0.000000001
43
0.0000000001
44
0.0000000001
40
0
40
0
40
0
40
1
40
1
40
1
10
57.688998579978943
20
28.615040779113738
30
0
10
56.425036787986755
20
28.615040779113738
30
0
10
55.581931471824646
20
29.540209770202608
30
0
0
SPLINE
5
485
100
AcDbEntity
8
0
100
AcDbSpline
70
0
71
2
72
6
73
3
74
0
42
0.000000001
43
0.0000000001
44
0.0000000001
40
0
40
0
40
0
40
1
40
1
40
1
10
55.581931471824646
20
29.540209770202608
30
0
10
54.738807082176208
20
30.46537399291989
30
0
10
54.061221480369568
20
30.46537399291989
30
0
0
LINE
5
486
100
AcDbEntity
8
0
100
AcDbLine
10
54.061221480369568
20
30.46537399291989
30
0
11
44.353064894676208
21
30.46537399291989
31
0
0
SPLINE
5
487
100
AcDbEntity
8
0
100
AcDbSpline
70
0
71
2
72
6
73
3
74
0
42
0.000000001
43
0.0000000001
44
0.0000000001
40
0
40
0
40
0
40
1
40
1
40
1
10
44.353064894676208
20
30.46537399291989
30
0
10
43.469848036766045
20
30.46537399291989
30
0
10
43.469848036766045
20
29.810590744018533
30
0
0
SPLINE
5
488
100
AcDbEntity
8
0
100
AcDbSpline
70
0
71
2
72
6
73
3
74
0
42
0.000000001
43
0.0000000001
44
0.0000000001
40
0
40
0
40
0
40
1
40
1
40
1
10
43.469848036766045
20
29.810590744018533
30
0
10
43.469848036766045
20
29.3089151382446
30
0
10
44.427184462547295
20
28.509979248046854
30
0
0
LINE
5
489
100
AcDbEntity
8
0
100
AcDbLine
10
44.427184462547295
20
28.509979248046854
30
0
11
55.824412703514099
21
23.683395385742159
31
0
0
SPLINE
5
490
100
AcDbEntity
8
0
100
AcDbSpline
70
0
71
2
72
6
73
3
74
0
42
0.000000001
43
0.0000000001
44
0.0000000001
40
0
40
0
40
0
40
1
40
1
40
1
10
55.824412703514099
20
23.683395385742159
30
0
10
57.392157912254333
20
23.091316223144503
30
0
10
58.588103652000427
20
21.262969970703093
30
0
0
SPLINE
5
491
100
AcDbEntity
8
0
100
AcDbSpline
70
0
71
2
72
6
73
3
74
0
42
0.000000001
43
0.0000000001
44
0.0000000001
40
0
40
0
40
0
40
1
40
1
40
1
10
58.588103652000427
20
21.262969970703093
30
0
10
59.784068465232849
20
19.434623718261694
30
0
10
59.784068465232849
20
17.223916053771948
30
0
0
SPLINE
5
492
100
AcDbEntity
8
0
100
AcDbSpline
70
0
71
2
72
6
73
3
74
0
42
0.000000001
43
0.0000000001
44
0.0000000001
40
0
40
0
40
0
40
1
40
1
40
1
10
59.784068465232849
20
17.223916053771948
30
0
10
59.784068465232849
20
14.258246421813938
30
0
10
57.668647170066833
20
12.184967994689915
30
0
0
SPLINE
5
493
100
AcDbEntity
8
0
100
AcDbSpline
70
0
71
2
72
6
73
3
74
0
42
0.000000001
43
0.0000000001
44
0.0000000001
40
0
40
0
40
0
40
1
40
1
40
1
10
57.668647170066833
20
12.184967994689915
30
0
10
55.55320680141449
20
10.111689567565893
30
0
10
52.847346663475037
20
10.111689567565893
30
0
0
LINE
5
494
100
AcDbEntity
8
0
100
AcDbLine
10
52.847346663475037
20
10.111689567565893
30
0
11
44.157618880271905
21
10.111689567565893
31
0
0
SPLINE
5
495
100
AcDbEntity
8
0
100
AcDbSpline
70
0
71
2
72
6
73
3
74
0
42
0.000000001
43
0.0000000001
44
0.0000000001
40
0
40
0
40
0
40
1
40
1
40
1
10
44.157618880271905
20
10.111689567565893
30
0
10
41.734332442283637
20
10.111689567565893
30
0
10
39.631137251853936
20
11.592078208923313
30
0
0
SPLINE
5
496
100
AcDbEntity
8
0
100
AcDbSpline
70
0
71
2
72
6
73
3
74
0
42
0.000000001
43
0.0000000001
44
0.0000000001
40
0
40
0
40
0
40
1
40
1
40
1
10
39.631137251853936
20
11.592078208923313
30
0
10
37.527922987937934
20
13.072471618652317
30
0
10
37.527922987937934
20
14.630842208862278
30
0
0
SPLINE
5
497
100
AcDbEntity
8
0
100
AcDbSpline
70
0
71
2
72
6
73
3
74
0
42
0.000000001
43
0.0000000001
44
0.0000000001
40
0
40
0
40
0
40
1
40
1
40
1
10
37.527922987937934
20
14.630842208862278
30
0
10
37.527922987937934
20
15.689978599548313
30
0
10
38.300990462303155
20
16.49725914001462
30
0
0
SPLINE
5
498
100
AcDbEntity
8
0
100
AcDbSpline
70
0
71
2
72
6
73
3
74
0
42
0.000000001
43
0.0000000001
44
0.0000000001
40
0
40
0
40
0
40
1
40
1
40
1
10
38.300990462303155
20
16.49725914001462
30
0
10
39.074077010154717
20
17.304539680480929
30
0
10
40.297316908836372
20
17.304539680480929
30
0
0
SPLINE
5
499
100
AcDbEntity
8
0
100
AcDbSpline
70
0
71
2
72
6
73
3
74
0
42
0.000000001
43
0.0000000001
44
0.0000000001
40
0
40
0
40
0
40
1
40
1
40
1
10
40.297316908836372
20
17.304539680480929
30
0
10
41.343840956687934
20
17.304539680480929
30
0
10
42.276324629783637
20
16.379375457763647
30
0
0
SPLINE
5
500
100
AcDbEntity
8
0
100
AcDbSpline
70
0
71
2
72
6
73
3
74
0
42
0.000000001
43
0.0000000001
44
0.0000000001
40
0
40
0
40
0
40
1
40
1
40
1
10
42.276324629783637
20
16.379375457763647
30
0
10
43.208827376365662
20
15.454206466674778
30
0
10
44.743174910545349
20
15.454206466674778
30
0
0
LINE
5
501
100
AcDbEntity
8
0
100
AcDbLine
10
44.743174910545349
20
15.454206466674778
30
0
11
52.739848494529724
21
15.454206466674778
31
0
0
SPLINE
5
502
100
AcDbEntity
8
0
100
AcDbSpline
70
0
71
2
72
6
73
3
74
0
42
0.000000001
43
0.0000000001
44
0.0000000001
40
0
40
0
40
0
40
1
40
1
40
1
10
52.739848494529724
20
15.454206466674778
30
0
10
53.443908095359802
20
15.454206466674778
30
0
10
53.942717909812927
20
16.021642684936495
30
0
0
SPLINE
5
503
100
AcDbEntity
8
0
100
AcDbSpline
70
0
71
2
72
6
73
3
74
0
42
0.000000001
43
0.0000000001
44
0.0000000001
40
0
40
0
40
0
40
1
40
1
40
1
10
53.942717909812927
20
16.021642684936495
30
0
10
54.44154679775238
20
16.589083671569796
30
0
10
54.44154679775238
20
17.329788208007788
30
0
0
SPLINE
5
504
100
AcDbEntity
8
0
100
AcDbSpline
70
0
71
2
72
6
73
3
74
0
42
0.000000001
43
0.0000000001
44
0.0000000001
40
0
40
0
40
0
40
1
40
1
40
1
10
54.44154679775238
20
17.329788208007788
30
0
10
54.44154679775238
20
18.437790870666479
30
0
10
53.318881392478943
20
18.940281867980925
30
0
0
LINE
5
505
100
AcDbEntity
8
0
100
AcDbLine
10
53.318881392478943
20
18.940281867980925
30
0
11
41.799086928367622
21
24.125614166259734
31
0
0
SPLINE
5
506
100
AcDbEntity
8
0
100
AcDbSpline
70
0
71
2
72
6
73
3
74
0
42
0.000000001
43
0.0000000001
44
0.0000000001
40
0
40
0
40
0
40
1
40
1
40
1
10
41.799086928367622
20
24.125614166259734
30
0
10
40.00493943691253
20
24.926180839538546
30
0
10
39.027041792869575
20
26.463575363159148
30
0
0
SPLINE
5
507
100
AcDbEntity
8
0
100
AcDbSpline
70
0
71
2
72
6
73
3
74
0
42
0.000000001
43
0.0000000001
44
0.0000000001
40
0
40
0
40
0
40
1
40
1
40
1
10
39.027041792869575
20
26.463575363159148
30
0
10
38.049144148826606
20
28.000974655151335
30
0
10
38.049144148826606
20
29.614319801330534
30
0
0
SPLINE
5
508
100
AcDbEntity
8
0
100
AcDbSpline
70
0
71
2
72
6
73
3
74
0
42
0.000000001
43
0.0000000001
44
0.0000000001
40
0
40
0
40
0
40
1
40
1
40
1
10
38.049144148826606
20
29.614319801330534
30
0
10
38.049144148826606
20
32.125954627990687
30
0
10
39.792994856834405
20
33.96692276000973
30
0
0
SPLINE
5
509
100
AcDbEntity
8
0
100
AcDbSpline
70
0
71
2
72
6
73
3
74
0
42
0.000000001
43
0.0000000001
44
0.0000000001
40
0
40
0
40
0
40
1
40
1
40
1
10
39.792994856834405
20
33.96692276000973
30
0
10
41.536845564842231
20
35.807895660400355
30
0
10
44.116477370262146
20
35.807895660400355
30
0
0
LINE
5
510
100
AcDbEntity
8
0
100
AcDbLine
10
124.80640351772308
20
27.546539306640604
30
0
11
124.80640351772308
21
18.477287292480444
31
0
0
SPLINE
5
511
100
AcDbEntity
8
0
100
AcDbSpline
70
0
71
2
72
6
73
3
74
0
42
0.000000001
43
0.0000000001
44
0.0000000001
40
0
40
0
40
0
40
1
40
1
40
1
10
124.80640351772308
20
18.477287292480444
30
0
10
124.80640351772308
20
15.368695259094212
30
0
10
121.91667497158052
20
12.766251564025852
30
0
0
SPLINE
5
512
100
AcDbEntity
8
0
100
AcDbSpline
70
0
71
2
72
6
73
3
74
0
42
0.000000001
43
0.0000000001
44
0.0000000001
40
0
40
0
40
0
40
1
40
1
40
1
10
121.91667497158052
20
12.766251564025852
30
0
10
119.02694642543793
20
10.163812637329077
30
0
10
115.92365205287933
20
10.163812637329077
30
0
0
LINE
5
513
100
AcDbEntity
8
0
100
AcDbLine
10
115.92365205287933
20
10.163812637329077
30
0
11
110.8865350484848
21
10.163812637329077
31
0
0
SPLINE
5
514
100
AcDbEntity
8
0
100
AcDbSpline
70
0
71
2
72
6
73
3
74
0
42
0.000000001
43
0.0000000001
44
0.0000000001
40
0
40
0
40
0
40
1
40
1
40
1
10
110.8865350484848
20
10.163812637329077
30
0
10
107.73639619350433
20
10.163812637329077
30
0
10
104.89574372768402
20
12.79943943023679
30
0
0
SPLINE
5
515
100
AcDbEntity
8
0
100
AcDbSpline
70
0
71
2
72
6
73
3
74
0
42
0.000000001
43
0.0000000001
44
0.0000000001
40
0
40
0
40
0
40
1
40
1
40
1
10
104.89574372768402
20
12.79943943023679
30
0
10
102.05509126186372
20
15.435066223144505
30
0
10
102.05509126186372
20
18.477287292480444
30
0
0
LINE
5
516
100
AcDbEntity
8
0
100
AcDbLine
10
102.05509126186372
20
18.477287292480444
30
0
11
102.05509126186372
21
27.546539306640604
31
0
0
SPLINE
5
517
100
AcDbEntity
8
0
100
AcDbSpline
70
0
71
2
72
6
73
3
74
0
42
0.000000001
43
0.0000000001
44
0.0000000001
40
0
40
0
40
0
40
1
40
1
40
1
10
102.05509126186372
20
27.546539306640604
30
0
10
102.05509126186372
20
30.584688186645479
30
0
10
104.83039796352386
20
33.222351074218714
30
0
0
SPLINE
5
518
100
AcDbEntity
8
0
100
AcDbSpline
70
0
71
2
72
6
73
3
74
0
42
0.000000001
43
0.0000000001
44
0.0000000001
40
0
40
0
40
0
40
1
40
1
40
1
10
104.83039796352386
20
33.222351074218714
30
0
10
107.60568559169769
20
35.860013961791978
30
0
10
110.8865350484848
20
35.860013961791978
30
0
0
LINE
5
519
100
AcDbEntity
8
0
100
AcDbLine
10
110.8865350484848
20
35.860013961791978
30
0
11
116.36587083339693
21
35.860013961791978
31
0
0
SPLINE
5
520
100
AcDbEntity
8
0
100
AcDbSpline
70
0
71
2
72
6
73
3
74
0
42
0.000000001
43
0.0000000001
44
0.0000000001
40
0
40
0
40
0
40
1
40
1
40
1
10
116.36587083339693
20
35.860013961791978
30
0
10
119.02288377285005
20
35.906844139099093
30
0
10
121.91463410854341
20
33.30236434936522
30
0
0
SPLINE
5
521
100
AcDbEntity
8
0
100
AcDbSpline
70
0
71
2
72
6
73
3
74
0
42
0.000000001
43
0.0000000001
44
0.0000000001
40
0
40
0
40
0
40
1
40
1
40
1
10
121.91463410854341
20
33.30236434936522
30
0
10
124.80640351772308
20
30.697889328002898
30
0
10
124.80640351772308
20
27.546539306640604
30
0
0
LINE
5
522
100
AcDbEntity
8
0
100
AcDbLine
10
107.47579514980316
20
27.363295555114718
30
0
11
107.47579514980316
21
18.685779571533171
31
0
0
SPLINE
5
523
100
AcDbEntity
8
0
100
AcDbSpline
70
0
71
2
72
6
73
3
74
0
42
0.000000001
43
0.0000000001
44
0.0000000001
40
0
40
0
40
0
40
1
40
1
40
1
10
107.47579514980316
20
18.685779571533171
30
0
10
107.47579514980316
20
17.743101119995085
30
0
10
108.09106767177582
20
17.240610122680636
30
0
0
LINE
5
524
100
AcDbEntity
8
0
100
AcDbLine
10
108.09106767177582
20
17.240610122680636
30
0
11
109.73211228847505
21
15.8353519439697
31
0
0
SPLINE
5
525
100
AcDbEntity
8
0
100
AcDbSpline
70
0
71
2
72
6
73
3
74
0
42
0.000000001
43
0.0000000001
44
0.0000000001
40
0
40
0
40
0
40
1
40
1
40
1
10
109.73211228847505
20
15.8353519439697
30
0
10
110.11609971523285
20
15.506329536437962
30
0
10
110.88857591152193
20
15.506329536437962
30
0
0
LINE
5
526
100
AcDbEntity
8
0
100
AcDbLine
10
110.88857591152193
20
15.506329536437962
30
0
11
115.87112367153169
21
15.506329536437962
31
0
0
SPLINE
5
527
100
AcDbEntity
8
0
100
AcDbSpline
70
0
71
2
72
6
73
3
74
0
42
0.000000001
43
0.0000000001
44
0.0000000001
40
0
40
0
40
0
40
1
40
1
40
1
10
115.87112367153169
20
15.506329536437962
30
0
10
116.77593171596529
20
15.506329536437962
30
0
10
117.51377046108246
20
16.163148880004858
30
0
0
LINE
5
528
100
AcDbEntity
8
0
100
AcDbLine
10
117.51377046108246
20
16.163148880004858
30
0
11
118.79199922084808
21
17.29354858398435
31
0
0
SPLINE
5
529
100
AcDbEntity
8
0
100
AcDbSpline
70
0
71
2
72
6
73
3
74
0
42
0.000000001
43
0.0000000001
44
0.0000000001
40
0
40
0
40
0
40
1
40
1
40
1
10
118.79199922084808
20
17.29354858398435
30
0
10
119.43780839443208
20
17.793593406677221
30
0
10
119.43780839443208
20
18.634877204894995
30
0
0
LINE
5
530
100
AcDbEntity
8
0
100
AcDbLine
10
119.43780839443208
20
18.634877204894995
30
0
11
119.43780839443208
21
27.312393188476531
31
0
0
SPLINE
5
531
100
AcDbEntity
8
0
100
AcDbSpline
70
0
71
2
72
6
73
3
74
0
42
0.000000001
43
0.0000000001
44
0.0000000001
40
0
40
0
40
0
40
1
40
1
40
1
10
119.43780839443208
20
27.312393188476531
30
0
10
119.43780839443208
20
28.32429885864255
30
0
10
118.84126603603364
20
28.785657882690398
30
0
0
LINE
5
532
100
AcDbEntity
8
0
100
AcDbLine
10
118.84126603603364
20
28.785657882690398
30
0
11
117.37003266811372
21
29.956369400024386
31
0
0
SPLINE
5
533
100
AcDbEntity
8
0
100
AcDbSpline
70
0
71
2
72
6
73
3
74
0
42
0.000000001
43
0.0000000001
44
0.0000000001
40
0
40
0
40
0
40
1
40
1
40
1
10
117.37003266811372
20
29.956369400024386
30
0
10
116.69610917568208
20
30.517501831054656
30
0
10
115.87112367153169
20
30.517501831054656
30
0
0
LINE
5
534
100
AcDbEntity
8
0
100
AcDbLine
10
115.87112367153169
20
30.517501831054656
30
0
11
111.42526566982269
21
30.517501831054656
31
0
0
SPLINE
5
535
100
AcDbEntity
8
0
100
AcDbSpline
70
0
71
2
72
6
73
3
74
0
42
0.000000001
43
0.0000000001
44
0.0000000001
40
0
40
0
40
0
40
1
40
1
40
1
10
111.42526566982269
20
30.517501831054656
30
0
10
110.18777787685394
20
30.517501831054656
30
0
10
109.72436845302582
20
30.499582290649386
30
0
0
LINE
5
536
100
AcDbEntity
8
0
100
AcDbLine
10
109.72436845302582
20
30.499582290649386
30
0
11
107.6749223470688
21
28.577985763549773
31
0
0
SPLINE
5
537
100
AcDbEntity
8
0
100
AcDbSpline
70
0
71
2
72
6
73
3
74
0
42
0.000000001
43
0.0000000001
44
0.0000000001
40
0
40
0
40
0
40
1
40
1
40
1
10
107.6749223470688
20
28.577985763549773
30
0
10
107.47579514980316
20
28.193178176879851
30
0
10
107.47579514980316
20
27.363295555114718
30
0
0
LINE
5
538
100
AcDbEntity
8
0
100
AcDbLine
10
145.23824632167816
20
30.46537399291989
30
0
11
145.23824632167816
21
12.778062820434544
31
0
0
SPLINE
5
539
100
AcDbEntity
8
0
100
AcDbSpline
70
0
71
2
72
6
73
3
74
0
42
0.000000001
43
0.0000000001
44
0.0000000001
40
0
40
0
40
0
40
1
40
1
40
1
10
145.23824632167816
20
12.778062820434544
30
0
10
145.23824632167816
20
11.676983833312962
30
0
10
144.43750321865082
20
10.894336700439426
30
0
0
SPLINE
5
540
100
AcDbEntity
8
0
100
AcDbSpline
70
0
71
2
72
6
73
3
74
0
42
0.000000001
43
0.0000000001
44
0.0000000001
40
0
40
0
40
0
40
1
40
1
40
1
10
144.43750321865082
20
10.894336700439426
30
0
10
143.63676011562347
20
10.111689567565893
30
0
10
142.54056870937347
20
10.111689567565893
30
0
0
SPLINE
5
541
100
AcDbEntity
8
0
100
AcDbSpline
70
0
71
2
72
6
73
3
74
0
42
0.000000001
43
0.0000000001
44
0.0000000001
40
0
40
0
40
0
40
1
40
1
40
1
10
142.54056870937347
20
10.111689567565893
30
0
10
141.4024156332016
20
10.111689567565893
30
0
10
140.60998857021332
20
10.886192321777317
30
0
0
SPLINE
5
542
100
AcDbEntity
8
0
100
AcDbSpline
70
0
71
2
72
6
73
3
74
0
42
0.000000001
43
0.0000000001
44
0.0000000001
40
0
40
0
40
0
40
1
40
1
40
1
10
140.60998857021332
20
10.886192321777317
30
0
10
139.81756150722507
20
11.660695075988743
30
0
10
139.81756150722507
20
12.778062820434544
30
0
0
LINE
5
543
100
AcDbEntity
8
0
100
AcDbLine
10
139.81756150722507
20
12.778062820434544
30
0
11
139.81756150722507
21
30.46537399291989
31
0
0
LINE
5
544
100
AcDbEntity
8
0
100
AcDbLine
10
139.81756150722507
20
30.46537399291989
30
0
11
138.1370347738266
21
30.46537399291989
31
0
0
SPLINE
5
545
100
AcDbEntity
8
0
100
AcDbSpline
70
0
71
2
72
6
73
3
74
0
42
0.000000001
43
0.0000000001
44
0.0000000001
40
0
40
0
40
0
40
1
40
1
40
1
10
138.1370347738266
20
30.46537399291989
30
0
10
137.01845109462738
20
30.46537399291989
30
0
10
136.24191224575046
20
31.257591247558565
30
0
0
SPLINE
5
546
100
AcDbEntity
8
0
100
AcDbSpline
70
0
71
2
72
6
73
3
74
0
42
0.000000001
43
0.0000000001
44
0.0000000001
40
0
40
0
40
0
40
1
40
1
40
1
10
136.24191224575046
20
31.257591247558565
30
0
10
135.4653733968735
20
32.049808502197237
30
0
10
135.4653733968735
20
33.136634826660128
30
0
0
SPLINE
5
547
100
AcDbEntity
8
0
100
AcDbSpline
70
0
71
2
72
6
73
3
74
0
42
0.000000001
43
0.0000000001
44
0.0000000001
40
0
40
0
40
0
40
1
40
1
40
1
10
135.4653733968735
20
33.136634826660128
30
0
10
135.4653733968735
20
34.17541027069089
30
0
10
136.18572175502777
20
34.99165534973141
30
0
0
SPLINE
5
548
100
AcDbEntity
8
0
100
AcDbSpline
70
0
71
2
72
6
73
3
74
0
42
0.000000001
43
0.0000000001
44
0.0000000001
40
0
40
0
40
0
40
1
40
1
40
1
10
136.18572175502777
20
34.99165534973141
30
0
10
136.9060701131821
20
35.807895660400355
30
0
10
138.13745439052582
20
35.807895660400355
30
0
0
LINE
5
549
100
AcDbEntity
8
0
100
AcDbLine
10
138.13745439052582
20
35.807895660400355
30
0
11
139.8696702718735
21
35.807895660400355
31
0
0
LINE
5
550
100
AcDbEntity
8
0
100
AcDbLine
10
139.8696702718735
20
35.807895660400355
30
0
11
139.8696702718735
21
36.948060989379847
31
0
0
SPLINE
5
551
100
AcDbEntity
8
0
100
AcDbSpline
70
0
71
2
72
6
73
3
74
0
42
0.000000001
43
0.0000000001
44
0.0000000001
40
0
40
0
40
0
40
1
40
1
40
1
10
139.8696702718735
20
36.948060989379847
30
0
10
139.8696702718735
20
40.471191406249964
30
0
10
142.28300034999847
20
42.791442871093714
30
0
0
SPLINE
5
552
100
AcDbEntity
8
0
100
AcDbSpline
70
0
71
2
72
6
73
3
74
0
42
0.000000001
43
0.0000000001
44
0.0000000001
40
0
40
0
40
0
40
1
40
1
40
1
10
142.28300034999847
20
42.791442871093714
30
0
10
144.69625413417816
20
45.11168956756589
30
0
10
148.28008592128754
20
45.11168956756589
30
0
0
LINE
5
553
100
AcDbEntity
8
0
100
AcDbLine
10
148.28008592128754
20
45.11168956756589
30
0
11
153.30945909023285
21
45.11168956756589
31
0
0
SPLINE
5
554
100
AcDbEntity
8
0
100
AcDbSpline
70
0
71
2
72
6
73
3
74
0
42
0.000000001
43
0.0000000001
44
0.0000000001
40
0
40
0
40
0
40
1
40
1
40
1
10
153.30945909023285
20
45.11168956756589
30
0
10
154.42884385585785
20
45.11168956756589
30
0
10
155.21516740322113
20
44.307055473327608
30
0
0
SPLINE
5
555
100
AcDbEntity
8
0
100
AcDbSpline
70
0
71
2
72
6
73
3
74
0
42
0.000000001
43
0.0000000001
44
0.0000000001
40
0
40
0
40
0
40
1
40
1
40
1
10
155.21516740322113
20
44.307055473327608
30
0
10
156.00149095058441
20
43.502416610717759
30
0
10
156.00149095058441
20
42.38871574401854
30
0
0
SPLINE
5
556
100
AcDbEntity
8
0
100
AcDbSpline
70
0
71
2
72
6
73
3
74
0
42
0.000000001
43
0.0000000001
44
0.0000000001
40
0
40
0
40
0
40
1
40
1
40
1
10
156.00149095058441
20
42.38871574401854
30
0
10
156.00149095058441
20
41.307182312011683
30
0
10
155.20967423915863
20
40.512113571166957
30
0
0
SPLINE
5
557
100
AcDbEntity
8
0
100
AcDbSpline
70
0
71
2
72
6
73
3
74
0
42
0.000000001
43
0.0000000001
44
0.0000000001
40
0
40
0
40
0
40
1
40
1
40
1
10
155.20967423915863
20
40.512113571166957
30
0
10
154.41785752773285
20
39.717054367065394
30
0
10
153.31190049648285
20
39.717054367065394
30
0
0
LINE
5
558
100
AcDbEntity
8
0
100
AcDbLine
10
153.31190049648285
20
39.717054367065394
30
0
11
148.28782975673676
21
39.717054367065394
31
0
0
SPLINE
5
559
100
AcDbEntity
8
0
100
AcDbSpline
70
0
71
2
72
6
73
3
74
0
42
0.000000001
43
0.0000000001
44
0.0000000001
40
0
40
0
40
0
40
1
40
1
40
1
10
148.28782975673676
20
39.717054367065394
30
0
10
146.98270738124847
20
39.717054367065394
30
0
10
146.13656938076019
20
38.945198059081996
30
0
0
SPLINE
5
560
100
AcDbEntity
8
0
100
AcDbSpline
70
0
71
2
72
6
73
3
74
0
42
0.000000001
43
0.0000000001
44
0.0000000001
40
0
40
0
40
0
40
1
40
1
40
1
10
146.13656938076019
20
38.945198059081996
30
0
10
145.29039323329926
20
38.173341751098619
30
0
10
145.29039323329926
20
36.945619583129847
30
0
0
LINE
5
561
100
AcDbEntity
8
0
100
AcDbLine
10
145.29039323329926
20
36.945619583129847
30
0
11
145.29039323329926
21
35.807895660400355
31
0
0
LINE
5
562
100
AcDbEntity
8
0
100
AcDbLine
10
145.29039323329926
20
35.807895660400355
30
0
11
149.27526414394382
21
35.807895660400355
31
0
0
SPLINE
5
563
100
AcDbEntity
8
0
100
AcDbSpline
70
0
71
2
72
6
73
3
74
0
42
0.000000001
43
0.0000000001
44
0.0000000001
40
0
40
0
40
0
40
1
40
1
40
1
10
149.27526414394382
20
35.807895660400355
30
0
10
150.11373460292816
20
35.832729339599574
30
0
10
150.90757310390472
20
35.034203529357875
30
0
0
SPLINE
5
564
100
AcDbEntity
8
0
100
AcDbSpline
70
0
71
2
72
6
73
3
74
0
42
0.000000001
43
0.0000000001
44
0.0000000001
40
0
40
0
40
0
40
1
40
1
40
1
10
150.90757310390472
20
35.034203529357875
30
0
10
151.70141160488129
20
34.235677719116183
30
0
10
151.70141160488129
20
33.136634826660128
30
0
0
SPLINE
5
565
100
AcDbEntity
8
0
100
AcDbSpline
70
0
71
2
72
6
73
3
74
0
42
0.000000001
43
0.0000000001
44
0.0000000001
40
0
40
0
40
0
40
1
40
1
40
1
10
151.70141160488129
20
33.136634826660128
30
0
10
151.70141160488129
20
32.055101394653285
30
0
10
150.91123521327972
20
31.260237693786593
30
0
0
SPLINE
5
566
100
AcDbEntity
8
0
100
AcDbSpline
70
0
71
2
72
6
73
3
74
0
42
0.000000001
43
0.0000000001
44
0.0000000001
40
0
40
0
40
0
40
1
40
1
40
1
10
150.91123521327972
20
31.260237693786593
30
0
10
150.12105882167816
20
30.46537399291989
30
0
10
149.01670396327972
20
30.46537399291989
30
0
0
LINE
5
567
100
AcDbEntity
8
0
100
AcDbLine
10
149.01670396327972
20
30.46537399291989
30
0
11
145.23824632167816
21
30.46537399291989
31
0
0
LINE
5
568
100
AcDbEntity
8
0
100
AcDbLine
10
-108.13018381595612
20
-45.111694335937528
30
0
11
-112.42455542087556
21
-45.111694335937528
31
0
0
SPLINE
5
569
100
AcDbEntity
8
0
100
AcDbSpline
70
0
71
2
72
6
73
3
74
0
42
0.000000001
43
0.0000000001
44
0.0000000001
40
0
40
0
40
0
40
1
40
1
40
1
10
-112.42455542087556
20
-45.111694335937528
30
0
10
-115.30063688755035
20
-45.111694335937528
30
0
10
-117.3692375421524
20
-43.072214126586942
30
0
0
SPLINE
5
570
100
AcDbEntity
8
0
100
AcDbSpline
70
0
71
2
72
6
73
3
74
0
42
0.000000001
43
0.0000000001
44
0.0000000001
40
0
40
0
40
0
40
1
40
1
40
1
10
-117.3692375421524
20
-43.072214126586942
30
0
10
-119.43783342838287
20
-41.032733917236335
30
0
10
-119.43783342838287
20
-38.155021667480476
30
0
0
LINE
5
571
100
AcDbEntity
8
0
100
AcDbLine
10
-119.43783342838287
20
-38.155021667480476
30
0
11
-119.43783342838287
21
-24.758005142211932
31
0
0
LINE
5
572
100
AcDbEntity
8
0
100
AcDbLine
10
-119.43783342838287
20
-24.758005142211932
30
0
11
-121.11836493015289
21
-24.758005142211932
31
0
0
SPLINE
5
573
100
AcDbEntity
8
0
100
AcDbSpline
70
0
71
2
72
6
73
3
74
0
42
0.000000001
43
0.0000000001
44
0.0000000001
40
0
40
0
40
0
40
1
40
1
40
1
10
-121.11836493015289
20
-24.758005142211932
30
0
10
-122.23084509372713
20
-24.758005142211932
30
0
10
-123.01043570041656
20
-23.994703292846694
30
0
0
SPLINE
5
574
100
AcDbEntity
8
0
100
AcDbSpline
70
0
71
2
72
6
73
3
74
0
42
0.000000001
43
0.0000000001
44
0.0000000001
40
0
40
0
40
0
40
1
40
1
40
1
10
-123.01043570041656
20
-23.994703292846694
30
0
10
-123.7900310754776
20
-23.231401443481463
30
0
10
-123.7900310754776
20
-22.086753845214862
30
0
0
SPLINE
5
575
100
AcDbEntity
8
0
100
AcDbSpline
70
0
71
2
72
6
73
3
74
0
42
0.000000001
43
0.0000000001
44
0.0000000001
40
0
40
0
40
0
40
1
40
1
40
1
10
-123.7900310754776
20
-22.086753845214862
30
0
10
-123.7900310754776
20
-20.971012115478533
30
0
10
-123.01206648349762
20
-20.19325256347658
30
0
0
SPLINE
5
576
100
AcDbEntity
8
0
100
AcDbSpline
70
0
71
2
72
6
73
3
74
0
42
0.000000001
43
0.0000000001
44
0.0000000001
40
0
40
0
40
0
40
1
40
1
40
1
10
-123.01206648349762
20
-20.19325256347658
30
0
10
-122.23410189151764
20
-19.415493011474627
30
0
10
-121.11795485019684
20
-19.415493011474627
30
0
0
LINE
5
577
100
AcDbEntity
8
0
100
AcDbLine
10
-121.11795485019684
20
-19.415493011474627
30
0
11
-119.38571035861969
21
-19.415493011474627
31
0
0
LINE
5
578
100
AcDbEntity
8
0
100
AcDbLine
10
-119.38571035861969
20
-19.415493011474627
30
0
11
-119.38571035861969
21
-14.679298400878926
31
0
0
SPLINE
5
579
100
AcDbEntity
8
0
100
AcDbSpline
70
0
71
2
72
6
73
3
74
0
42
0.000000001
43
0.0000000001
44
0.0000000001
40
0
40
0
40
0
40
1
40
1
40
1
10
-119.38571035861969
20
-14.679298400878926
30
0
10
-119.38571035861969
20
-13.565597534179705
30
0
10
-118.60754072666168
20
-12.789878845214863
30
0
0
SPLINE
5
580
100
AcDbEntity
8
0
100
AcDbSpline
70
0
71
2
72
6
73
3
74
0
42
0.000000001
43
0.0000000001
44
0.0000000001
40
0
40
0
40
0
40
1
40
1
40
1
10
-118.60754072666168
20
-12.789878845214863
30
0
10
-117.82937586307526
20
-12.014150619506855
30
0
10
-116.71444952487946
20
-12.014150619506855
30
0
0
SPLINE
5
581
100
AcDbEntity
8
0
100
AcDbSpline
70
0
71
2
72
6
73
3
74
0
42
0.000000001
43
0.0000000001
44
0.0000000001
40
0
40
0
40
0
40
1
40
1
40
1
10
-116.71444952487946
20
-12.014150619506855
30
0
10
-115.65205633640289
20
-12.014150619506855
30
0
10
-114.83459532260895
20
-12.813291549682635
30
0
0
SPLINE
5
582
100
AcDbEntity
8
0
100
AcDbSpline
70
0
71
2
72
6
73
3
74
0
42
0.000000001
43
0.0000000001
44
0.0000000001
40
0
40
0
40
0
40
1
40
1
40
1
10
-114.83459532260895
20
-12.813291549682635
30
0
10
-114.017134308815
20
-13.612422943115252
30
0
10
-114.017134308815
20
-14.679298400878926
30
0
0
LINE
5
583
100
AcDbEntity
8
0
100
AcDbLine
10
-114.017134308815
20
-14.679298400878926
30
0
11
-114.017134308815
21
-19.415493011474627
31
0
0
LINE
5
584
100
AcDbEntity
8
0
100
AcDbLine
10
-114.017134308815
20
-19.415493011474627
30
0
11
-105.92272818088531
21
-19.415493011474627
31
0
0
SPLINE
5
585
100
AcDbEntity
8
0
100
AcDbSpline
70
0
71
2
72
6
73
3
74
0
42
0.000000001
43
0.0000000001
44
0.0000000001
40
0
40
0
40
0
40
1
40
1
40
1
10
-105.92272818088531
20
-19.415493011474627
30
0
10
-104.82327997684479
20
-19.415493011474627
30
0
10
-104.02556478977205
20
-20.214023590087908
30
0
0
SPLINE
5
586
100
AcDbEntity
8
0
100
AcDbSpline
70
0
71
2
72
6
73
3
74
0
42
0.000000001
43
0.0000000001
44
0.0000000001
40
0
40
0
40
0
40
1
40
1
40
1
10
-104.02556478977205
20
-20.214023590087908
30
0
10
-103.22785437107086
20
-21.012544631958026
30
0
10
-103.22785437107086
20
-22.086753845214862
30
0
0
SPLINE
5
587
100
AcDbEntity
8
0
100
AcDbSpline
70
0
71
2
72
6
73
3
74
0
42
0.000000001
43
0.0000000001
44
0.0000000001
40
0
40
0
40
0
40
1
40
1
40
1
10
-103.22785437107086
20
-22.086753845214862
30
0
10
-103.22785437107086
20
-23.189458847045927
30
0
10
-104.02740061283112
20
-23.973731994628924
30
0
0
SPLINE
5
588
100
AcDbEntity
8
0
100
AcDbSpline
70
0
71
2
72
6
73
3
74
0
42
0.000000001
43
0.0000000001
44
0.0000000001
40
0
40
0
40
0
40
1
40
1
40
1
10
-104.02740061283112
20
-23.973731994628924
30
0
10
-104.82694685459137
20
-24.758005142211932
30
0
10
-105.92313826084137
20
-24.758005142211932
30
0
0
LINE
5
589
100
AcDbEntity
8
0
100
AcDbLine
10
-105.92313826084137
20
-24.758005142211932
30
0
11
-114.0692526102066
21
-24.758005142211932
31
0
0
LINE
5
590
100
AcDbEntity
8
0
100
AcDbLine
10
-114.0692526102066
20
-24.758005142211932
30
0
11
-114.0692526102066
21
-38.146467208862319
31
0
0
SPLINE
5
591
100
AcDbEntity
8
0
100
AcDbSpline
70
0
71
2
72
6
73
3
74
0
42
0.000000001
43
0.0000000001
44
0.0000000001
40
0
40
0
40
0
40
1
40
1
40
1
10
-114.0692526102066
20
-38.146467208862319
30
0
10
-114.0692526102066
20
-38.815097808837905
30
0
10
-113.5820347070694
20
-39.292135238647475
30
0
0
SPLINE
5
592
100
AcDbEntity
8
0
100
AcDbSpline
70
0
71
2
72
6
73
3
74
0
42
0.000000001
43
0.0000000001
44
0.0000000001
40
0
40
0
40
0
40
1
40
1
40
1
10
-113.5820347070694
20
-39.292135238647475
30
0
10
-113.0948168039322
20
-39.769172668457045
30
0
10
-112.41885721683502
20
-39.769172668457045
30
0
0
LINE
5
593
100
AcDbEntity
8
0
100
AcDbLine
10
-112.41885721683502
20
-39.769172668457045
30
0
11
-108.22750627994537
21
-39.769172668457045
31
0
0
SPLINE
5
594
100
AcDbEntity
8
0
100
AcDbSpline
70
0
71
2
72
6
73
3
74
0
42
0.000000001
43
0.0000000001
44
0.0000000001
40
0
40
0
40
0
40
1
40
1
40
1
10
-108.22750627994537
20
-39.769172668457045
30
0
10
-106.90612852573395
20
-39.769172668457045
30
0
10
-106.34398519992828
20
-37.918844223022475
30
0
0
SPLINE
5
595
100
AcDbEntity
8
0
100
AcDbSpline
70
0
71
2
72
6
73
3
74
0
42
0.000000001
43
0.0000000001
44
0.0000000001
40
0
40
0
40
0
40
1
40
1
40
1
10
-106.34398519992828
20
-37.918844223022475
30
0
10
-105.78184187412262
20
-36.068506240844734
30
0
10
-103.78246366977692
20
-36.068506240844734
30
0
0
SPLINE
5
596
100
AcDbEntity
8
0
100
AcDbSpline
70
0
71
2
72
6
73
3
74
0
42
0.000000001
43
0.0000000001
44
0.0000000001
40
0
40
0
40
0
40
1
40
1
40
1
10
-103.78246366977692
20
-36.068506240844734
30
0
10
-102.60076105594635
20
-36.068506240844734
30
0
10
-101.84580385684968
20
-36.856651306152358
30
0
0
SPLINE
5
597
100
AcDbEntity
8
0
100
AcDbSpline
70
0
71
2
72
6
73
3
74
0
42
0.000000001
43
0.0000000001
44
0.0000000001
40
0
40
0
40
0
40
1
40
1
40
1
10
-101.84580385684968
20
-36.856651306152358
30
0
10
-101.09084665775299
20
-37.644796371459975
30
0
10
-101.09084665775299
20
-38.787813186645522
30
0
0
SPLINE
5
598
100
AcDbEntity
8
0
100
AcDbSpline
70
0
71
2
72
6
73
3
74
0
42
0.000000001
43
0.0000000001
44
0.0000000001
40
0
40
0
40
0
40
1
40
1
40
1
10
-101.09084665775299
20
-38.787813186645522
30
0
10
-101.09084665775299
20
-40.934591293334975
30
0
10
-103.06863844394684
20
-43.023147583007841
30
0
0
SPLINE
5
599
100
AcDbEntity
8
0
100
AcDbSpline
70
0
71
2
72
6
73
3
74
0
42
0.000000001
43
0.0000000001
44
0.0000000001
40
0
40
0
40
0
40
1
40
1
40
1
10
-103.06863844394684
20
-43.023147583007841
30
0
10
-105.0464254617691
20
-45.111694335937528
30
0
10
-108.13018381595612
20
-45.111694335937528
30
0
0
LINE
5
600
100
AcDbEntity
8
0
100
AcDbLine
10
-91.526442170143127
20
-42.444105148315437
30
0
11
-91.526442170143127
21
-12.780103683471697
31
0
0
SPLINE
5
601
100
AcDbEntity
8
0
100
AcDbSpline
70
0
71
2
72
6
73
3
74
0
42
0.000000001
43
0.0000000001
44
0.0000000001
40
0
40
0
40
0
40
1
40
1
40
1
10
-91.526442170143127
20
-12.780103683471697
30
0
10
-91.526442170143127
20
-11.69652938842775
30
0
10
-90.74277937412262
20
-10.930175781250016
30
0
0
SPLINE
5
602
100
AcDbEntity
8
0
100
AcDbSpline
70
0
71
2
72
6
73
3
74
0
42
0.000000001
43
0.0000000001
44
0.0000000001
40
0
40
0
40
0
40
1
40
1
40
1
10
-90.74277937412262
20
-10.930175781250016
30
0
10
-89.959107041358934
20
-10.163812637329119
30
0
10
-88.855181336402907
20
-10.163812637329119
30
0
0
SPLINE
5
603
100
AcDbEntity
8
0
100
AcDbSpline
70
0
71
2
72
6
73
3
74
0
42
0.000000001
43
0.0000000001
44
0.0000000001
40
0
40
0
40
0
40
1
40
1
40
1
10
-88.855181336402907
20
-10.163812637329119
30
0
10
-87.729664444923387
20
-10.163812637329119
30
0
10
-86.943760514259324
20
-10.948085784912125
30
0
0
SPLINE
5
604
100
AcDbEntity
8
0
100
AcDbSpline
70
0
71
2
72
6
73
3
74
0
42
0.000000001
43
0.0000000001
44
0.0000000001
40
0
40
0
40
0
40
1
40
1
40
1
10
-86.943760514259324
20
-10.948085784912125
30
0
10
-86.157856583595262
20
-11.732368469238301
30
0
10
-86.157856583595262
20
-12.831001281738301
30
0
0
LINE
5
605
100
AcDbEntity
8
0
100
AcDbLine
10
-86.157856583595262
20
-12.831001281738301
30
0
11
-86.157856583595262
21
-23.142223358154315
31
0
0
LINE
5
606
100
AcDbEntity
8
0
100
AcDbLine
10
-86.157856583595262
20
-23.142223358154315
30
0
11
-83.15921843051909
21
-20.896081924438494
31
0
0
SPLINE
5
607
100
AcDbEntity
8
0
100
AcDbSpline
70
0
71
2
72
6
73
3
74
0
42
0.000000001
43
0.0000000001
44
0.0000000001
40
0
40
0
40
0
40
1
40
1
40
1
10
-83.15921843051909
20
-20.896081924438494
30
0
10
-81.062107682228103
20
-19.415493011474627
30
0
10
-79.067221283912673
20
-19.415493011474627
30
0
0
LINE
5
608
100
AcDbEntity
8
0
100
AcDbLine
10
-79.067221283912673
20
-19.415493011474627
30
0
11
-76.410217881202684
21
-19.415493011474627
31
0
0
SPLINE
5
609
100
AcDbEntity
8
0
100
AcDbSpline
70
0
71
2
72
6
73
3
74
0
42
0.000000001
43
0.0000000001
44
0.0000000001
40
0
40
0
40
0
40
1
40
1
40
1
10
-76.410217881202684
20
-19.415493011474627
30
0
10
-73.550415635108962
20
-19.415493011474627
30
0
10
-71.508083939552321
20
-21.443977355957049
30
0
0
SPLINE
5
610
100
AcDbEntity
8
0
100
AcDbSpline
70
0
71
2
72
6
73
3
74
0
42
0.000000001
43
0.0000000001
44
0.0000000001
40
0
40
0
40
0
40
1
40
1
40
1
10
-71.508083939552321
20
-21.443977355957049
30
0
10
-69.465752243995681
20
-23.472461700439467
30
0
10
-69.385538697242751
20
-26.284618377685565
30
0
0
LINE
5
611
100
AcDbEntity
8
0
100
AcDbLine
10
-69.385538697242751
20
-26.284618377685565
30
0
11
-68.835812211036682
21
-42.43228912353517
31
0
0
SPLINE
5
612
100
AcDbEntity
8
0
100
AcDbSpline
70
0
71
2
72
6
73
3
74
0
42
0.000000001
43
0.0000000001
44
0.0000000001
40
0
40
0
40
0
40
1
40
1
40
1
10
-68.835812211036682
20
-42.43228912353517
30
0
10
-68.804054856300354
20
-43.548440933227546
30
0
10
-69.603186249732971
20
-44.330062866210966
30
0
0
SPLINE
5
613
100
AcDbEntity
8
0
100
AcDbSpline
70
0
71
2
72
6
73
3
74
0
42
0.000000001
43
0.0000000001
44
0.0000000001
40
0
40
0
40
0
40
1
40
1
40
1
10
-69.603186249732971
20
-44.330062866210966
30
0
10
-70.402327179908752
20
-45.111694335937528
30
0
10
-71.524582505226149
20
-45.111694335937528
30
0
0
SPLINE
5
614
100
AcDbEntity
8
0
100
AcDbSpline
70
0
71
2
72
6
73
3
74
0
42
0.000000001
43
0.0000000001
44
0.0000000001
40
0
40
0
40
0
40
1
40
1
40
1
10
-71.524582505226149
20
-45.111694335937528
30
0
10
-72.649689316749559
20
-45.111694335937528
30
0
10
-73.406878113746643
20
-44.308691024780302
30
0
0
SPLINE
5
615
100
AcDbEntity
8
0
100
AcDbSpline
70
0
71
2
72
6
73
3
74
0
42
0.000000001
43
0.0000000001
44
0.0000000001
40
0
40
0
40
0
40
1
40
1
40
1
10
-73.406878113746643
20
-44.308691024780302
30
0
10
-74.164076447486863
20
-43.505678176879911
30
0
10
-74.191761612892137
20
-42.585811614990249
30
0
0
LINE
5
616
100
AcDbEntity
8
0
100
AcDbLine
10
-74.191761612892137
20
-42.585811614990249
30
0
11
-74.743118882179274
21
-26.35017395019533
31
0
0
SPLINE
5
617
100
AcDbEntity
8
0
100
AcDbSpline
70
0
71
2
72
6
73
3
74
0
42
0.000000001
43
0.0000000001
44
0.0000000001
40
0
40
0
40
0
40
1
40
1
40
1
10
-74.743118882179274
20
-26.35017395019533
30
0
10
-74.762259125709548
20
-25.696201324462908
30
0
10
-75.257015824317946
20
-25.201044082641616
30
0
0
SPLINE
5
618
100
AcDbEntity
8
0
100
AcDbSpline
70
0
71
2
72
6
73
3
74
0
42
0.000000001
43
0.0000000001
44
0.0000000001
40
0
40
0
40
0
40
1
40
1
40
1
10
-75.257015824317946
20
-25.201044082641616
30
0
10
-75.751762986183181
20
-24.70588684082033
30
0
10
-76.417141556739821
20
-24.70588684082033
30
0
0
LINE
5
619
100
AcDbEntity
8
0
100
AcDbLine
10
-76.417141556739821
20
-24.70588684082033
30
0
11
-78.816786408424377
21
-24.70588684082033
31
0
0
SPLINE
5
620
100
AcDbEntity
8
0
100
AcDbSpline
70
0
71
2
72
6
73
3
74
0
42
0.000000001
43
0.0000000001
44
0.0000000001
40
0
40
0
40
0
40
1
40
1
40
1
10
-78.816786408424377
20
-24.70588684082033
30
0
10
-79.458542466163621
20
-24.70588684082033
30
0
10
-80.056725144386306
20
-24.574766159057635
30
0
0
LINE
5
621
100
AcDbEntity
8
0
100
AcDbLine
10
-80.056725144386306
20
-24.574766159057635
30
0
11
-86.157856583595262
21
-29.069890975952177
31
0
0
LINE
5
622
100
AcDbEntity
8
0
100
AcDbLine
10
-86.157856583595262
20
-29.069890975952177
30
0
11
-86.157856583595262
21
-42.443695068359382
31
0
0
SPLINE
5
623
100
AcDbEntity
8
0
100
AcDbSpline
70
0
71
2
72
6
73
3
74
0
42
0.000000001
43
0.0000000001
44
0.0000000001
40
0
40
0
40
0
40
1
40
1
40
1
10
-86.157856583595262
20
-42.443695068359382
30
0
10
-86.157856583595262
20
-43.550882339477546
30
0
10
-86.939697861671448
20
-44.331283569335966
30
0
0
SPLINE
5
624
100
AcDbEntity
8
0
100
AcDbSpline
70
0
71
2
72
6
73
3
74
0
42
0.000000001
43
0.0000000001
44
0.0000000001
40
0
40
0
40
0
40
1
40
1
40
1
10
-86.939697861671448
20
-44.331283569335966
30
0
10
-87.721520066261292
20
-45.111694335937528
30
0
10
-88.855181336402907
20
-45.111694335937528
30
0
0
SPLINE
5
625
100
AcDbEntity
8
0
100
AcDbSpline
70
0
71
2
72
6
73
3
74
0
42
0.000000001
43
0.0000000001
44
0.0000000001
40
0
40
0
40
0
40
1
40
1
40
1
10
-88.855181336402907
20
-45.111694335937528
30
0
10
-89.978657364845262
20
-45.111694335937528
30
0
10
-90.75254499912262
20
-44.33922767639163
30
0
0
SPLINE
5
626
100
AcDbEntity
8
0
100
AcDbSpline
70
0
71
2
72
6
73
3
74
0
42
0.000000001
43
0.0000000001
44
0.0000000001
40
0
40
0
40
0
40
1
40
1
40
1
10
-90.75254499912262
20
-44.33922767639163
30
0
10
-91.526442170143127
20
-43.566761016845732
30
0
10
-91.526442170143127
20
-42.444105148315437
30
0
0
LINE
5
627
100
AcDbEntity
8
0
100
AcDbLine
10
-36.511555314064019
20
-28.008308410644549
30
0
11
-36.511555314064019
21
-33.193244934082045
31
0
0
SPLINE
5
628
100
AcDbEntity
8
0
100
AcDbSpline
70
0
71
2
72
6
73
3
74
0
42
0.000000001
43
0.0000000001
44
0.0000000001
40
0
40
0
40
0
40
1
40
1
40
1
10
-36.511555314064019
20
-33.193244934082045
30
0
10
-36.511555314064019
20
-34.273958206176765
30
0
10
-37.30519354343415
20
-35.066986083984389
30
0
0
SPLINE
5
629
100
AcDbEntity
8
0
100
AcDbSpline
70
0
71
2
72
6
73
3
74
0
42
0.000000001
43
0.0000000001
44
0.0000000001
40
0
40
0
40
0
40
1
40
1
40
1
10
-37.30519354343415
20
-35.066986083984389
30
0
10
-38.098831772804253
20
-35.86002349853517
30
0
10
-39.206019043922417
20
-35.86002349853517
30
0
0
LINE
5
630
100
AcDbEntity
8
0
100
AcDbLine
10
-39.206019043922417
20
-35.86002349853517
30
0
11
-53.842154145240784
21
-35.86002349853517
31
0
0
LINE
5
631
100
AcDbEntity
8
0
100
AcDbLine
10
-53.842154145240784
20
-35.86002349853517
30
0
11
-53.842154145240784
21
-36.589317321777358
31
0
0
SPLINE
5
632
100
AcDbEntity
8
0
100
AcDbSpline
70
0
71
2
72
6
73
3
74
0
42
0.000000001
43
0.0000000001
44
0.0000000001
40
0
40
0
40
0
40
1
40
1
40
1
10
-53.842154145240784
20
-36.589317321777358
30
0
10
-53.842154145240784
20
-37.454223632812507
30
0
10
-52.896214127540588
20
-38.273105621337905
30
0
0
LINE
5
633
100
AcDbEntity
8
0
100
AcDbLine
10
-52.896214127540588
20
-38.273105621337905
30
0
11
-51.759710907936103
21
-39.168148040771491
31
0
0
SPLINE
5
634
100
AcDbEntity
8
0
100
AcDbSpline
70
0
71
2
72
6
73
3
74
0
42
0.000000001
43
0.0000000001
44
0.0000000001
40
0
40
0
40
0
40
1
40
1
40
1
10
-51.759710907936103
20
-39.168148040771491
30
0
10
-50.982761979103095
20
-39.769172668457045
30
0
10
-50.248575806617744
20
-39.769172668457045
30
0
0
LINE
5
635
100
AcDbEntity
8
0
100
AcDbLine
10
-50.248575806617744
20
-39.769172668457045
30
0
11
-39.206019043922417
21
-39.769172668457045
31
0
0
SPLINE
5
636
100
AcDbEntity
8
0
100
AcDbSpline
70
0
71
2
72
6
73
3
74
0
42
0.000000001
43
0.0000000001
44
0.0000000001
40
0
40
0
40
0
40
1
40
1
40
1
10
-39.206019043922417
20
-39.769172668457045
30
0
10
-38.118382096290581
20
-39.769172668457045
30
0
10
-37.3149687051773
20
-40.557527542114272
30
0
0
SPLINE
5
637
100
AcDbEntity
8
0
100
AcDbSpline
70
0
71
2
72
6
73
3
74
0
42
0.000000001
43
0.0000000001
44
0.0000000001
40
0
40
0
40
0
40
1
40
1
40
1
10
-37.3149687051773
20
-40.557527542114272
30
0
10
-36.511555314064019
20
-41.345872879028335
30
0
10
-36.511555314064019
20
-42.44043350219728
30
0
0
SPLINE
5
638
100
AcDbEntity
8
0
100
AcDbSpline
70
0
71
2
72
6
73
3
74
0
42
0.000000001
43
0.0000000001
44
0.0000000001
40
0
40
0
40
0
40
1
40
1
40
1
10
-36.511555314064019
20
-42.44043350219728
30
0
10
-36.511555314064019
20
-43.517494201660185
30
0
10
-37.323723435401924
20
-44.314594268798857
30
0
0
SPLINE
5
639
100
AcDbEntity
8
0
100
AcDbSpline
70
0
71
2
72
6
73
3
74
0
42
0.000000001
43
0.0000000001
44
0.0000000001
40
0
40
0
40
0
40
1
40
1
40
1
10
-37.323723435401924
20
-44.314594268798857
30
0
10
-38.135891556739814
20
-45.111694335937528
30
0
10
-39.206829667091363
20
-45.111694335937528
30
0
0
LINE
5
640
100
AcDbEntity
8
0
100
AcDbLine
10
-39.206829667091363
20
-45.111694335937528
30
0
11
-50.534029603004463
21
-45.111694335937528
31
0
0
SPLINE
5
641
100
AcDbEntity
8
0
100
AcDbSpline
70
0
71
2
72
6
73
3
74
0
42
0.000000001
43
0.0000000001
44
0.0000000001
40
0
40
0
40
0
40
1
40
1
40
1
10
-50.534029603004463
20
-45.111694335937528
30
0
10
-51.760521531105042
20
-45.111694335937528
30
0
10
-53.089438080787659
20
-44.605331420898466
30
0
0
SPLINE
5
642
100
AcDbEntity
8
0
100
AcDbSpline
70
0
71
2
72
6
73
3
74
0
42
0.000000001
43
0.0000000001
44
0.0000000001
40
0
40
0
40
0
40
1
40
1
40
1
10
-53.089438080787659
20
-44.605331420898466
30
0
10
-54.418345093727112
20
-44.098978042602546
30
0
10
-55.248642563819892
20
-42.97142982482913
30
0
0
LINE
5
643
100
AcDbEntity
8
0
100
AcDbLine
10
-55.248642563819892
20
-42.97142982482913
30
0
11
-57.138472199440002
21
-41.721315383911147
31
0
0
SPLINE
5
644
100
AcDbEntity
8
0
100
AcDbSpline
70
0
71
2
72
6
73
3
74
0
42
0.000000001
43
0.0000000001
44
0.0000000001
40
0
40
0
40
0
40
1
40
1
40
1
10
-57.138472199440002
20
-41.721315383911147
30
0
10
-57.965498566627502
20
-41.060018539428725
30
0
10
-58.61417829990387
20
-39.680814743042006
30
0
0
SPLINE
5
645
100
AcDbEntity
8
0
100
AcDbSpline
70
0
71
2
72
6
73
3
74
0
42
0.000000001
43
0.0000000001
44
0.0000000001
40
0
40
0
40
0
40
1
40
1
40
1
10
-58.61417829990387
20
-39.680814743042006
30
0
10
-59.262848496437073
20
-38.301610946655288
30
0
10
-59.262848496437073
20
-37.104845046997092
30
0
0
LINE
5
646
100
AcDbEntity
8
0
100
AcDbLine
10
-59.262848496437073
20
-37.104845046997092
30
0
11
-59.262848496437073
21
-27.268829345703143
31
0
0
SPLINE
5
647
100
AcDbEntity
8
0
100
AcDbSpline
70
0
71
2
72
6
73
3
74
0
42
0.000000001
43
0.0000000001
44
0.0000000001
40
0
40
0
40
0
40
1
40
1
40
1
10
-59.262848496437073
20
-27.268829345703143
30
0
10
-59.262848496437073
20
-26.303348541259783
30
0
10
-58.564491868019104
20
-24.771041870117205
30
0
0
SPLINE
5
648
100
AcDbEntity
8
0
100
AcDbSpline
70
0
71
2
72
6
73
3
74
0
42
0.000000001
43
0.0000000001
44
0.0000000001
40
0
40
0
40
0
40
1
40
1
40
1
10
-58.564491868019104
20
-24.771041870117205
30
0
10
-57.866144776344299
20
-23.238735198974627
30
0
10
-56.766281723976142
20
-22.365274429321307
30
0
0
LINE
5
649
100
AcDbEntity
8
0
100
AcDbLine
10
-56.766281723976142
20
-22.365274429321307
30
0
11
-54.92124617099762
21
-20.917263031005877
31
0
0
SPLINE
5
650
100
AcDbEntity
8
0
100
AcDbSpline
70
0
71
2
72
6
73
3
74
0
42
0.000000001
43
0.0000000001
44
0.0000000001
40
0
40
0
40
0
40
1
40
1
40
1
10
-54.92124617099762
20
-20.917263031005877
30
0
10
-53.069687485694892
20
-19.415493011474627
30
0
10
-50.738449692726142
20
-19.415493011474627
30
0
0
LINE
5
651
100
AcDbEntity
8
0
100
AcDbLine
10
-50.738449692726142
20
-19.415493011474627
30
0
11
-44.704084992408752
21
-19.415493011474627
31
0
0
SPLINE
5
652
100
AcDbEntity
8
0
100
AcDbSpline
70
0
71
2
72
6
73
3
74
0
42
0.000000001
43
0.0000000001
44
0.0000000001
40
0
40
0
40
0
40
1
40
1
40
1
10
-44.704084992408752
20
-19.415493011474627
30
0
10
-42.217293381690972
20
-19.415493011474627
30
0
10
-39.861212372779853
20
-21.954813003540053
30
0
0
LINE
5
653
100
AcDbEntity
8
0
100
AcDbLine
10
-39.861212372779853
20
-21.954813003540053
30
0
11
-38.290625214576714
21
-23.109235763549822
31
0
0
SPLINE
5
654
100
AcDbEntity
8
0
100
AcDbSpline
70
0
71
2
72
6
73
3
74
0
42
0.000000001
43
0.0000000001
44
0.0000000001
40
0
40
0
40
0
40
1
40
1
40
1
10
-38.290625214576714
20
-23.109235763549822
30
0
10
-36.511555314064019
20
-24.70344543457033
30
0
10
-36.511555314064019
20
-28.008308410644549
30
0
0
LINE
5
655
100
AcDbEntity
8
0
100
AcDbLine
10
-53.790035843849182
20
-27.676029205322283
30
0
11
-53.790035843849182
21
-30.465383529663104
31
0
0
LINE
5
656
100
AcDbEntity
8
0
100
AcDbLine
10
-53.790035843849182
20
-30.465383529663104
30
0
11
-41.828003525733941
21
-30.465383529663104
31
0
0
LINE
5
657
100
AcDbEntity
8
0
100
AcDbLine
10
-41.828003525733941
20
-30.465383529663104
30
0
11
-41.828003525733941
21
-28.007087707519549
31
0
0
SPLINE
5
658
100
AcDbEntity
8
0
100
AcDbSpline
70
0
71
2
72
6
73
3
74
0
42
0.000000001
43
0.0000000001
44
0.0000000001
40
0
40
0
40
0
40
1
40
1
40
1
10
-41.828003525733941
20
-28.007087707519549
30
0
10
-41.828003525733941
20
-27.055044174194354
30
0
10
-42.569113373756402
20
-26.192588806152362
30
0
0
LINE
5
659
100
AcDbEntity
8
0
100
AcDbLine
10
-42.569113373756402
20
-26.192588806152362
30
0
11
-43.733311295509338
21
-25.40464401245119
31
0
0
SPLINE
5
660
100
AcDbEntity
8
0
100
AcDbSpline
70
0
71
2
72
6
73
3
74
0
42
0.000000001
43
0.0000000001
44
0.0000000001
40
0
40
0
40
0
40
1
40
1
40
1
10
-43.733311295509338
20
-25.40464401245119
30
0
10
-44.464245438575752
20
-24.810132980346697
30
0
10
-45.037184357643135
20
-24.810132980346697
30
0
0
LINE
5
661
100
AcDbEntity
8
0
100
AcDbLine
10
-45.037184357643135
20
-24.810132980346697
30
0
11
-50.428152680397041
21
-24.810132980346697
31
0
0
SPLINE
5
662
100
AcDbEntity
8
0
100
AcDbSpline
70
0
71
2
72
6
73
3
74
0
42
0.000000001
43
0.0000000001
44
0.0000000001
40
0
40
0
40
0
40
1
40
1
40
1
10
-50.428152680397041
20
-24.810132980346697
30
0
10
-51.219349503517151
20
-24.810132980346697
30
0
10
-52.013807892799385
20
-25.478763580322283
30
0
0
LINE
5
663
100
AcDbEntity
8
0
100
AcDbLine
10
-52.013807892799385
20
-25.478763580322283
30
0
11
-53.194695115089424
21
-26.463785171508807
31
0
0
SPLINE
5
664
100
AcDbEntity
8
0
100
AcDbSpline
70
0
71
2
72
6
73
3
74
0
42
0.000000001
43
0.0000000001
44
0.0000000001
40
0
40
0
40
0
40
1
40
1
40
1
10
-53.194695115089424
20
-26.463785171508807
30
0
10
-53.790035843849182
20
-26.912937164306658
30
0
10
-53.790035843849182
20
-27.676029205322283
30
0
0
LINE
5
665
100
AcDbEntity
8
0
100
AcDbLine
10
13.942660689353945
20
-23.967218399047869
30
0
11
13.942660689353945
21
-23.041648864746108
31
0
0
LINE
5
666
100
AcDbEntity
8
0
100
AcDbLine
10
13.942660689353945
20
-23.041648864746108
30
0
11
10.58076798915863
21
-17.043933868408221
31
0
0
LINE
5
667
100
AcDbEntity
8
0
100
AcDbLine
10
10.58076798915863
20
-17.043933868408221
30
0
11
10.58076798915863
21
-42.443284988403335
31
0
0
SPLINE
5
668
100
AcDbEntity
8
0
100
AcDbSpline
70
0
71
2
72
6
73
3
74
0
42
0.000000001
43
0.0000000001
44
0.0000000001
40
0
40
0
40
0
40
1
40
1
40
1
10
10.58076798915863
20
-42.443284988403335
30
0
10
10.58076798915863
20
-43.550472259521491
30
0
10
9.799155592918396
20
-44.331083297729521
30
0
0
SPLINE
5
669
100
AcDbEntity
8
0
100
AcDbSpline
70
0
71
2
72
6
73
3
74
0
42
0.000000001
43
0.0000000001
44
0.0000000001
40
0
40
0
40
0
40
1
40
1
40
1
10
9.799155592918396
20
-44.331083297729521
30
0
10
9.0175241231918317
20
-45.111694335937528
30
0
10
7.8834718465805054
20
-45.111694335937528
30
0
0
SPLINE
5
670
100
AcDbEntity
8
0
100
AcDbSpline
70
0
71
2
72
6
73
3
74
0
42
0.000000001
43
0.0000000001
44
0.0000000001
40
0
40
0
40
0
40
1
40
1
40
1
10
7.8834718465805054
20
-45.111694335937528
30
0
10
6.7648690938949594
20
-45.111694335937528
30
0
10
5.9885400533676156
20
-44.321107864379911
30
0
0
SPLINE
5
671
100
AcDbEntity
8
0
100
AcDbSpline
70
0
71
2
72
6
73
3
74
0
42
0.000000001
43
0.0000000001
44
0.0000000001
40
0
40
0
40
0
40
1
40
1
40
1
10
5.9885400533676156
20
-44.321107864379911
30
0
10
5.2121919393539429
20
-43.530521392822294
30
0
10
5.2121919393539429
20
-42.444105148315437
30
0
0
LINE
5
672
100
AcDbEntity
8
0
100
AcDbLine
10
5.2121919393539429
20
-42.444105148315437
30
0
11
5.2121919393539429
21
-10.111694335937518
31
0
0
LINE
5
673
100
AcDbEntity
8
0
100
AcDbLine
10
5.2121919393539429
20
-10.111694335937518
30
0
11
11.571502089500427
21
-10.111694335937518
31
0
0
LINE
5
674
100
AcDbEntity
8
0
100
AcDbLine
10
11.571502089500427
20
-10.111694335937518
30
0
11
16.568717360496517
21
-17.802553176879901
31
0
0
LINE
5
675
100
AcDbEntity
8
0
100
AcDbLine
10
16.568717360496517
20
-17.802553176879901
30
0
11
21.734904646873478
21
-10.111694335937518
31
0
0
LINE
5
676
100
AcDbEntity
8
0
100
AcDbLine
10
21.734904646873478
20
-10.111694335937518
30
0
11
28.015632033348087
21
-10.111694335937518
31
0
0
LINE
5
677
100
AcDbEntity
8
0
100
AcDbLine
10
28.015632033348087
20
-10.111694335937518
30
0
11
28.015632033348087
21
-42.444105148315437
31
0
0
SPLINE
5
678
100
AcDbEntity
8
0
100
AcDbSpline
70
0
71
2
72
6
73
3
74
0
42
0.000000001
43
0.0000000001
44
0.0000000001
40
0
40
0
40
0
40
1
40
1
40
1
10
28.015632033348087
20
-42.444105148315437
30
0
10
28.015632033348087
20
-43.556985855102546
30
0
10
27.205085158348087
20
-44.33434486389163
30
0
0
SPLINE
5
679
100
AcDbEntity
8
0
100
AcDbSpline
70
0
71
2
72
6
73
3
74
0
42
0.000000001
43
0.0000000001
44
0.0000000001
40
0
40
0
40
0
40
1
40
1
40
1
10
27.205085158348087
20
-44.33434486389163
30
0
10
26.394557356834412
20
-45.111694335937528
30
0
10
25.266589522361755
20
-45.111694335937528
30
0
0
SPLINE
5
680
100
AcDbEntity
8
0
100
AcDbSpline
70
0
71
2
72
6
73
3
74
0
42
0.000000001
43
0.0000000001
44
0.0000000001
40
0
40
0
40
0
40
1
40
1
40
1
10
25.266589522361755
20
-45.111694335937528
30
0
10
24.168757796287537
20
-45.111694335937528
30
0
10
23.381862044334412
20
-44.326200485229521
30
0
0
SPLINE
5
681
100
AcDbEntity
8
0
100
AcDbSpline
70
0
71
2
72
6
73
3
74
0
42
0.000000001
43
0.0000000001
44
0.0000000001
40
0
40
0
40
0
40
1
40
1
40
1
10
23.381862044334412
20
-44.326200485229521
30
0
10
22.59492814540863
20
-43.540697097778349
30
0
10
22.59492814540863
20
-42.443284988403335
30
0
0
LINE
5
682
100
AcDbEntity
8
0
100
AcDbLine
10
22.59492814540863
20
-42.443284988403335
30
0
11
22.59492814540863
21
-17.148180007934592
31
0
0
LINE
5
683
100
AcDbEntity
8
0
100
AcDbLine
10
22.59492814540863
20
-17.148180007934592
30
0
11
19.311236739158627
21
-22.931289672851577
31
0
0
LINE
5
684
100
AcDbEntity
8
0
100
AcDbLine
10
19.311236739158627
20
-22.931289672851577
30
0
11
19.311236739158627
21
-23.967218399047869
31
0
0
SPLINE
5
685
100
AcDbEntity
8
0
100
AcDbSpline
70
0
71
2
72
6
73
3
74
0
42
0.000000001
43
0.0000000001
44
0.0000000001
40
0
40
0
40
0
40
1
40
1
40
1
10
19.311236739158627
20
-23.967218399047869
30
0
10
19.311236739158627
20
-25.048341751098651
30
0
10
18.516578078269962
20
-25.841369628906268
30
0
0
SPLINE
5
686
100
AcDbEntity
8
0
100
AcDbSpline
70
0
71
2
72
6
73
3
74
0
42
0.000000001
43
0.0000000001
44
0.0000000001
40
0
40
0
40
0
40
1
40
1
40
1
10
18.516578078269962
20
-25.841369628906268
30
0
10
17.72191941738129
20
-26.634407043457049
30
0
10
16.613902449607846
20
-26.634407043457049
30
0
0
SPLINE
5
687
100
AcDbEntity
8
0
100
AcDbSpline
70
0
71
2
72
6
73
3
74
0
42
0.000000001
43
0.0000000001
44
0.0000000001
40
0
40
0
40
0
40
1
40
1
40
1
10
16.613902449607846
20
-26.634407043457049
30
0
10
15.49531877040863
20
-26.634407043457049
30
0
10
14.718989729881287
20
-25.843820571899432
30
0
0
SPLINE
5
688
100
AcDbEntity
8
0
100
AcDbSpline
70
0
71
2
72
6
73
3
74
0
42
0.000000001
43
0.0000000001
44
0.0000000001
40
0
40
0
40
0
40
1
40
1
40
1
10
14.718989729881287
20
-25.843820571899432
30
0
10
13.942660689353945
20
-25.053234100341811
30
0
10
13.942660689353945
20
-23.967218399047869
30
0
0
LINE
5
689
100
AcDbEntity
8
0
100
AcDbLine
10
60.279216170310974
20
-27.676849365234393
30
0
11
60.279216170310974
21
-36.746091842651374
31
0
0
SPLINE
5
690
100
AcDbEntity
8
0
100
AcDbSpline
70
0
71
2
72
6
73
3
74
0
42
0.000000001
43
0.0000000001
44
0.0000000001
40
0
40
0
40
0
40
1
40
1
40
1
10
60.279216170310974
20
-36.746091842651374
30
0
10
60.279216170310974
20
-39.854688644409201
30
0
10
57.389487624168396
20
-42.457132339477546
30
0
0
SPLINE
5
691
100
AcDbEntity
8
0
100
AcDbSpline
70
0
71
2
72
6
73
3
74
0
42
0.000000001
43
0.0000000001
44
0.0000000001
40
0
40
0
40
0
40
1
40
1
40
1
10
57.389487624168396
20
-42.457132339477546
30
0
10
54.499759078025818
20
-45.059576034545906
30
0
10
51.396464705467224
20
-45.059576034545906
30
0
0
LINE
5
692
100
AcDbEntity
8
0
100
AcDbLine
10
51.396464705467224
20
-45.059576034545906
30
0
11
46.359347701072686
21
-45.059576034545906
31
0
0
SPLINE
5
693
100
AcDbEntity
8
0
100
AcDbSpline
70
0
71
2
72
6
73
3
74
0
42
0.000000001
43
0.0000000001
44
0.0000000001
40
0
40
0
40
0
40
1
40
1
40
1
10
46.359347701072686
20
-45.059576034545906
30
0
10
43.209208846092224
20
-45.059576034545906
30
0
10
40.368556380271905
20
-42.423944473266616
30
0
0
SPLINE
5
694
100
AcDbEntity
8
0
100
AcDbSpline
70
0
71
2
72
6
73
3
74
0
42
0.000000001
43
0.0000000001
44
0.0000000001
40
0
40
0
40
0
40
1
40
1
40
1
10
40.368556380271905
20
-42.423944473266616
30
0
10
37.527903914451606
20
-39.788312911987319
30
0
10
37.527903914451606
20
-36.746091842651374
30
0
0
LINE
5
695
100
AcDbEntity
8
0
100
AcDbLine
10
37.527903914451606
20
-36.746091842651374
30
0
11
37.527903914451606
21
-27.676849365234393
31
0
0
SPLINE
5
696
100
AcDbEntity
8
0
100
AcDbSpline
70
0
71
2
72
6
73
3
74
0
42
0.000000001
43
0.0000000001
44
0.0000000001
40
0
40
0
40
0
40
1
40
1
40
1
10
37.527903914451606
20
-27.676849365234393
30
0
10
37.527903914451606
20
-24.638690948486346
30
0
10
40.303210616111762
20
-22.001037597656264
30
0
0
SPLINE
5
697
100
AcDbEntity
8
0
100
AcDbSpline
70
0
71
2
72
6
73
3
74
0
42
0.000000001
43
0.0000000001
44
0.0000000001
40
0
40
0
40
0
40
1
40
1
40
1
10
40.303210616111762
20
-22.001037597656264
30
0
10
43.078498244285583
20
-19.363365173339862
30
0
10
46.359347701072686
20
-19.363365173339862
30
0
0
LINE
5
698
100
AcDbEntity
8
0
100
AcDbLine
10
46.359347701072686
20
-19.363365173339862
30
0
11
51.838683485984802
21
-19.363365173339862
31
0
0
SPLINE
5
699
100
AcDbEntity
8
0
100
AcDbSpline
70
0
71
2
72
6
73
3
74
0
42
0.000000001
43
0.0000000001
44
0.0000000001
40
0
40
0
40
0
40
1
40
1
40
1
10
51.838683485984802
20
-19.363365173339862
30
0
10
54.495696425437927
20
-19.316539764404315
30
0
10
57.387446761131287
20
-21.921014785766616
30
0
0
SPLINE
5
700
100
AcDbEntity
8
0
100
AcDbSpline
70
0
71
2
72
6
73
3
74
0
42
0.000000001
43
0.0000000001
44
0.0000000001
40
0
40
0
40
0
40
1
40
1
40
1
10
57.387446761131287
20
-21.921014785766616
30
0
10
60.279216170310974
20
-24.525489807128924
30
0
10
60.279216170310974
20
-27.676849365234393
30
0
0
LINE
5
701
100
AcDbEntity
8
0
100
AcDbLine
10
42.948607802391045
20
-27.86008834838869
30
0
11
42.948607802391045
21
-36.537609100341811
31
0
0
SPLINE
5
702
100
AcDbEntity
8
0
100
AcDbSpline
70
0
71
2
72
6
73
3
74
0
42
0.000000001
43
0.0000000001
44
0.0000000001
40
0
40
0
40
0
40
1
40
1
40
1
10
42.948607802391045
20
-36.537609100341811
30
0
10
42.948607802391045
20
-37.480287551879897
30
0
10
43.563880324363701
20
-37.982769012451186
30
0
0
LINE
5
703
100
AcDbEntity
8
0
100
AcDbLine
10
43.563880324363701
20
-37.982769012451186
30
0
11
45.204924941062927
21
-39.388036727905288
31
0
0
SPLINE
5
704
100
AcDbEntity
8
0
100
AcDbSpline
70
0
71
2
72
6
73
3
74
0
42
0.000000001
43
0.0000000001
44
0.0000000001
40
0
40
0
40
0
40
1
40
1
40
1
10
45.204924941062927
20
-39.388036727905288
30
0
10
45.58891236782074
20
-39.717054367065437
30
0
10
46.361388564109795
20
-39.717054367065437
30
0
0
LINE
5
705
100
AcDbEntity
8
0
100
AcDbLine
10
46.361388564109795
20
-39.717054367065437
30
0
11
51.343936324119568
21
-39.717054367065437
31
0
0
SPLINE
5
706
100
AcDbEntity
8
0
100
AcDbSpline
70
0
71
2
72
6
73
3
74
0
42
0.000000001
43
0.0000000001
44
0.0000000001
40
0
40
0
40
0
40
1
40
1
40
1
10
51.343936324119568
20
-39.717054367065437
30
0
10
52.248744368553162
20
-39.717054367065437
30
0
10
52.986583113670349
20
-39.060239791870131
30
0
0
LINE
5
707
100
AcDbEntity
8
0
100
AcDbLine
10
52.986583113670349
20
-39.060239791870131
30
0
11
54.264811873435974
21
-37.929840087890639
31
0
0
SPLINE
5
708
100
AcDbEntity
8
0
100
AcDbSpline
70
0
71
2
72
6
73
3
74
0
42
0.000000001
43
0.0000000001
44
0.0000000001
40
0
40
0
40
0
40
1
40
1
40
1
10
54.264811873435974
20
-37.929840087890639
30
0
10
54.910621047019958
20
-37.429790496826186
30
0
10
54.910621047019958
20
-36.588506698608406
30
0
0
LINE
5
709
100
AcDbEntity
8
0
100
AcDbLine
10
54.910621047019958
20
-36.588506698608406
30
0
11
54.910621047019958
21
-27.910985946655291
31
0
0
SPLINE
5
710
100
AcDbEntity
8
0
100
AcDbSpline
70
0
71
2
72
6
73
3
74
0
42
0.000000001
43
0.0000000001
44
0.0000000001
40
0
40
0
40
0
40
1
40
1
40
1
10
54.910621047019958
20
-27.910985946655291
30
0
10
54.910621047019958
20
-26.89908981323244
30
0
10
54.314078688621521
20
-26.437721252441424
30
0
0
LINE
5
711
100
AcDbEntity
8
0
100
AcDbLine
10
54.314078688621521
20
-26.437721252441424
30
0
11
52.842845320701599
21
-25.26700973510744
31
0
0
SPLINE
5
712
100
AcDbEntity
8
0
100
AcDbSpline
70
0
71
2
72
6
73
3
74
0
42
0.000000001
43
0.0000000001
44
0.0000000001
40
0
40
0
40
0
40
1
40
1
40
1
10
52.842845320701599
20
-25.26700973510744
30
0
10
52.168921828269958
20
-24.70588684082033
30
0
10
51.343936324119568
20
-24.70588684082033
30
0
0
LINE
5
713
100
AcDbEntity
8
0
100
AcDbLine
10
51.343936324119568
20
-24.70588684082033
30
0
11
46.898078322410576
21
-24.70588684082033
31
0
0
SPLINE
5
714
100
AcDbEntity
8
0
100
AcDbSpline
70
0
71
2
72
6
73
3
74
0
42
0.000000001
43
0.0000000001
44
0.0000000001
40
0
40
0
40
0
40
1
40
1
40
1
10
46.898078322410576
20
-24.70588684082033
30
0
10
45.660590529441826
20
-24.70588684082033
30
0
10
45.197181105613701
20
-24.72379684448244
30
0
0
LINE
5
715
100
AcDbEntity
8
0
100
AcDbLine
10
45.197181105613701
20
-24.72379684448244
30
0
11
43.147734999656677
21
-26.645402908325213
31
0
0
SPLINE
5
716
100
AcDbEntity
8
0
100
AcDbSpline
70
0
71
2
72
6
73
3
74
0
42
0.000000001
43
0.0000000001
44
0.0000000001
40
0
40
0
40
0
40
1
40
1
40
1
10
43.147734999656677
20
-26.645402908325213
30
0
10
42.948607802391045
20
-27.030210494995131
30
0
10
42.948607802391045
20
-27.86008834838869
30
0
0
LINE
5
717
100
AcDbEntity
8
0
100
AcDbLine
10
92.542819380760207
20
-27.676849365234393
30
0
11
92.542819380760207
21
-36.746091842651374
31
0
0
SPLINE
5
718
100
AcDbEntity
8
0
100
AcDbSpline
70
0
71
2
72
6
73
3
74
0
42
0.000000001
43
0.0000000001
44
0.0000000001
40
0
40
0
40
0
40
1
40
1
40
1
10
92.542819380760207
20
-36.746091842651374
30
0
10
92.542819380760207
20
-39.854688644409201
30
0
10
89.653090834617629
20
-42.457132339477546
30
0
0
SPLINE
5
719
100
AcDbEntity
8
0
100
AcDbSpline
70
0
71
2
72
6
73
3
74
0
42
0.000000001
43
0.0000000001
44
0.0000000001
40
0
40
0
40
0
40
1
40
1
40
1
10
89.653090834617629
20
-42.457132339477546
30
0
10
86.763362288475022
20
-45.059576034545906
30
0
10
83.660067915916457
20
-45.059576034545906
30
0
0
LINE
5
720
100
AcDbEntity
8
0
100
AcDbLine
10
83.660067915916457
20
-45.059576034545906
30
0
11
78.622950911521897
21
-45.059576034545906
31
0
0
SPLINE
5
721
100
AcDbEntity
8
0
100
AcDbSpline
70
0
71
2
72
6
73
3
74
0
42
0.000000001
43
0.0000000001
44
0.0000000001
40
0
40
0
40
0
40
1
40
1
40
1
10
78.622950911521897
20
-45.059576034545906
30
0
10
75.472812056541429
20
-45.059576034545906
30
0
10
72.632159590721116
20
-42.423944473266616
30
0
0
SPLINE
5
722
100
AcDbEntity
8
0
100
AcDbSpline
70
0
71
2
72
6
73
3
74
0
42
0.000000001
43
0.0000000001
44
0.0000000001
40
0
40
0
40
0
40
1
40
1
40
1
10
72.632159590721116
20
-42.423944473266616
30
0
10
69.791507124900818
20
-39.788312911987319
30
0
10
69.791507124900818
20
-36.746091842651374
30
0
0
LINE
5
723
100
AcDbEntity
8
0
100
AcDbLine
10
69.791507124900818
20
-36.746091842651374
30
0
11
69.791507124900818
21
-27.676849365234393
31
0
0
SPLINE
5
724
100
AcDbEntity
8
0
100
AcDbSpline
70
0
71
2
72
6
73
3
74
0
42
0.000000001
43
0.0000000001
44
0.0000000001
40
0
40
0
40
0
40
1
40
1
40
1
10
69.791507124900818
20
-27.676849365234393
30
0
10
69.791507124900818
20
-24.638690948486346
30
0
10
72.566813826560988
20
-22.001037597656264
30
0
0
SPLINE
5
725
100
AcDbEntity
8
0
100
AcDbSpline
70
0
71
2
72
6
73
3
74
0
42
0.000000001
43
0.0000000001
44
0.0000000001
40
0
40
0
40
0
40
1
40
1
40
1
10
72.566813826560988
20
-22.001037597656264
30
0
10
75.342101454734788
20
-19.363365173339862
30
0
10
78.622950911521897
20
-19.363365173339862
30
0
0
LINE
5
726
100
AcDbEntity
8
0
100
AcDbLine
10
78.622950911521897
20
-19.363365173339862
30
0
11
84.102286696434007
21
-19.363365173339862
31
0
0
SPLINE
5
727
100
AcDbEntity
8
0
100
AcDbSpline
70
0
71
2
72
6
73
3
74
0
42
0.000000001
43
0.0000000001
44
0.0000000001
40
0
40
0
40
0
40
1
40
1
40
1
10
84.102286696434007
20
-19.363365173339862
30
0
10
86.759299635887146
20
-19.316539764404315
30
0
10
89.651049971580505
20
-21.921014785766616
30
0
0
SPLINE
5
728
100
AcDbEntity
8
0
100
AcDbSpline
70
0
71
2
72
6
73
3
74
0
42
0.000000001
43
0.0000000001
44
0.0000000001
40
0
40
0
40
0
40
1
40
1
40
1
10
89.651049971580505
20
-21.921014785766616
30
0
10
92.542819380760207
20
-24.525489807128924
30
0
10
92.542819380760207
20
-27.676849365234393
30
0
0
LINE
5
729
100
AcDbEntity
8
0
100
AcDbLine
10
75.212211012840257
20
-27.86008834838869
30
0
11
75.212211012840257
21
-36.537609100341811
31
0
0
SPLINE
5
730
100
AcDbEntity
8
0
100
AcDbSpline
70
0
71
2
72
6
73
3
74
0
42
0.000000001
43
0.0000000001
44
0.0000000001
40
0
40
0
40
0
40
1
40
1
40
1
10
75.212211012840257
20
-36.537609100341811
30
0
10
75.212211012840257
20
-37.480287551879897
30
0
10
75.827483534812941
20
-37.982769012451186
30
0
0
LINE
5
731
100
AcDbEntity
8
0
100
AcDbLine
10
75.827483534812941
20
-37.982769012451186
30
0
11
77.468528151512132
21
-39.388036727905288
31
0
0
SPLINE
5
732
100
AcDbEntity
8
0
100
AcDbSpline
70
0
71
2
72
6
73
3
74
0
42
0.000000001
43
0.0000000001
44
0.0000000001
40
0
40
0
40
0
40
1
40
1
40
1
10
77.468528151512132
20
-39.388036727905288
30
0
10
77.852515578269944
20
-39.717054367065437
30
0
10
78.624991774559007
20
-39.717054367065437
30
0
0
LINE
5
733
100
AcDbEntity
8
0
100
AcDbLine
10
78.624991774559007
20
-39.717054367065437
30
0
11
83.607539534568772
21
-39.717054367065437
31
0
0
SPLINE
5
734
100
AcDbEntity
8
0
100
AcDbSpline
70
0
71
2
72
6
73
3
74
0
42
0.000000001
43
0.0000000001
44
0.0000000001
40
0
40
0
40
0
40
1
40
1
40
1
10
83.607539534568772
20
-39.717054367065437
30
0
10
84.512347579002366
20
-39.717054367065437
30
0
10
85.250186324119554
20
-39.060239791870131
30
0
0
LINE
5
735
100
AcDbEntity
8
0
100
AcDbLine
10
85.250186324119554
20
-39.060239791870131
30
0
11
86.528415083885193
21
-37.929840087890639
31
0
0
SPLINE
5
736
100
AcDbEntity
8
0
100
AcDbSpline
70
0
71
2
72
6
73
3
74
0
42
0.000000001
43
0.0000000001
44
0.0000000001
40
0
40
0
40
0
40
1
40
1
40
1
10
86.528415083885193
20
-37.929840087890639
30
0
10
87.174224257469177
20
-37.429790496826186
30
0
10
87.174224257469177
20
-36.588506698608406
30
0
0
LINE
5
737
100
AcDbEntity
8
0
100
AcDbLine
10
87.174224257469177
20
-36.588506698608406
30
0
11
87.174224257469177
21
-27.910985946655291
31
0
0
SPLINE
5
738
100
AcDbEntity
8
0
100
AcDbSpline
70
0
71
2
72
6
73
3
74
0
42
0.000000001
43
0.0000000001
44
0.0000000001
40
0
40
0
40
0
40
1
40
1
40
1
10
87.174224257469177
20
-27.910985946655291
30
0
10
87.174224257469177
20
-26.89908981323244
30
0
10
86.57768189907074
20
-26.437721252441424
30
0
0
LINE
5
739
100
AcDbEntity
8
0
100
AcDbLine
10
86.57768189907074
20
-26.437721252441424
30
0
11
85.106448531150804
21
-25.26700973510744
31
0
0
SPLINE
5
740
100
AcDbEntity
8
0
100
AcDbSpline
70
0
71
2
72
6
73
3
74
0
42
0.000000001
43
0.0000000001
44
0.0000000001
40
0
40
0
40
0
40
1
40
1
40
1
10
85.106448531150804
20
-25.26700973510744
30
0
10
84.432525038719163
20
-24.70588684082033
30
0
10
83.607539534568772
20
-24.70588684082033
30
0
0
LINE
5
741
100
AcDbEntity
8
0
100
AcDbLine
10
83.607539534568772
20
-24.70588684082033
30
0
11
79.161681532859816
21
-24.70588684082033
31
0
0
SPLINE
5
742
100
AcDbEntity
8
0
100
AcDbSpline
70
0
71
2
72
6
73
3
74
0
42
0.000000001
43
0.0000000001
44
0.0000000001
40
0
40
0
40
0
40
1
40
1
40
1
10
79.161681532859816
20
-24.70588684082033
30
0
10
77.924193739891066
20
-24.70588684082033
30
0
10
77.460784316062913
20
-24.72379684448244
30
0
0
LINE
5
743
100
AcDbEntity
8
0
100
AcDbLine
10
77.460784316062913
20
-24.72379684448244
30
0
11
75.411338210105882
21
-26.645402908325213
31
0
0
SPLINE
5
744
100
AcDbEntity
8
0
100
AcDbSpline
70
0
71
2
72
6
73
3
74
0
42
0.000000001
43
0.0000000001
44
0.0000000001
40
0
40
0
40
0
40
1
40
1
40
1
10
75.411338210105882
20
-26.645402908325213
30
0
10
75.212211012840257
20
-27.030210494995131
30
0
10
75.212211012840257
20
-27.86008834838869
30
0
0
LINE
5
745
100
AcDbEntity
8
0
100
AcDbLine
10
113.33301484584808
20
-24.91274833679201
30
0
11
107.47579514980316
21
-28.992929458618182
31
0
0
LINE
5
746
100
AcDbEntity
8
0
100
AcDbLine
10
107.47579514980316
20
-28.992929458618182
30
0
11
107.47579514980316
21
-42.443695068359382
31
0
0
SPLINE
5
747
100
AcDbEntity
8
0
100
AcDbSpline
70
0
71
2
72
6
73
3
74
0
42
0.000000001
43
0.0000000001
44
0.0000000001
40
0
40
0
40
0
40
1
40
1
40
1
10
107.47579514980316
20
-42.443695068359382
30
0
10
107.47579514980316
20
-43.525228500366239
30
0
10
106.68113648891449
20
-44.318456649780302
30
0
0
SPLINE
5
748
100
AcDbEntity
8
0
100
AcDbSpline
70
0
71
2
72
6
73
3
74
0
42
0.000000001
43
0.0000000001
44
0.0000000001
40
0
40
0
40
0
40
1
40
1
40
1
10
106.68113648891449
20
-44.318456649780302
30
0
10
105.88647782802582
20
-45.111694335937528
30
0
10
104.77847993373872
20
-45.111694335937528
30
0
0
SPLINE
5
749
100
AcDbEntity
8
0
100
AcDbSpline
70
0
71
2
72
6
73
3
74
0
42
0.000000001
43
0.0000000001
44
0.0000000001
40
0
40
0
40
0
40
1
40
1
40
1
10
104.77847993373872
20
-45.111694335937528
30
0
10
103.68064820766449
20
-45.111694335937528
30
0
10
102.89394319057465
20
-44.326601028442411
30
0
0
SPLINE
5
750
100
AcDbEntity
8
0
100
AcDbSpline
70
0
71
2
72
6
73
3
74
0
42
0.000000001
43
0.0000000001
44
0.0000000001
40
0
40
0
40
0
40
1
40
1
40
1
10
102.89394319057465
20
-44.326601028442411
30
0
10
102.10721909999849
20
-43.541517257690458
30
0
10
102.10721909999849
20
-42.444505691528335
30
0
0
LINE
5
751
100
AcDbEntity
8
0
100
AcDbLine
10
102.10721909999849
20
-42.444505691528335
30
0
11
102.10721909999849
21
-22.081861495971697
31
0
0
SPLINE
5
752
100
AcDbEntity
8
0
100
AcDbSpline
70
0
71
2
72
6
73
3
74
0
42
0.000000001
43
0.0000000001
44
0.0000000001
40
0
40
0
40
0
40
1
40
1
40
1
10
102.10721909999849
20
-22.081861495971694
30
0
10
102.10721909999849
20
-20.973043441772479
30
0
10
102.88192689418793
20
-20.168209075927752
30
0
0
SPLINE
5
753
100
AcDbEntity
8
0
100
AcDbSpline
70
0
71
2
72
6
73
3
74
0
42
0.000000001
43
0.0000000001
44
0.0000000001
40
0
40
0
40
0
40
1
40
1
40
1
10
102.88192689418793
20
-20.168209075927752
30
0
10
103.65663468837738
20
-19.363365173339862
30
0
10
104.77847993373872
20
-19.363365173339862
30
0
0
SPLINE
5
754
100
AcDbEntity
8
0
100
AcDbSpline
70
0
71
2
72
6
73
3
74
0
42
0.000000001
43
0.0000000001
44
0.0000000001
40
0
40
0
40
0
40
1
40
1
40
1
10
104.77847993373872
20
-19.363365173339862
30
0
10
105.87345063686372
20
-19.363365173339862
30
0
10
106.6746324300766
20
-20.177774429321307
30
0
0
SPLINE
5
755
100
AcDbEntity
8
0
100
AcDbSpline
70
0
71
2
72
6
73
3
74
0
42
0.000000001
43
0.0000000001
44
0.0000000001
40
0
40
0
40
0
40
1
40
1
40
1
10
106.6746324300766
20
-20.177774429321307
30
0
10
107.47579514980316
20
-20.992183685302752
30
0
10
107.47579514980316
20
-22.078609466552752
30
0
0
LINE
5
756
100
AcDbEntity
8
0
100
AcDbLine
10
107.47579514980316
20
-22.078609466552752
30
0
11
107.47579514980316
21
-22.985858917236342
31
0
0
LINE
5
757
100
AcDbEntity
8
0
100
AcDbLine
10
107.47579514980316
20
-22.985858917236342
30
0
11
110.38404405117036
21
-20.804462432861346
31
0
0
SPLINE
5
758
100
AcDbEntity
8
0
100
AcDbSpline
70
0
71
2
72
6
73
3
74
0
42
0.000000001
43
0.0000000001
44
0.0000000001
40
0
40
0
40
0
40
1
40
1
40
1
10
110.38404405117036
20
-20.804462432861346
30
0
10
112.65542924404144
20
-19.363365173339862
30
0
10
115.29371201992036
20
-19.363365173339862
30
0
0
LINE
5
759
100
AcDbEntity
8
0
100
AcDbLine
10
115.29371201992036
20
-19.363365173339862
30
0
11
117.28940904140472
21
-19.363365173339862
31
0
0
SPLINE
5
760
100
AcDbEntity
8
0
100
AcDbSpline
70
0
71
2
72
6
73
3
74
0
42
0.000000001
43
0.0000000001
44
0.0000000001
40
0
40
0
40
0
40
1
40
1
40
1
10
117.28940904140472
20
-19.363365173339862
30
0
10
120.06490647792816
20
-19.363365173339862
30
0
10
122.08974778652193
20
-21.329755783081072
30
0
0
SPLINE
5
761
100
AcDbEntity
8
0
100
AcDbSpline
70
0
71
2
72
6
73
3
74
0
42
0.000000001
43
0.0000000001
44
0.0000000001
40
0
40
0
40
0
40
1
40
1
40
1
10
122.08974778652193
20
-21.329755783081072
30
0
10
124.11455094814301
20
-23.296146392822283
30
0
10
124.22450959682465
20
-26.153497695922869
30
0
0
LINE
5
762
100
AcDbEntity
8
0
100
AcDbLine
10
124.22450959682465
20
-26.153497695922869
30
0
11
124.8239129781723
21
-42.43228912353517
31
0
0
SPLINE
5
763
100
AcDbEntity
8
0
100
AcDbSpline
70
0
71
2
72
6
73
3
74
0
42
0.000000001
43
0.0000000001
44
0.0000000001
40
0
40
0
40
0
40
1
40
1
40
1
10
124.8239129781723
20
-42.43228912353517
30
0
10
124.85607087612152
20
-43.527259826660185
30
0
10
124.06244218349457
20
-44.319477081298857
30
0
0
SPLINE
5
764
100
AcDbEntity
8
0
100
AcDbSpline
70
0
71
2
72
6
73
3
74
0
42
0.000000001
43
0.0000000001
44
0.0000000001
40
0
40
0
40
0
40
1
40
1
40
1
10
124.06244218349457
20
-44.319477081298857
30
0
10
123.26879441738129
20
-45.111694335937528
30
0
10
122.13514268398285
20
-45.111694335937528
30
0
0
SPLINE
5
765
100
AcDbEntity
8
0
100
AcDbSpline
70
0
71
2
72
6
73
3
74
0
42
0.000000001
43
0.0000000001
44
0.0000000001
40
0
40
0
40
0
40
1
40
1
40
1
10
122.13514268398285
20
-45.111694335937528
30
0
10
121.08537614345552
20
-45.111694335937528
30
0
10
120.29029786586761
20
-44.39786911010745
30
0
0
SPLINE
5
766
100
AcDbEntity
8
0
100
AcDbSpline
70
0
71
2
72
6
73
3
74
0
42
0.000000001
43
0.0000000001
44
0.0000000001
40
0
40
0
40
0
40
1
40
1
40
1
10
120.29029786586761
20
-44.39786911010745
30
0
10
119.49523866176605
20
-43.684034347534187
30
0
10
119.46510255336761
20
-42.497034072875991
30
0
0
LINE
5
767
100
AcDbEntity
8
0
100
AcDbLine
10
119.46510255336761
20
-42.497034072875991
30
0
11
118.81235063076021
21
-26.456451416015643
31
0
0
SPLINE
5
768
100
AcDbEntity
8
0
100
AcDbSpline
70
0
71
2
72
6
73
3
74
0
42
0.000000001
43
0.0000000001
44
0.0000000001
40
0
40
0
40
0
40
1
40
1
40
1
10
118.81235063076021
20
-26.456451416015643
30
0
10
118.75289857387544
20
-24.70588684082033
30
0
10
116.9803422689438
20
-24.70588684082033
30
0
0
LINE
5
769
100
AcDbEntity
8
0
100
AcDbLine
10
116.9803422689438
20
-24.70588684082033
30
0
11
114.8832505941391
21
-24.70588684082033
31
0
0
SPLINE
5
770
100
AcDbEntity
8
0
100
AcDbSpline
70
0
71
2
72
6
73
3
74
0
42
0.000000001
43
0.0000000001
44
0.0000000001
40
0
40
0
40
0
40
1
40
1
40
1
10
114.8832505941391
20
-24.70588684082033
30
0
10
114.08634126186372
20
-24.70588684082033
30
0
10
113.33301484584808
20
-24.91274833679201
30
0
0
CIRCLE
5
771
100
AcDbEntity
8
0
100
AcDbCircle
10
130.00000193715096
20
-50.00000074505806
30
0
40
3.0000000447034836
210
0
220
0
230
1
0
LWPOLYLINE
5
772
100
AcDbEntity
8
0
100
AcDbPolyline
90
8
70
1
43
0.0
10
-164.50000000000003
20
47.5
10
-164.5
20
-47.5
42
0.41421356237309731
10
-157.5
20
-54.499999999999986
10
157.5
20
-54.5
42
0.41421356237309764
10
164.5
20
-47.5
10
164.5
20
47.5
42
0.41421356237309731
10
157.5
20
54.499999999999986
10
-157.5
20
54.5
42
0.41421356237309731
0
LWPOLYLINE
5
773
100
AcDbEntity
8
0
100
AcDbPolyline
90
8
70
1
43
0.0
10
-137.59999999999999
20
5.0000000000000071
42
0.41421356237309503
10
-130.09999999999999
20
12.5
10
-130.10000000000002
20
43.500000000000028
42
0.41421356237309126
10
-137.59999999999997
20
51.000000000000007
10
-151.59999999999999
20
51.000000000000007
42
0.41421356237309609
10
-159.09999999999999
20
43.500000000000007
10
-159.09999999999999
20
12.499999999999996
42
0.41421356237309465
10
-151.59999999999999
20
5.0000000000000044
0
LWPOLYLINE
5
774
100
AcDbEntity
8
0
100
AcDbPolyline
90
8
70
1
43
0.0
10
-105.20000000000002
20
5.0000000000000071
42
0.41421356237309576
10
-97.699999999999989
20
12.5
10
-97.700000000000017
20
43.500000000000021
42
0.41421356237309365
10
-105.19999999999996
20
51.000000000000007
10
-119.2
20
50.999999999999986
42
0.41421356237309748
10
-126.70000000000003
20
43.500000000000007
10
-126.70000000000002
20
12.499999999999996
42
0.41421356237309465
10
-119.20000000000002
20
5.0000000000000044
0
LWPOLYLINE
5
775
100
AcDbEntity
8
0
100
AcDbPolyline
90
8
70
1
43
0.0
10
-72.799999999999983
20
5.0000000000000018
42
0.41421356237309553
10
-65.299999999999997
20
12.5
10
-65.299999999999997
20
43.500000000000021
42
0.41421356237309437
10
-72.799999999999983
20
51.000000000000007
10
-86.799999999999983
20
51.000000000000007
42
0.41421356237309609
10
-94.299999999999997
20
43.500000000000007
10
-94.299999999999997
20
12.499999999999993
42
0.41421356237309265
10
-86.799999999999983
20
5.0000000000000044
0
LWPOLYLINE
5
776
100
AcDbEntity
8
0
100
AcDbPolyline
90
8
70
1
43
0.0
10
-40.400000000000006
20
5.0000000000000044
42
0.41421356237309653
10
-32.899999999999999
20
12.5
10
-32.899999999999991
20
43.500000000000021
42
0.41421356237309437
10
-40.399999999999991
20
51.000000000000007
10
-54.400000000000013
20
51.000000000000014
42
0.41421356237309648
10
-61.900000000000006
20
43.500000000000007
10
-61.900000000000006
20
12.499999999999996
42
0.41421356237309365
10
-54.400000000000013
20
5.0000000000000044
0
LWPOLYLINE
5
777
100
AcDbEntity
8
0
100
AcDbPolyline
90
8
70
1
43
0.0
10
-29.5
20
12.499999999999996
10
-29.5
20
43.500000000000007
42
-0.41421356237309731
10
-22.000000000000007
20
51
10
-7.9999999999999947
20
51.000000000000007
42
-0.41421356237309542
10
-0.50000000000000044
20
43.500000000000021
10
-0.49999999999999933
20
12.5
42
-0.41421356237309587
10
-8.0000000000000018
20
5.0000000000000053
10
-22.000000000000011
20
5.0000000000000044
42
-0.4142135623730947
0
LWPOLYLINE
5
778
100
AcDbEntity
8
0
100
AcDbPolyline
90
8
70
1
43
0.0
10
24.399999999999999
20
5.0000000000000044
42
0.4142135623730962
10
31.900000000000006
20
12.5
10
31.899999999999999
20
43.500000000000021
42
0.41421356237309576
10
24.400000000000013
20
51.000000000000007
10
10.39999999999999
20
51.000000000000007
42
0.41421356237309687
10
2.8999999999999941
20
43.500000000000007
10
2.8999999999999995
20
12.499999999999996
42
0.41421356237309503
10
10.39999999999999
20
5.0000000000000053
0
LWPOLYLINE
5
779
100
AcDbEntity
8
0
100
AcDbPolyline
90
8
70
1
43
0.0
10
56.799999999999997
20
4.9999999999999982
42
0.41421356237309576
10
64.299999999999997
20
12.5
10
64.299999999999997
20
43.500000000000021
42
0.41421356237309437
10
56.799999999999997
20
51.000000000000007
10
42.799999999999997
20
51
42
0.41421356237309748
10
35.299999999999997
20
43.500000000000007
10
35.299999999999997
20
12.499999999999996
42
0.41421356237309465
10
42.799999999999983
20
5
0
LWPOLYLINE
5
780
100
AcDbEntity
8
0
100
AcDbPolyline
90
8
70
1
43
0.0
10
89.200000000000003
20
5.0000000000000071
42
0.41421356237309576
10
96.700000000000017
20
12.5
10
96.700000000000017
20
43.500000000000028
42
0.41421356237309231
10
89.200000000000003
20
51.000000000000007
10
75.199999999999974
20
51.000000000000014
42
0.41421356237309609
10
67.699999999999989
20
43.500000000000007
10
67.699999999999989
20
12.499999999999996
42
0.4142135623730952
10
75.199999999999974
20
5.0000000000000044
0
LWPOLYLINE
5
781
100
AcDbEntity
8
0
100
AcDbPolyline
90
8
70
1
43
0.0
10
121.59999999999998
20
5.0000000000000071
42
0.41421356237309576
10
129.09999999999999
20
12.5
10
129.09999999999999
20
43.500000000000021
42
0.4142135623730947
10
121.59999999999999
20
51.000000000000007
10
107.59999999999998
20
51
42
0.41421356237309709
10
100.09999999999999
20
43.500000000000007
10
100.10000000000002
20
12.499999999999996
42
0.41421356237309193
10
107.59999999999998
20
5.0000000000000044
0
LWPOLYLINE
5
782
100
AcDbEntity
8
0
100
AcDbPolyline
90
8
70
1
43
0.0
10
154
20
5
42
0.41421356237309531
10
161.5
20
12.5
10
161.5
20
43.500000000000014
42
0.41421356237309814
10
154
20
51
10
139.99999999999997
20
51.000000000000007
42
0.41421356237309609
10
132.49999999999997
20
43.500000000000007
10
132.50000000000003
20
12.499999999999998
42
0.41421356237309598
10
139.99999999999997
20
5.0000000000000044
0
LWPOLYLINE
5
783
100
AcDbEntity
8
0
100
AcDbPolyline
90
8
70
1
43
0.0
10
-137.60000000000002
20
-49.999999999999986
42
0.41421356237309542
10
-130.09999999999999
20
-42.5
10
-130.09999999999999
20
-11.499999999999984
42
0.41421356237309287
10
-137.59999999999997
20
-3.9999999999999929
10
-151.59999999999999
20
-4.0000000000000018
42
0.41421356237309503
10
-159.09999999999999
20
-11.499999999999995
10
-159.09999999999999
20
-42.5
42
0.41421356237309365
10
-151.59999999999999
20
-49.999999999999993
0
LWPOLYLINE
5
784
100
AcDbEntity
8
0
100
AcDbPolyline
90
8
70
1
43
0.0
10
-105.20000000000003
20
-50
42
0.41421356237309542
10
-97.699999999999989
20
-42.5
10
-97.700000000000017
20
-11.499999999999984
42
0.41421356237309387
10
-105.19999999999996
20
-3.9999999999999929
10
-119.20000000000002
20
-3.9999999999999969
42
0.41421356237309592
10
-126.70000000000003
20
-11.499999999999995
10
-126.70000000000002
20
-42.5
42
0.41421356237309365
10
-119.20000000000002
20
-49.999999999999993
0
LWPOLYLINE
5
785
100
AcDbEntity
8
0
100
AcDbPolyline
90
8
70
1
43
0.0
10
-72.799999999999983
20
-49.999999999999986
42
0.41421356237309576
10
-65.299999999999997
20
-42.5
10
-65.299999999999997
20
-11.499999999999984
42
0.41421356237309342
10
-72.799999999999983
20
-3.9999999999999929
10
-86.799999999999983
20
-3.9999999999999791
42
0.4142135623730952
10
-94.299999999999997
20
-11.499999999999995
10
-94.299999999999997
20
-42.500000000000007
42
0.41421356237309231
10
-86.799999999999983
20
-49.999999999999993
0
LWPOLYLINE
5
786
100
AcDbEntity
8
0
100
AcDbPolyline
90
8
70
1
43
0.0
10
-40.399999999999999
20
-49.999999999999986
42
0.41421356237309503
10
-32.899999999999999
20
-42.5
10
-32.899999999999999
20
-11.499999999999984
42
0.41421356237309503
10
-40.399999999999991
20
-3.9999999999999885
10
-54.400000000000013
20
-3.9999999999999925
42
0.41421356237309542
10
-61.900000000000006
20
-11.499999999999995
10
-61.899999999999991
20
-42.5
42
0.4142135623730947
10
-54.400000000000013
20
-49.999999999999993
0
LWPOLYLINE
5
787
100
AcDbEntity
8
0
100
AcDbPolyline
90
8
70
1
43
0.0
10
-7.9999999999999982
20
-49.999999999999986
42
0.41421356237309498
10
-0.499999999999996
20
-42.5
10
-0.49999999999999711
20
-11.499999999999986
42
0.41421356237309542
10
-7.9999999999999938
20
-3.9999999999999942
10
-22.000000000000011
20
-3.9999999999999925
42
0.41421356237309609
10
-29.5
20
-11.499999999999995
10
-29.5
20
-42.499999999999993
42
0.41421356237309453
10
-22.000000000000011
20
-49.999999999999993
0
LWPOLYLINE
5
788
100
AcDbEntity
8
0
100
AcDbPolyline
90
8
70
1
43
0.0
10
24.399999999999999
20
-49.999999999999986
42
0.41421356237309503
10
31.900000000000006
20
-42.5
10
31.899999999999995
20
-11.499999999999986
42
0.41421356237309542
10
24.400000000000013
20
-3.9999999999999929
10
10.39999999999999
20
-3.9999999999999925
42
0.4142135623730962
10
2.8999999999999941
20
-11.499999999999995
10
2.8999999999999937
20
-42.5
42
0.41421356237309442
10
10.39999999999999
20
-49.999999999999993
0
LWPOLYLINE
5
789
100
AcDbEntity
8
0
100
AcDbPolyline
90
8
70
1
43
0.0
10
64.299999999999997
20
-11.499999999999984
42
0.41421356237309465
10
56.799999999999997
20
-3.9999999999999925
10
42.799999999999997
20
-3.9999999999999982
42
0.41421356237309687
10
35.299999999999997
20
-11.499999999999995
10
35.300000000000004
20
-42.5
42
0.4142135623730947
10
42.799999999999983
20
-49.999999999999993
10
56.799999999999997
20
-49.999999999999993
42
0.4142135623730947
10
64.299999999999997
20
-42.5
0
LWPOLYLINE
5
790
100
AcDbEntity
8
0
100
AcDbPolyline
90
8
70
1
43
0.0
10
89.199999999999989
20
-50
42
0.41421356237309542
10
96.700000000000017
20
-42.5
10
96.700000000000017
20
-11.499999999999982
42
0.41421356237309265
10
89.200000000000003
20
-3.9999999999999929
10
75.199999999999974
20
-3.9999999999999858
42
0.41421356237309598
10
67.699999999999989
20
-11.499999999999995
10
67.699999999999989
20
-42.5
42
0.41421356237309542
10
75.199999999999974
20
-49.999999999999993
0
LWPOLYLINE
5
791
100
AcDbEntity
8
0
100
AcDbPolyline
90
8
70
1
43
0.0
10
121.59999999999997
20
-50
42
0.41421356237309542
10
129.09999999999999
20
-42.5
10
129.09999999999999
20
-11.499999999999984
42
0.41421356237309465
10
121.59999999999999
20
-3.9999999999999929
10
107.59999999999998
20
-3.9999999999999911
42
0.41421356237309609
10
100.09999999999999
20
-11.499999999999995
10
100.09999999999999
20
-42.5
42
0.41421356237309293
10
107.59999999999998
20
-49.999999999999993
0
LWPOLYLINE
5
792
100
AcDbEntity
8
0
100
AcDbPolyline
90
8
70
1
43
0.0
10
154
20
-50
42
0.41421356237309542
10
161.50000000000003
20
-42.5
10
161.5
20
-11.499999999999986
42
0.41421356237309764
10
154
20
-4.0000000000000107
10
139.99999999999997
20
-3.9999999999999791
42
0.4142135623730952
10
132.49999999999997
20
-11.499999999999995
10
132.5
20
-42.5
42
0.41421356237309576
10
139.99999999999997
20
-49.999999999999993
0
CIRCLE
5
793
100
AcDbEntity
8
0
100
AcDbCircle
10
-31.20000000000001
20
0
30
0
40
6.0999995827674809
210
0
220
0
230
1
0
CIRCLE
5
794
100
AcDbEntity
8
0
100
AcDbCircle
10
33.599999999999994
20
0
30
0
40
6.0999995827674809
210
0
220
0
230
1
0
CIRCLE
5
795
100
AcDbEntity
8
0
100
AcDbCircle
10
66
20
0
30
0
40
6.0999995827674809
210
0
220
0
230
1
0
CIRCLE
5
796
100
AcDbEntity
8
0
100
AcDbCircle
10
98.40000000000002
20
0
30
0
40
6.0999995827674809
210
0
220
0
230
1
0
ENDSEC
0
SECTION
2
OBJECTS
0
DICTIONARY
5
C
100
AcDbDictionary
3
ACAD_GROUP
350
D
3
ACAD_MLINESTYLE
350
17
0
DICTIONARY
5
D
100
AcDbDictionary
0
DICTIONARY
5
1A
330
C
100
AcDbDictionary
0
DICTIONARY
5
17
100
AcDbDictionary
0
ENDSEC
0
EOF
